<?xml version="1.0" encoding="UTF-8"?>
<!DOCTYPE svg PUBLIC "-//W3C//DTD SVG 1.1//EN" "http://www.w3.org/Graphics/SVG/1.1/DTD/svg11.dtd">
<!-- Creator: CorelDRAW X7 -->
<svg xmlns="http://www.w3.org/2000/svg" xml:space="preserve" width="100%" height="100%" version="1.1" style="shape-rendering:geometricPrecision; text-rendering:geometricPrecision; image-rendering:optimizeQuality; fill-rule:evenodd; clip-rule:evenodd"
viewBox="0 0 5478 2267"
 xmlns:xlink="http://www.w3.org/1999/xlink">
 <defs>
  <style type="text/css">
   <![CDATA[
    .fil0 {fill:#D34926}
   ]]>
  </style>
 </defs>
 <g id="Layer_x0020_1">
  <metadata id="CorelCorpID_0Corel-Layer"/>
  <path class="fil0" d="M-21 -9l5475 0 0 2266 -5475 0 0 -2266zm2594 628l193 0c3,-9 6,-20 11,-31 16,-47 40,-111 44,-170 6,-68 -15,-128 -108,-136 -56,-5 -106,10 -151,23 -42,11 -81,22 -119,19 -38,-4 -72,-10 -102,-21 -31,-12 -57,-31 -78,-60 -6,-8 -4,-19 4,-25 8,-6 19,-4 25,4 17,23 38,37 62,47 27,10 58,15 93,19 31,3 66,-7 105,-18 48,-14 102,-29 164,-24 122,10 149,88 142,175 -6,63 -30,130 -47,179 -3,7 -5,13 -7,19l186 0c67,0 128,27 173,72 44,44 72,105 72,172l0 900c0,68 -28,129 -72,173 -45,44 -106,72 -173,72l-417 0c-67,0 -128,-28 -172,-72 -45,-44 -72,-105 -72,-173l0 -900c0,-67 27,-128 72,-172 44,-45 105,-72 172,-72zm417 18l-193 0c-4,7 -13,11 -21,8l0 0 0 383 440 0 0 -165c0,-62 -25,-118 -66,-160 -41,-41 -98,-66 -160,-66zm-224 0l-193 0c-62,0 -118,25 -159,66 -42,42 -67,98 -67,160l0 165 419 0 0 -391 0 0zm-419 409l0 717c0,63 25,119 67,160 41,41 97,67 159,67l417 0c62,0 119,-26 160,-67 41,-41 66,-97 66,-160l0 -717 -869 0z"/>
 </g>
</svg>
