<?xml version="1.0" encoding="UTF-8"?>
<!DOCTYPE svg PUBLIC "-//W3C//DTD SVG 1.1//EN" "http://www.w3.org/Graphics/SVG/1.1/DTD/svg11.dtd">
<!-- Creator: CorelDRAW X7 -->
<svg xmlns="http://www.w3.org/2000/svg" xml:space="preserve" width="100%" height="100%" version="1.1" style="shape-rendering:geometricPrecision; text-rendering:geometricPrecision; image-rendering:optimizeQuality; fill-rule:evenodd; clip-rule:evenodd"
viewBox="0 0 5478 2267"
 xmlns:xlink="http://www.w3.org/1999/xlink">
 <defs>
  <style type="text/css">
   <![CDATA[
    .fil0 {fill:#06980F}
   ]]>
  </style>
 </defs>
 <g id="Layer_x0020_1">
  <metadata id="CorelCorpID_0Corel-Layer"/>
  <path class="fil0" d="M3322 98c122,-34 124,75 173,179 100,211 -49,62 99,248 39,49 77,119 68,178 -170,64 -275,-44 -460,75 -33,22 -268,232 -259,298 68,121 122,66 178,150 27,40 85,428 170,515 93,95 182,18 264,35 44,88 -192,201 -216,206l-29 2c-79,1 -70,-111 -91,-170 -19,-52 -58,-88 -97,-149 -32,-49 -69,-101 -87,-161 -30,-100 1,-138 -87,-158 -53,113 11,240 -98,391 -212,12 -345,-125 -594,-126 -41,72 -30,50 -96,104 -3,3 -7,6 -10,9 -69,57 -41,53 -116,58 3,-108 75,-260 134,-344 180,-11 -36,69 531,113 -57,-445 -319,-296 -118,-670 61,-112 96,-119 122,-212 -156,-99 -223,-97 -446,-141 -63,-12 -436,-17 -433,-114 1,0 17,-60 144,-14 71,25 35,36 124,44 126,12 190,-4 321,25 77,17 496,23 549,12 38,-122 18,-203 176,-188 137,13 90,162 81,243 135,26 159,61 290,71 -45,-209 -58,-36 -108,-253 -19,-85 3,-8 -61,-107 -33,-50 -39,-96 -18,-149zm-3343 2177l5520 0 0 -2284 -5520 0 0 2284z"/>
 </g>
</svg>
