<?xml version="1.0" encoding="UTF-8"?>
<!DOCTYPE svg PUBLIC "-//W3C//DTD SVG 1.1//EN" "http://www.w3.org/Graphics/SVG/1.1/DTD/svg11.dtd">
<!-- Creator: CorelDRAW X7 -->
<svg xmlns="http://www.w3.org/2000/svg" xml:space="preserve" width="100%" height="100%" version="1.1" style="shape-rendering:geometricPrecision; text-rendering:geometricPrecision; image-rendering:optimizeQuality; fill-rule:evenodd; clip-rule:evenodd"
viewBox="0 0 5478 2267"
 xmlns:xlink="http://www.w3.org/1999/xlink">
 <defs>
  <style type="text/css">
   <![CDATA[
    .fil0 {fill:#6CB71D}
    .fil1 {fill:#8EC852}
   ]]>
  </style>
 </defs>
 <g id="Layer_x0020_1">
  <metadata id="CorelCorpID_0Corel-Layer"/>
  <g id="_489400061664">
   <path class="fil0" d="M2549 1900c30,-46 6,-12 28,-33 2,-2 7,-7 10,-10 4,-3 18,-15 22,-19 -38,-133 -98,-403 -23,-522 35,-54 97,-127 137,-162 105,-92 71,-114 -38,-167l-92 111c-53,61 -39,67 -79,129 -54,83 -123,80 -140,173 -18,104 54,-17 -7,73 -132,60 -66,-102 -248,-7 -108,56 -135,98 -295,76 -76,-94 -76,-176 4,-270 214,-53 245,144 426,150 35,-10 229,-333 238,-350 38,-68 43,-143 84,-217 37,-66 73,-113 105,-193 -47,-54 -52,-31 -61,-113 -8,-72 -4,-89 21,-153 84,-19 85,-16 164,5l29 75c17,36 3,16 20,36 100,-52 89,-28 205,-34 108,-5 331,-62 431,-98 61,-21 53,-34 90,1 41,39 13,-8 -54,46l-11 15c30,45 40,33 33,50 -121,-45 -377,36 -476,111 -4,2 -9,6 -12,8 -3,3 -9,7 -12,9 -2,2 -8,6 -12,8 29,65 51,84 83,148 91,184 -15,66 159,322 408,595 165,474 241,663 10,25 52,69 84,165 -168,10 -76,-28 -194,-89 42,-322 -47,-269 -114,-392l-118 32c-31,-102 -65,-169 -136,-213 -75,22 -177,117 -204,170 -71,-11 -92,-63 -134,-3l-12 395c8,65 43,111 12,175 -74,20 -184,41 -260,23 32,-80 -12,-4 56,-63 59,-51 29,-3 50,-61zm-2526 359l5437 0 0 -2249 -5437 0 0 2249z"/>
   <path class="fil1" d="M2549 1900c38,-18 54,-5 60,-62 -4,4 -18,16 -22,19 -3,3 -8,8 -10,10 -22,21 2,-13 -28,33z"/>
  </g>
 </g>
</svg>
