<?xml version="1.0" encoding="UTF-8"?>
<!DOCTYPE svg PUBLIC "-//W3C//DTD SVG 1.1//EN" "http://www.w3.org/Graphics/SVG/1.1/DTD/svg11.dtd">
<!-- Creator: CorelDRAW X7 -->
<svg xmlns="http://www.w3.org/2000/svg" xml:space="preserve" width="100%" height="100%" version="1.1" style="shape-rendering:geometricPrecision; text-rendering:geometricPrecision; image-rendering:optimizeQuality; fill-rule:evenodd; clip-rule:evenodd"
viewBox="0 0 5478 2267"
 xmlns:xlink="http://www.w3.org/1999/xlink">
 <defs>
  <style type="text/css">
   <![CDATA[
    .fil0 {fill:#06980F}
   ]]>
  </style>
 </defs>
 <g id="Layer_x0020_1">
  <metadata id="CorelCorpID_0Corel-Layer"/>
  <g id="_489391705216">
   <path class="fil0" d="M3064 745l-186 47 111 378c5,126 -145,273 -162,382 80,96 148,181 211,267 -87,138 -94,109 -162,111 25,-56 96,-59 -111,-242 -92,57 -84,111 -101,163 -36,112 -204,100 -240,26 192,-12 259,-383 218,-620 -27,-158 70,-151 -62,-318 -21,-27 -78,-101 -87,-124 -44,-116 20,-79 67,-139 -117,-88 -87,-196 81,-193 45,76 35,89 64,149 182,-170 80,-244 -4,-309 -213,-162 -244,-341 66,-27 84,86 69,20 161,106 112,105 62,46 77,156 12,87 69,79 59,187zm276 542l0 30 0 547 -32 0 0 -547 -55 0 0 547 -32 0 0 -547 -49 0 0 547 -31 0 0 -547 -2 0 0 -32 201 0 0 2zm-3352 988l5502 0 0 -2284 -5502 0 0 2284z"/>
   <path class="fil0" d="M2801 658l180 22c-9,-83 -62,-145 -99,-208 -47,36 -66,121 -81,186z"/>
  </g>
 </g>
</svg>
