<?xml version="1.0" encoding="UTF-8"?>
<!DOCTYPE svg PUBLIC "-//W3C//DTD SVG 1.1//EN" "http://www.w3.org/Graphics/SVG/1.1/DTD/svg11.dtd">
<!-- Creator: CorelDRAW X7 -->
<svg xmlns="http://www.w3.org/2000/svg" xml:space="preserve" width="100%" height="100%" version="1.1" style="shape-rendering:geometricPrecision; text-rendering:geometricPrecision; image-rendering:optimizeQuality; fill-rule:evenodd; clip-rule:evenodd"
viewBox="0 0 5478 2267"
 xmlns:xlink="http://www.w3.org/1999/xlink">
 <defs>
  <style type="text/css">
   <![CDATA[
    .fil0 {fill:#2C87EE}
   ]]>
  </style>
 </defs>
 <g id="Layer_x0020_1">
  <metadata id="CorelCorpID_0Corel-Layer"/>
  <path class="fil0" d="M2738 469l480 0 53 -2 79 2 15 -177 146 -7 16 159 221 22 0 40c-87,0 -147,22 -221,21l-16 160 -146 -8 -15 -177 -59 8c-42,237 -457,348 -402,678 14,80 49,116 80,188 61,136 64,358 81,469 17,116 53,90 115,182l-89 6c-21,-6 -63,-34 -81,-44 6,-124 -35,-241 -71,-355 -16,-55 -49,-97 -80,-132 -59,-67 -42,-53 -87,-134 -8,2 -14,4 -19,6l0 900 2759 0 0 -2283 -2759 0 0 478zm0 126c-17,0 -39,3 -65,11 -38,73 -13,100 -15,175 -157,-6 -288,-148 -400,-247l29 -29 456 0 0 1 451 -1 30 29c-112,100 -243,241 -401,248 -1,-75 23,-102 -15,-175 -29,-9 -52,-12 -70,-11l0 -1zm-1 -126l-480 0 -53 -2 -79 2 -15 -177 -146 -7 -16 159 -220 21 0 41c86,0 146,22 220,21l16 160 146 -8 15 -177 59 8c42,237 458,348 402,678 -14,80 -49,116 -80,188 -61,136 -64,358 -81,469 -17,116 -53,90 -115,182l89 6c21,-7 63,-34 81,-44 -6,-124 36,-241 71,-355 16,-55 49,-98 80,-132 59,-67 42,-53 87,-134 8,2 14,4 19,6l0 900 -2759 0 0 -2283 2759 0 0 478z"/>
 </g>
</svg>
