<?xml version="1.0" encoding="UTF-8"?>
<!DOCTYPE svg PUBLIC "-//W3C//DTD SVG 1.1//EN" "http://www.w3.org/Graphics/SVG/1.1/DTD/svg11.dtd">
<!-- Creator: CorelDRAW X7 -->
<svg xmlns="http://www.w3.org/2000/svg" xml:space="preserve" width="100%" height="100%" version="1.1" style="shape-rendering:geometricPrecision; text-rendering:geometricPrecision; image-rendering:optimizeQuality; fill-rule:evenodd; clip-rule:evenodd"
viewBox="0 0 5478 2267"
 xmlns:xlink="http://www.w3.org/1999/xlink">
 <defs>
  <style type="text/css">
   <![CDATA[
    .fil0 {fill:#00508F}
   ]]>
  </style>
 </defs>
 <g id="Layer_x0020_1">
  <metadata id="CorelCorpID_0Corel-Layer"/>
  <path class="fil0" d="M2353 326c5,4 28,37 36,48 77,57 17,6 114,36 90,28 15,39 127,35 59,-95 -19,-109 10,-235 230,-113 252,86 212,193l-23 44c84,62 57,-10 178,36l155 41 7 -127c-35,1 -62,13 -103,-3 6,-59 19,-89 91,-79 60,9 49,24 76,75 197,364 -134,324 -232,276 -32,127 -137,169 -73,337 17,46 54,78 78,149 129,375 -165,581 -149,839 52,43 153,80 178,108l-239 8c-6,-1 -11,-2 -17,-3l-50 -15 26 -302c-79,23 -79,53 -108,137 -67,188 18,62 20,151 -85,9 -129,28 -134,-58 -6,-98 5,-64 -16,-171 73,-72 104,-32 143,-160 27,-91 44,-123 137,-145 -32,-57 -59,-60 -86,-131 -20,-52 -21,-122 -43,-168 -25,-54 -65,-64 -65,-146 0,-78 28,-84 46,-154 -4,-41 -187,-264 -192,-273 -23,-39 -24,-60 -43,-96 -132,-19 -186,-79 -249,-224 57,-91 62,-99 185,-141 82,-29 173,-46 217,26 -51,87 -44,12 -155,2 -26,27 -38,48 -59,90zm-2387 1955l5546 0 0 -2295 -5546 0 0 2295z"/>
 </g>
</svg>
