<?xml version="1.0" encoding="UTF-8"?>
<!DOCTYPE svg PUBLIC "-//W3C//DTD SVG 1.1//EN" "http://www.w3.org/Graphics/SVG/1.1/DTD/svg11.dtd">
<!-- Creator: CorelDRAW X7 -->
<svg xmlns="http://www.w3.org/2000/svg" xml:space="preserve" width="100%" height="100%" version="1.1" style="shape-rendering:geometricPrecision; text-rendering:geometricPrecision; image-rendering:optimizeQuality; fill-rule:evenodd; clip-rule:evenodd"
viewBox="0 0 5478 2267"
 xmlns:xlink="http://www.w3.org/1999/xlink">
 <defs>
  <style type="text/css">
   <![CDATA[
    .fil0 {fill:#D34926}
   ]]>
  </style>
 </defs>
 <g id="Layer_x0020_1">
  <metadata id="CorelCorpID_0Corel-Layer"/>
  <path class="fil0" d="M660 1860c403,33 394,-104 568,-51 225,69 387,81 591,16 267,-84 170,48 540,42 98,-2 178,-16 270,-47 268,-89 244,160 822,-13 166,-49 221,89 565,54 114,-11 179,-49 262,-63 124,-20 252,109 565,57 95,-16 195,-62 285,-62 -103,83 -428,108 -562,90 -71,-10 -218,-59 -256,-59 -103,-1 -218,108 -567,49 -94,-15 -183,-62 -268,-42 -207,48 -350,84 -579,35 -130,-27 -119,-63 -243,-24 -199,63 -392,59 -578,11 -171,-44 -93,-38 -264,0 -166,38 -367,50 -579,-11 -121,-35 -134,3 -258,27 -92,18 -235,47 -314,-9zm9 20l-309 -58c25,-16 -45,-37 76,-17 8,1 61,21 73,24 70,21 96,11 160,51zm1615 -1398c289,0 575,-75 852,-82 444,-12 496,103 720,204 133,60 237,55 378,96 139,40 220,148 290,164 121,27 299,8 436,40 181,42 90,130 40,276l-333 -15c81,254 299,303 305,537 -50,-1 -155,-62 -190,-92l-129 -136c-64,-67 -36,-86 -134,-150 -226,-148 -189,-343 -471,-353 -186,-6 -284,-23 -398,-123 -256,-225 -442,-213 -854,-214 -608,-1 -1202,-62 -1808,14 -139,18 -428,88 -520,10 160,-35 249,-49 403,-106 79,-29 329,-3 455,-15 161,-16 298,-50 446,-67 188,-21 330,12 512,12zm-2293 1788l5495 0 0 -2274 -5495 0 0 2274z"/>
 </g>
</svg>
