<?xml version="1.0" encoding="UTF-8"?>
<!DOCTYPE svg PUBLIC "-//W3C//DTD SVG 1.1//EN" "http://www.w3.org/Graphics/SVG/1.1/DTD/svg11.dtd">
<!-- Creator: CorelDRAW X7 -->
<svg xmlns="http://www.w3.org/2000/svg" xml:space="preserve" width="100%" height="100%" version="1.1" style="shape-rendering:geometricPrecision; text-rendering:geometricPrecision; image-rendering:optimizeQuality; fill-rule:evenodd; clip-rule:evenodd"
viewBox="0 0 5478 2267"
 xmlns:xlink="http://www.w3.org/1999/xlink">
 <defs>
  <style type="text/css">
   <![CDATA[
    .fil0 {fill:#DB542D}
   ]]>
  </style>
 </defs>
 <g id="Layer_x0020_1">
  <metadata id="CorelCorpID_0Corel-Layer"/>
  <path class="fil0" d="M2220 1644c-5,10 -12,18 -18,23 -7,8 -15,14 -23,20 -7,9 -6,12 -11,7 -24,15 -52,23 -82,23 -91,0 -164,-75 -164,-168 0,-71 43,-131 104,-156 4,-2 9,-4 14,-6l5 0c13,-4 26,-6 41,-6 4,0 9,0 14,1 112,-51 285,-368 310,-447 24,-79 1,-125 29,-216 49,-155 73,-78 46,-160 -124,-374 173,-316 192,-94 -4,43 -12,30 34,31 145,11 345,68 464,146 111,72 108,93 120,286 10,170 2,63 62,154 9,12 34,29 1,80 -9,14 -7,8 -9,9 -56,38 65,-9 -15,2l-25 7c-2,1 -6,7 -7,8 -2,2 -7,14 -7,11 -2,-4 -5,8 -5,10l-41 -73c-37,43 -6,57 -51,35 56,-185 11,-262 -39,-417l-91 -9c10,248 235,394 -80,564 -10,203 -2,116 -73,163 111,81 55,42 130,167 54,91 84,58 144,136 6,22 -109,277 -267,211 -8,-57 181,-187 -12,-344 -141,-116 -114,-44 -154,-132 -18,-40 -7,-111 -116,-81 -2,5 -3,11 -4,15l-7 32c-18,91 3,61 -41,130 -139,220 -40,267 -106,348 -19,24 -106,54 -135,59 -129,-104 -58,-101 2,-174 226,-275 41,-348 196,-561 4,-4 13,-18 16,-22l14 -24c26,-39 125,-121 93,-237 -16,-60 -44,-76 -119,-88 -171,480 -187,292 -361,510 0,0 1,1 1,2 37,31 60,78 60,130 0,35 -11,68 -29,95zm-2219 622l5476 0 0 -2266 -5476 0 0 2266z"/>
 </g>
</svg>
