<?xml version="1.0" encoding="UTF-8"?>
<!DOCTYPE svg PUBLIC "-//W3C//DTD SVG 1.1//EN" "http://www.w3.org/Graphics/SVG/1.1/DTD/svg11.dtd">
<!-- Creator: CorelDRAW X7 -->
<svg xmlns="http://www.w3.org/2000/svg" xml:space="preserve" width="100%" height="100%" version="1.1" style="shape-rendering:geometricPrecision; text-rendering:geometricPrecision; image-rendering:optimizeQuality; fill-rule:evenodd; clip-rule:evenodd"
viewBox="0 0 1776 3674"
 xmlns:xlink="http://www.w3.org/1999/xlink">
 <defs>
  <style type="text/css">
   <![CDATA[
    .fil0 {fill:#562e1c}
    .fil1 {fill:#562e1c}
   ]]>
  </style>
 </defs>
 <g id="Layer_x0020_1">
  <metadata id="CorelCorpID_0Corel-Layer"/>
  <g id="_944440776160">
   <path class="fil0" d="M947 2507c22,-23 -43,-17 42,-19 -3,26 -4,60 -7,83 -7,54 1,29 -17,49 -69,116 -43,85 -53,242 -16,-20 -3,26 -21,-35 -20,-72 40,-261 56,-320zm563 -1157c16,10 7,-1 22,17l50 104 -99 5c-19,-54 -2,-89 27,-126zm-1433 -1211l-77 36c25,115 -3,22 76,107 96,102 59,19 135,198 96,230 144,239 348,443 68,68 71,56 158,107 79,46 104,293 129,400 -17,21 -29,21 -38,47 -21,67 -4,294 -45,358 -30,45 -44,77 -73,109 -35,38 -54,42 -25,108 22,49 60,65 59,109 -1,54 -20,70 -11,151 16,156 58,204 -13,447 -113,388 73,496 -71,762 -37,69 -62,36 -72,104 26,39 47,56 119,47 205,-24 78,-212 120,-387 26,-104 54,-186 96,-278 90,114 139,-83 199,-122 56,-35 62,-31 87,-106 54,-162 118,-295 145,-466 11,-71 8,-104 41,-153 40,-59 70,-51 102,-105 -24,-86 -92,-142 -115,-208 21,-51 50,-73 68,-118 20,-50 18,-98 58,-124 105,-70 160,68 294,-21 18,-95 -21,-153 -51,-224 -55,-128 -31,-10 -92,-185 -51,-146 -172,-169 -323,-232 15,-31 38,-40 64,-98 49,-108 27,-325 -124,-347 -129,-19 -156,54 -174,164 -24,142 39,97 7,268 -133,19 -79,-27 -164,-70 -55,-27 -151,-33 -194,-57 -82,-45 -380,-384 -482,-489 -67,-67 -112,-227 -186,-314 -7,13 -7,-3 -6,26 0,17 3,22 9,38 11,34 15,37 22,75z"/>
   <path class="fil1" d="M965 2620c18,-20 10,5 17,-49 3,-23 4,-57 7,-83 -85,2 -20,-4 -42,19 33,25 14,-24 22,48 1,6 -4,53 -4,65z"/>
  </g>
 </g>
</svg>
