<?xml version="1.0" encoding="UTF-8"?>
<!DOCTYPE svg PUBLIC "-//W3C//DTD SVG 1.1//EN" "http://www.w3.org/Graphics/SVG/1.1/DTD/svg11.dtd">
<!-- Creator: CorelDRAW X7 -->
<svg xmlns="http://www.w3.org/2000/svg" xml:space="preserve" width="100%" height="100%" version="1.1" style="shape-rendering:geometricPrecision; text-rendering:geometricPrecision; image-rendering:optimizeQuality; fill-rule:evenodd; clip-rule:evenodd"
viewBox="0 0 5421 7335"
 xmlns:xlink="http://www.w3.org/1999/xlink">
 <defs>
  <style type="text/css">
   <![CDATA[

    .fil0 {fill:#562e1c}
   ]]>
  </style>
 </defs>
 <g id="Layer_x0020_1">
  <metadata id="CorelCorpID_0Corel-Layer"/>
  <path class="fil0" d="M3461 6284c32,32 48,61 55,106 -65,-5 -115,-27 -154,-64 20,-40 54,-43 99,-42zm479 -1743c5,-61 30,6 27,-104 -2,-86 -16,-37 -28,-92 26,-2 26,1 46,1 34,2 -6,3 31,1 162,-6 46,26 135,2 93,-25 96,17 104,102 9,99 17,26 24,93l-82 0c5,-64 29,-13 23,-106 -5,-95 -93,-85 -94,13 0,115 20,13 26,94l-86 -5c6,-72 17,30 27,-75 9,-98 -83,-136 -93,-28 -10,108 20,41 26,107l-86 -3zm-364 7c-14,-107 -76,-155 -84,-206l84 0c-8,54 -20,84 24,133 11,-17 31,-51 34,-73 8,-68 -4,13 -14,-58l88 -1c-9,52 -12,0 -67,135 -41,101 -37,66 -21,109l-87 19c21,-65 0,6 43,-58zm-171 -112c-1,-73 -20,-61 -23,-74 -1,-5 -5,-6 -7,-8 35,-27 27,-43 45,-75l23 42c13,24 -13,-2 24,33 -2,3 -6,6 -7,8l-13 17c-10,21 -5,6 -8,31 -15,126 23,64 28,131l-57 3c-7,-45 -3,-65 -5,-108zm-78 -38c-18,76 21,119 23,146l-56 -1c-5,-190 5,-142 -32,-189 42,-37 16,-29 47,-75 2,3 4,8 6,10 1,3 4,8 5,11 2,4 7,18 9,22 14,26 -10,2 26,32 -2,3 -6,6 -8,8l-12 17c-1,3 -4,6 -5,9 -1,3 -2,7 -3,10zm488 144c0,-15 4,-16 7,-24 54,-130 -4,-212 -6,-226 -1,-5 -4,-6 -5,-11l99 -2c-2,4 -5,8 -6,11l-24 52c-2,13 -2,65 -2,81 1,98 23,63 25,121l-88 -2zm480 -563c-158,280 -737,210 -752,-209 -8,-202 119,-336 266,-389 178,-65 405,12 462,125 -26,40 -106,110 -149,126 -49,-55 -119,-113 -236,-76 -304,98 -55,614 256,309 54,26 117,72 153,114zm-1389 -595c10,10 134,-28 180,-28 70,1 130,17 188,45 97,47 179,142 206,266 34,156 -23,272 -100,355 -136,147 -252,93 -331,134l36 193 102 -7c47,41 54,34 62,115l-152 0 4 43c101,36 56,-12 139,-21 -29,61 -49,70 -128,67l-14 64c0,132 -49,299 -98,421 -14,37 -44,86 -54,112 -27,76 13,52 -43,138 -92,139 -72,203 -164,337 -120,176 -399,435 -482,545 -56,74 2,33 -127,205 -89,-42 -138,-180 -419,-192 -144,-6 -308,20 -581,7 -33,-234 -198,-313 -411,-183 -96,59 -92,112 -234,126 -196,20 -345,82 -456,267 -45,76 -36,230 17,293 126,151 377,-114 503,-102 1,4 15,18 -3,48 -1,1 -27,25 -29,26 -25,17 -57,28 -86,36 15,12 -29,40 55,6 40,-16 84,-71 114,-96 135,82 175,-21 298,-35 130,-16 581,198 857,268 531,134 637,225 989,-117 183,-177 88,-13 273,50 29,-25 106,-139 235,-100 160,49 328,145 439,259 247,252 235,152 420,289 56,41 139,114 226,117 92,4 187,-62 219,-123 47,-89 37,-210 29,-317 -5,-69 7,-84 4,-153 -15,-342 -38,-201 -83,-448 -19,-108 -54,-192 -61,-287 -14,-174 -47,-104 37,-257 73,-132 -8,-220 -4,-312 5,-120 100,-144 100,-251 0,-94 -140,-433 -113,-580 -9,-14 -4,5 -15,-33 -7,-24 -1,1 -2,-30 -89,7 -157,-10 -153,-106 5,-113 78,-81 155,-108l16 -199 -88 1 -1 -713c0,-124 -96,-238 -74,-364 12,-72 266,-399 354,-548 28,-47 55,-89 81,-141 107,-217 142,-207 176,-282 30,-69 51,-84 82,-140 96,-169 232,-558 284,-606 58,-53 65,-56 76,-150 16,-135 78,-23 63,-162l-89 31c-18,-104 -23,-141 -10,-250 12,-100 -9,-57 -25,-102 -17,-48 29,-27 -14,-88 -172,56 -25,351 -256,703l-214 272c-231,241 -151,178 -289,433 -214,394 -248,348 -447,511 -79,65 -361,254 -431,280 27,-110 247,-65 130,-233 -37,-54 -11,-50 -57,-125 -60,-98 5,-96 -13,-140 -58,-62 -112,-55 -168,-95l-114 -147c56,-23 2,24 53,-15 -366,-278 -506,-128 -741,52 -76,58 -123,86 -142,216 -19,125 -2,205 48,304 35,70 107,170 156,205 166,121 99,80 198,163 43,36 74,23 120,61 204,168 -139,237 -208,322zm-1752 670c70,78 381,292 470,345 77,46 183,96 265,137 107,54 210,-20 308,-54 5,-36 10,-79 8,-116 -8,-105 -3,-10 -31,-81l51 -7 19 82c21,-14 38,-24 78,-21 49,3 52,19 69,44 79,-38 165,-86 246,-132 85,-48 177,-86 252,-132 -16,-34 -84,-73 -121,-113 -32,-35 -61,-84 -78,-145 -47,-161 11,-240 58,-355 -64,49 -90,100 -156,158 -41,35 -130,145 -169,163 -5,8 -13,18 -22,29 -38,117 104,105 196,107l29 168c-355,71 -385,-126 -435,-133l-17 -1 -170 100 -126 -52c-75,84 -211,119 -356,93 -162,-28 -217,-98 -303,-140 33,-100 120,-112 117,-169 -62,-50 -113,-23 -136,-117 -26,-105 25,-160 -40,-235l-6 577zm529 -2076c-4,-65 -47,-54 42,-27 -4,-5 -9,-9 -13,-13l-25 -32c-15,-33 2,-5 -3,-44l32 42c5,5 15,17 17,14 1,-2 6,3 9,5l-21 33c-1,4 -8,32 -10,36l34 -27c36,-23 -27,-17 17,0l-23 44c-38,-26 21,20 -16,-10l-45 -48 -15 51c-2,-3 -4,-7 -7,-10 -1,-3 -4,-6 -6,-9 -2,-3 -12,-7 -13,-13 -1,-4 -5,-4 -8,-5 16,-23 10,-4 8,-47l46 60zm-473 238l13 -18c1,-2 5,-6 7,-8 1,-2 5,-5 7,-6l49 -42 -2 66c-4,-2 -24,-10 -27,-10 -22,-2 -15,-2 -31,3 4,2 12,-1 14,6 5,26 35,-9 13,63 4,-4 9,-17 12,-13 26,31 -18,-38 71,-15l-23 -65c2,2 5,7 7,10l35 34c-3,4 -15,14 -18,16 -30,21 -40,18 -62,56l42 19 9 -35c4,1 8,3 13,5 17,6 36,12 53,16 -4,-4 -10,-17 -13,-13 -2,3 -8,-9 -11,-13l-2 -22c62,26 26,32 60,66 43,43 -6,-43 37,5l2 50c97,41 214,22 305,-14 63,-25 134,-71 170,-122 18,-27 13,-15 26,-55l-32 -3c-13,-29 -15,-17 -1,-60l-56 46 29 -63c31,29 5,22 61,12 -32,-6 -14,2 -39,-27 52,-31 -21,-37 58,-42 -45,-21 -16,-20 -70,-18l64 -49c1,-5 6,-5 9,-8l28 -16c-1,-71 -20,-141 -47,-188 -13,-21 -39,-52 -57,-71 -41,-44 -14,-26 -74,-49l16 36c-48,-11 -42,-2 -50,2l-19 23c1,-5 4,-15 5,-20l0 -64c-17,47 2,17 -24,42l-42 -64c-109,-63 -329,-4 -457,144 -119,138 -179,335 -58,473zm1814 1338c279,-76 347,339 116,396 -289,71 -345,-334 -116,-396zm-118 -170c-49,21 -47,21 -85,51l-53 45c-18,19 -6,3 -20,26 -47,115 -105,194 -58,355 17,61 46,110 78,145 37,40 105,79 121,113l108 -65c29,39 3,-5 24,45l28 57c79,-41 195,13 331,-134 77,-83 134,-199 100,-355 -27,-124 -109,-219 -206,-266 -58,-28 -118,-44 -188,-45 -46,0 -170,38 -180,28zm1389 595c-36,-42 -99,-88 -153,-114 -311,305 -560,-211 -256,-309 117,-37 187,21 236,76 43,-16 123,-86 149,-126 -57,-113 -284,-190 -462,-125 -147,53 -274,187 -266,389 15,419 594,489 752,209zm-1271 -425c-229,62 -173,467 116,396 231,-57 163,-472 -116,-396zm-2076 -161l3 521 -34 7c4,2 9,0 11,4l113 57c46,28 68,47 113,72l6 -577 -43 -52 16 -53 -134 -5c-3,1 -7,1 -9,5 -9,29 11,-5 -17,9 -7,3 -24,12 -25,12zm1018 -1213c-13,40 -8,28 -26,55 -36,51 -107,97 -170,122 -91,36 -208,55 -305,14l-148 -59 -42 -19c-12,-13 -21,-22 -35,-39l-30 -38c-121,-138 -61,-335 58,-473 128,-148 348,-207 457,-144 47,10 82,11 114,45 60,23 33,5 74,49 18,19 44,50 57,71 27,47 46,117 47,188 -3,117 -18,134 -51,228zm-805 927l29 -7c88,-222 169,-461 258,-678 212,-8 476,33 571,-316 173,-634 -661,-754 -867,-256 -51,125 -52,244 9,359 29,55 59,88 103,120 52,37 100,48 143,80 -22,158 -250,596 -246,698zm717 938c-100,-32 -186,-56 -272,-101 -84,-46 -180,-95 -270,-115 3,57 -84,69 -117,169 86,42 141,112 303,140 145,26 281,-9 356,-93zm2933 -3714c27,-34 39,-36 77,-54 -31,48 -15,29 -77,54zm-73 -18c0,-32 5,-39 32,-41l23 33c-16,61 -54,9 -55,8zm348 64c28,-42 57,-37 37,-115l-203 -262c-83,46 -68,126 -125,187l-155 165c-17,42 9,79 45,87 47,11 88,-25 129,-38 135,-45 141,-17 272,-24zm-4169 3544l34 -7 -3 -521c-49,18 -61,19 -116,109 -35,59 -42,98 -62,160 -47,147 77,254 147,259zm1303 50c-49,25 -11,1 -29,27 50,7 80,204 435,133l-29 -168c-92,-2 -234,10 -196,-107l-19 4c-37,42 -102,76 -162,111zm2246 160c2,-207 -10,-425 -57,-627 -10,-42 -12,-53 -32,-85l1 713 88 -1zm-526 410l86 3c-6,-66 -36,1 -26,-107 10,-108 102,-70 93,28 -10,105 -21,3 -27,75l86 5c-6,-81 -26,21 -26,-94 1,-98 89,-108 94,-13 6,93 -18,42 -23,106l82 0c-7,-67 -15,6 -24,-93 -8,-85 -11,-127 -104,-102 -89,24 27,-8 -135,-2 -37,2 3,1 -31,-1 -20,0 -20,-3 -46,-1 12,55 26,6 28,92 3,110 -22,43 -27,104zm-364 7c-43,64 -22,-7 -43,58l87 -19c-16,-43 -20,-8 21,-109 55,-135 58,-83 67,-135l-88 1c10,71 22,-10 14,58 -3,22 -23,56 -34,73 -44,-49 -32,-79 -24,-133l-84 0c8,51 70,99 84,206zm768 -49c-17,-63 -6,-139 77,-122l-2 138 -75 -16zm104 45l-6 -18 8 -196c-77,27 -150,-5 -155,108 -4,96 64,113 153,106zm-633 -2l88 2c-2,-58 -24,-23 -25,-121 0,-16 0,-68 2,-81l24 -52c1,-3 4,-7 6,-11l-99 2c1,5 4,6 5,11 2,14 60,96 6,226 -3,8 -7,9 -7,24zm-1618 -60c42,-19 -1,6 32,-14 18,-12 13,-9 24,-19 -29,-23 3,-59 26,-70 12,-6 26,-10 40,-6 66,17 22,9 32,39 17,-11 21,-12 40,-29 -17,-25 -20,-41 -69,-44 -40,-3 -57,7 -78,21l-19 -82 -51 7c28,71 23,-24 31,81 2,37 -3,80 -8,116zm-231 -2302c33,-94 48,-111 51,-228l-28 16c-3,3 -8,3 -9,8l-64 49c54,-2 25,-3 70,18 -79,5 -6,11 -58,42 25,29 7,21 39,27 -56,10 -30,17 -61,-12l-29 63 56 -46c-14,43 -12,31 1,60l32 3zm-924 1109c60,-8 79,-19 116,-41l32 -148 -14 3c-5,5 -12,-1 -15,4l-54 73c-25,32 -46,66 -65,109zm0 0l-43 78 134 5 25 -124c-37,22 -56,33 -116,41zm2053 1140c17,-92 90,-69 112,-6l-112 6zm-10 -80c0,2 1,45 2,46 8,59 1,15 8,34l2 28 152 0c-8,-81 -15,-74 -62,-115l-102 7zm290 5c2,2 6,3 7,8 3,13 22,1 23,74 2,43 -2,63 5,108l57 -3c-5,-67 -43,-5 -28,-131 3,-25 -2,-10 8,-31l13 -17c1,-2 5,-5 7,-8 -37,-35 -11,-9 -24,-33l-23 -42c-18,32 -10,48 -45,75zm-113 0c37,47 27,-1 32,189l56 1c-2,-27 -41,-70 -23,-146 1,-3 2,-7 3,-10 1,-3 4,-6 5,-9l12 -17c2,-2 6,-5 8,-8 -36,-30 -12,-6 -26,-32 -2,-4 -7,-18 -9,-22 -1,-3 -4,-8 -5,-11 -2,-2 -4,-7 -6,-10 -31,46 -5,38 -47,75zm100 1972c39,37 89,59 154,64 -7,-45 -23,-74 -55,-106 -45,-1 -79,2 -99,42zm982 -1827l75 16 2 -138c-83,-17 -94,59 -77,122zm-3027 -2187l148 59 -2 -50c-43,-48 6,38 -37,-5 -34,-34 2,-40 -60,-66l2 22c3,4 9,16 11,13 3,-4 9,9 13,13 -17,-4 -36,-10 -53,-16 -5,-2 -9,-4 -13,-5l-9 35zm-107 -96l30 38c14,17 23,26 35,39 22,-38 32,-35 62,-56 3,-2 15,-12 18,-16l-35 -34c-2,-3 -5,-8 -7,-10l23 65c-89,-23 -45,46 -71,15 -3,-4 -8,9 -12,13 22,-72 -8,-37 -13,-63 -2,-7 -10,-4 -14,-6 16,-5 9,-5 31,-3 3,0 23,8 27,10l2 -66 -49 42c-2,1 -6,4 -7,6 -2,2 -6,6 -7,8l-13 18zm515 -265c-89,-27 -46,-38 -42,27l-46 -60c2,43 8,24 -8,47 3,1 7,1 8,5 1,6 11,10 13,13 2,3 5,6 6,9 3,3 5,7 7,10l15 -51 45 48c37,30 -22,-16 16,10l23 -44c-44,-17 19,-23 -17,0l-34 27c2,-4 9,-32 10,-36l21 -33c-3,-2 -8,-7 -9,-5 -2,3 -12,-9 -17,-14l-32 -42c5,39 -12,11 3,44l25 32c4,4 9,8 13,13zm528 2498l98 -37c-10,-30 34,-22 -32,-39 -14,-4 -28,0 -40,6 -23,11 -55,47 -26,70zm848 51l-3 110 14 -64c79,3 99,-6 128,-67 -83,9 -38,57 -139,21zm-1262 -2856c-32,-34 -67,-35 -114,-45l42 64c26,-25 7,5 24,-42l0 64c-1,5 -4,15 -5,20l19 -23c8,-4 2,-13 50,-2l-16 -36zm1256 2785l112 -6c-22,-63 -95,-86 -112,6zm1643 -4116c1,1 39,53 55,-8l-23 -33c-27,2 -32,9 -32,41zm73 18c62,-25 46,-6 77,-54 -38,18 -50,20 -77,54z"/>
 </g>
</svg>
