<?xml version="1.0" encoding="UTF-8"?>
<!DOCTYPE svg PUBLIC "-//W3C//DTD SVG 1.1//EN" "http://www.w3.org/Graphics/SVG/1.1/DTD/svg11.dtd">
<!-- Creator: CorelDRAW X7 -->
<svg xmlns="http://www.w3.org/2000/svg" xml:space="preserve" width="100%" height="100%" version="1.1" style="shape-rendering:geometricPrecision; text-rendering:geometricPrecision; image-rendering:optimizeQuality; fill-rule:evenodd; clip-rule:evenodd"
viewBox="0 0 5385 10817"
 xmlns:xlink="http://www.w3.org/1999/xlink">
 <defs>
  <style type="text/css">
   <![CDATA[
    .fil0 {fill:#562e1c}
   ]]>
  </style>
 </defs>
 <g id="Layer_x0020_1">
  <metadata id="CorelCorpID_0Corel-Layer"/>
  <path class="fil0" d="M3746 2689c-38,55 -121,84 -187,37l-47 -44c-46,41 -89,79 -179,52 -1,12 -2,57 -5,64 -13,40 11,16 -25,33 -50,2 -27,-58 -41,-101 -104,32 -145,30 -198,-55 -27,34 -51,71 -123,74 -132,5 -171,-157 -82,-228 44,-36 98,-19 148,-17 -10,-167 3,-128 46,-131 26,39 11,120 19,174 68,-79 123,-65 198,-18l19 12c100,-70 145,-59 223,17l19 -13c2,-2 6,-5 9,-7l32 -27c23,-15 30,-19 65,-19 63,0 73,26 114,58 24,-47 29,-65 102,-51 93,17 -8,3 105,-2l0 245c-110,3 -35,-14 -66,-22 -17,-4 16,-10 -14,3 -5,3 -16,12 -24,16 -63,24 -96,11 -108,-50zm352 -149c-24,36 -110,42 -11,155 13,15 14,-7 18,35 -39,30 -54,16 -99,4 -27,-59 -13,-93 -27,-166 -9,-47 -14,-107 46,-129 63,29 -15,-11 32,37 3,2 6,5 8,7 2,2 6,5 8,7 29,26 55,4 25,50zm-130 -128c2,40 3,82 -50,64 -61,-20 -10,-70 -9,-77l59 13zm-441 5901l0 -37 -15 -52c-49,51 -80,78 -178,52 -6,55 15,107 -41,95 -40,-9 -23,-54 -25,-101 -146,47 -129,18 -214,-52 -52,102 -208,102 -237,-19 -48,-193 186,-154 188,-154 -1,-168 -6,-126 48,-131 25,38 9,113 20,174 87,-109 174,-32 216,-7 92,-61 162,-74 221,27l50 -40c335,-288 171,-246 249,-568 37,-147 27,-216 -43,-330 -99,-162 -91,-683 -196,-1026 -112,-368 -252,-450 -272,-532l-27 -20c-20,-22 -53,-66 -74,-83 -78,5 -105,-29 -141,-69 -52,96 -197,106 -236,-7 -38,-112 75,-214 158,-162 41,-14 22,11 25,-22l-152 -344c-132,-324 336,-210 347,-1074 89,-58 184,-112 271,-171l251 -190c81,48 142,104 242,157 277,145 678,179 994,183 124,1 237,-32 271,-129 156,-437 187,-460 136,-972 -67,37 -61,53 -151,25l-7 -45c-41,46 -84,84 -173,46 -46,-20 -20,-23 -51,-6 -34,19 57,15 -37,14 -46,0 -24,-1 -46,-17 -46,52 -93,99 -164,127 -110,-128 -136,-128 -351,-142 -64,13 -96,41 -181,26 0,87 24,91 -52,91 -21,-46 -16,-158 -9,-221 8,-77 50,-104 126,-117 -42,-43 -59,-81 -111,-126 -229,-197 -261,-139 -485,-194 66,-136 146,-86 78,-175l68 -16 -6 -83 111 -5c18,-113 -55,-209 29,-291 82,-80 61,-102 110,-223 63,-157 -70,-394 -141,-499 -230,-339 -609,-411 -882,-163 -121,109 -162,305 -263,417 -59,65 -111,113 -174,174 -59,58 -100,117 -228,108 -89,-7 -258,27 -315,-7 -37,-23 -50,-45 -88,-80 -220,-207 -598,-172 -639,-194 -73,-38 -17,-222 -409,-248 51,-119 46,-169 132,-238 86,-69 323,-292 420,-303 117,-14 -3,56 274,73 52,79 -20,89 140,116 117,21 222,21 254,-90 9,-33 7,-34 6,-73 -9,-363 -38,-258 -226,-314 -201,-59 -439,-91 -620,5 -140,75 -366,121 -531,192 -214,91 -277,192 -413,310 -45,39 -359,228 -358,362 0,35 197,337 199,340 34,39 67,55 97,83 72,66 59,162 111,250 93,154 212,275 379,344 84,34 192,36 267,80 1,290 -60,343 92,644 37,72 33,120 48,202 14,78 44,114 65,186 38,134 -33,218 77,673 34,142 79,246 121,378 142,438 -43,219 -229,660 -49,116 -90,261 -105,396 -42,369 106,940 356,1158 386,335 182,105 511,489 72,85 175,171 266,235 271,190 315,385 549,450 -31,35 -81,50 -130,80 -46,29 -70,50 -112,82 -318,236 -203,180 -372,420 -36,50 -49,68 -89,105l-465 522c-131,141 -244,281 -408,383 -266,166 -533,-15 -525,270 8,252 131,195 136,653 1,128 35,248 37,375 5,202 -9,220 102,283 111,63 52,128 256,145 111,10 250,22 229,-113 -55,-64 -121,-32 -194,-60 -65,-24 -16,-11 -63,-61 -30,-32 -26,-12 -56,-55 -23,-145 158,-465 214,-592 63,-142 61,-155 148,-255 106,-120 94,-129 166,-223 71,-92 119,-119 203,-200 223,-216 452,-304 726,-446 19,135 -37,314 -64,442 -30,142 -43,289 -67,434 -108,639 -213,670 -232,771 -37,202 168,176 323,170 161,-6 320,-43 458,-47 161,-4 301,31 479,10 123,-14 82,-27 218,-12 80,9 159,-8 214,-33l-9 -103c-60,-32 -270,-45 -375,-81 -482,-164 -670,-218 -541,-753 98,-409 232,-611 405,-969 57,-117 74,-195 111,-322zm1448 -5845c19,111 26,43 95,28 70,-15 106,25 136,54 66,-79 33,-29 105,-67 1,-13 -24,-315 -27,-330 -12,-61 -109,-179 -143,-219 -43,-49 -316,-305 -418,-298 -55,3 -223,80 -254,108 -52,48 -68,242 -38,315 21,54 57,45 122,57 121,24 77,132 336,86 158,-28 73,136 86,266zm-1229 221l26 -66c30,20 37,13 60,52 -41,19 -17,8 -75,-8l-11 22zm-418 -56c17,-155 209,-49 87,51 -52,-2 -63,-12 -87,-51zm249 -63c53,-40 139,-16 113,90 -51,36 -70,37 -123,-11l10 -79zm-306 -1c-5,101 -4,112 -115,118l115 -118zm-301 115c-138,11 -137,-150 13,-118 31,56 41,64 -13,118zm925 -55c-31,-26 -53,-22 -81,-65 54,-19 15,24 84,-3l-3 68zm-772 6c-25,-57 9,-74 70,-84 -15,36 -42,64 -70,84zm623 54c12,61 45,74 108,50 8,-4 19,-13 24,-16 30,-13 -3,-7 14,-3 31,8 -44,25 66,22l0 -245c-113,5 -12,19 -105,2 -73,-14 -78,4 -102,51 -41,-32 -51,-58 -114,-58 -35,0 -42,4 -65,19l-32 27c-3,2 -7,5 -9,7l-19 13c-78,-76 -123,-87 -223,-17l-19 -12c-75,-47 -130,-61 -198,18 -8,-54 7,-135 -19,-174 -43,3 -56,-36 -46,131 -50,-2 -104,-19 -148,17 -89,71 -50,233 82,228 72,-3 96,-40 123,-74 53,85 94,87 198,55 14,43 -9,103 41,101 36,-17 12,7 25,-33 3,-7 4,-52 5,-64 90,27 133,-11 179,-52l47 44c66,47 149,18 187,-37zm-419 5472c36,-107 130,-66 130,0 0,65 -93,108 -130,0zm-168 69c33,-42 63,-75 110,-106 -1,96 -11,98 -110,106zm-160 -97c17,28 5,67 -15,83 -68,52 -156,-43 -87,-99 45,-37 87,-9 102,16zm124 43c-22,-53 8,-76 69,-80 -14,34 -42,63 -69,80zm404 100l12 -21 21 -187 -50 40c-59,-101 -129,-88 -221,-27 -42,-25 -129,-102 -216,7 -11,-61 5,-136 -20,-174 -54,5 -49,-37 -48,131 -2,0 -236,-39 -188,154 29,121 185,121 237,19 85,70 68,99 214,52 2,47 -15,92 25,101 56,12 35,-40 41,-95 98,26 129,-1 178,-52l15 52zm1678 -5587l18 -71c33,23 45,19 72,57 -54,22 -34,-28 -90,14zm-177 -40c-2,-58 2,-99 65,-95 60,4 67,50 56,110 -60,33 -68,33 -121,-15zm-78 -98c31,25 8,-12 17,28l7 110c-52,-12 -27,7 -42,-32 -8,11 -9,10 -19,30 -3,6 -13,35 -15,39 22,16 0,17 46,17 94,1 3,5 37,-14 31,-17 5,-14 51,6 89,38 132,0 173,-46l7 45c90,28 84,12 151,-25 -6,-54 -18,-188 -52,-226 -72,38 -39,-12 -105,67 -30,-29 -66,-69 -136,-54 -69,15 -76,83 -95,-28 -17,19 -6,-3 -16,29 -5,15 -7,38 -9,54zm-1951 2804c17,30 5,68 -15,83 -68,51 -156,-42 -87,-99 45,-37 86,-9 102,16zm198 154l-30 -52 -16 -32c-38,-21 -94,-145 -148,-176 -3,33 16,8 -25,22 -83,-52 -196,50 -158,162 39,113 184,103 236,7 36,40 63,74 141,69zm1186 -2798c-32,-41 -25,-70 -59,-102l-3 56c-175,81 -150,-183 -6,-88 -18,-52 -20,-50 -48,-87 -76,13 -118,40 -126,117 -7,63 -12,175 9,221 76,0 52,-4 52,-91 85,15 117,-13 181,-26zm-377 23c45,12 60,26 99,-4 -4,-42 -5,-20 -18,-35 -99,-113 -13,-119 11,-155 30,-46 4,-24 -25,-50 -2,-2 -6,-5 -8,-7 -2,-2 -5,-5 -8,-7 -47,-48 31,-8 -32,-37 -60,22 -55,82 -46,129 14,73 0,107 27,166zm-1109 2605c-69,57 19,150 87,99 20,-15 32,-53 15,-83 -16,-25 -57,-53 -102,-16zm0 2778c-69,56 19,151 87,99 20,-16 32,-55 15,-83 -15,-25 -57,-53 -102,-16zm2131 -5468c53,48 61,48 121,15 11,-60 4,-106 -56,-110 -63,-4 -67,37 -65,95zm-1451 -79l-10 79c53,48 72,47 123,11 26,-106 -60,-130 -113,-90zm-607 114c54,-54 44,-62 13,-118 -150,-32 -151,129 -13,118zm1354 -75l-9 -32c-144,-95 -169,169 6,88l3 -56zm-997 5552c37,108 130,65 130,0 0,-66 -94,-107 -130,0zm1 -5528c24,39 35,49 87,51 122,-100 -70,-206 -87,-51zm87 2805l22 -43c11,-64 -77,-90 -89,-24 -9,53 25,58 67,67zm-259 -2751c111,-6 110,-17 115,-118l-115 118zm3 5543c99,-8 109,-10 110,-106 -47,31 -77,64 -110,106zm750 -5831c-1,7 -52,57 9,77 53,18 52,-24 50,-64l-59 -13zm1023 258c15,39 -10,20 42,32l-7 -110c-9,-40 14,-3 -17,-28l-18 106zm-1809 -22c28,-20 55,-48 70,-84 -61,10 -95,27 -70,84zm0 5541c27,-17 55,-46 69,-80 -61,4 -91,27 -69,80zm691 -5612c28,43 50,39 81,65l3 -68c-69,27 -30,-16 -84,3zm1391 125c56,-42 36,8 90,-14 -27,-38 -39,-34 -72,-57l-18 71zm-1459 0l11 -22c58,16 34,27 75,8 -23,-39 -30,-32 -60,-52l-26 66z"/>
 </g>
</svg>
