<?xml version="1.0" encoding="UTF-8"?>
<!DOCTYPE svg PUBLIC "-//W3C//DTD SVG 1.1//EN" "http://www.w3.org/Graphics/SVG/1.1/DTD/svg11.dtd">
<!-- Creator: CorelDRAW X7 -->
<svg xmlns="http://www.w3.org/2000/svg" xml:space="preserve" width="100%" height="100%" version="1.1" style="shape-rendering:geometricPrecision; text-rendering:geometricPrecision; image-rendering:optimizeQuality; fill-rule:evenodd; clip-rule:evenodd"
viewBox="0 0 2379 5551"
 xmlns:xlink="http://www.w3.org/1999/xlink">
 <defs>
  <style type="text/css">
   <![CDATA[
   
    .fil0 {fill:#562e1c}
   ]]>
  </style>
 </defs>
 <g id="Layer_x0020_1">
  <metadata id="CorelCorpID_0Corel-Layer"/>
  <path class="fil0" d="M1699 656c20,188 -93,380 -107,580 -11,151 -59,108 -111,255 -30,86 11,59 -63,118 -38,30 -60,66 -97,84 -32,-86 12,-28 52,-97 17,-71 -10,-77 -20,-140 -9,-59 1,-107 -30,-153 -43,-62 -169,-109 -251,-39 -63,54 -75,163 -88,258 -30,212 46,57 45,296 -121,39 -275,57 -360,139 -67,65 0,24 -125,126 -34,29 -104,102 -119,131 -68,-37 -154,-185 -147,-269 7,-78 55,-74 15,-167 -17,-41 -17,-18 -22,-72l-19 -103c-62,42 -21,26 -42,82 -39,-82 -1,-94 -72,-195 -50,9 -60,9 -82,35 -54,63 -6,125 1,194 -35,-45 -6,-52 -57,-82 5,153 78,224 146,428 140,422 108,533 422,319 80,-54 115,-119 184,-177 53,80 30,247 61,343 57,178 167,447 179,629 11,164 -41,253 136,262 -16,176 116,475 190,672 54,144 46,138 131,161 -1,163 23,129 111,209l386 444c29,67 -10,19 57,86 -12,60 -44,80 7,130 38,38 70,52 92,116 28,84 34,262 123,285 158,42 177,-115 133,-234 -110,-304 177,-412 -223,-462 -157,-19 -163,-398 -408,-548 26,-86 39,8 24,-120 -6,-56 -11,-108 -14,-165 149,79 123,150 135,184 31,89 32,-5 25,124 -3,51 24,76 49,107 99,120 64,74 97,236 22,108 119,131 227,111 33,-40 60,-111 40,-193 -15,-61 -71,-110 -83,-158 -27,-100 11,-107 -55,-180 -19,-22 -149,-84 -209,-263 -19,-57 -60,-118 -70,-167 -35,-176 -22,-157 -172,-289 -2,-2 -6,-5 -8,-7 -2,-1 -6,-5 -8,-7 38,-83 291,-194 195,-537 -25,-88 -36,-56 -68,-112 -16,-29 -33,-112 -44,-151 -28,-99 -58,-202 -87,-301 -19,-68 -26,-76 -54,-128 -40,-73 2,-80 16,-139 17,-71 -1,-46 -12,-72 -99,-226 41,-278 81,-525 12,-74 -13,-116 20,-174 25,-44 52,-63 67,-129 55,-257 -52,-403 83,-679 112,-231 36,-451 -144,-532 -484,-216 -705,672 -59,622z"/>
 </g>
</svg>
