<?xml version="1.0" encoding="UTF-8"?>
<!DOCTYPE svg PUBLIC "-//W3C//DTD SVG 1.1//EN" "http://www.w3.org/Graphics/SVG/1.1/DTD/svg11.dtd">
<!-- Creator: CorelDRAW X7 -->
<svg xmlns="http://www.w3.org/2000/svg" xml:space="preserve" width="100%" height="100%" version="1.1" style="shape-rendering:geometricPrecision; text-rendering:geometricPrecision; image-rendering:optimizeQuality; fill-rule:evenodd; clip-rule:evenodd"
viewBox="0 0 61496 68620"
 xmlns:xlink="http://www.w3.org/1999/xlink">
 <defs>
  <style type="text/css">
   <![CDATA[
    .fil1 {fill:#010101}
    .fil0 {fill:white}
   ]]>
  </style>
 </defs>
 <g id="Layer_x0020_1">
  <metadata id="CorelCorpID_0Corel-Layer"/>
  <g id="_908455427728">
   <path class="fil0" d="M33169 51883l6926 -29 2 6918 -6908 4 -20 -6893zm-11567 9l6944 -40 -6 6932 -6919 -8 -19 -6884zm-11560 8l6932 -48 5 6931 -6936 -5 -1 -6878zm34672 -11428l6906 -6 48 6959 -6903 -7 -51 -6946zm-4632 181l-7 6582c-188,362 -589,198 -1594,198l-5284 -14 -39 -6952 6566 -7c353,89 140,-78 358,193zm-18478 -170l6932 -16 7 6913 -6916 41 -23 -6938zm-4730 118c234,69 39,-101 102,195l-2 6603 -6922 32 -22 -6955 6553 -24c352,68 163,-50 291,149zm27857 -11150l6938 -17 -3 6943 -6952 -10 17 -6916zm-4635 5973l107 1030 -980 -88 -6054 -15 31 -6906 6896 -12 0 5991zm-18491 -5957l6903 -25 37 6936 -6962 -4 22 -6907zm-16157 1895l31 5543c-181,4643 -15,9629 -15,14300 0,2386 1,4761 0,7147 0,1820 -82,3839 2646,4616 1342,382 11910,192 14147,192l28703 0c6130,1 5171,-3107 5107,-9346l-2 -21442c0,-1729 -209,-5830 57,-7276l-50658 -21 -16 6287z"/>
   <path class="fil1" d="M10288 65613c192,332 268,574 813,525 128,-478 -6,-125 4,-555l17 -167c1,-18 7,-57 17,-83 1055,376 124,1834 -805,972 -190,-176 -289,-359 -481,-542 -256,-244 -347,-169 -363,-552 621,-69 136,358 706,-86 297,-231 155,-379 485,-317 193,293 -1,299 -393,805zm-4840 -34251l16 -6287 50658 21c-266,1446 -57,5547 -57,7276l2 21442c64,6239 1023,9347 -5107,9346l-28703 0c-2237,0 -12805,190 -14147,-192 -2728,-777 -2646,-2796 -2646,-4616 1,-2386 0,-4761 0,-7147 0,-4671 -166,-9657 15,-14300 -1436,-1134 -1496,-3997 -317,-5294 243,-266 48,-80 286,-249zm1411 37210l916 -998c404,-68 658,46 909,266 527,461 457,426 548,744l29019 10c-11,-2662 1656,-4312 4199,-4342 2587,-30 4192,1869 4202,4340 2646,-1 5293,0 7939,0 3069,0 4532,-89 5956,-2013 1257,-1700 894,-4646 894,-7092 0,-2647 0,-5294 0,-7942 0,-2610 142,-29953 -33,-31748l-61315 56c-150,4532 -9,9319 -9,13880l0 27910c0,2389 -55,4120 1350,5505 1313,1294 2977,1607 5425,1424zm31392 22l1264 -3c-343,-3995 5809,-4628 6336,0l801 1c-10,-2471 -1615,-4370 -4202,-4340 -2543,30 -4210,1680 -4199,4342zm1264 -3l884 -1c-225,-3265 4596,-3144 4742,15l710 -14c-527,-4628 -6679,-3995 -6336,0zm884 -1l941 2c-7,-812 488,-1388 1330,-1362 911,28 1313,571 1490,1369l981 6c-146,-3159 -4967,-3280 -4742,-15zm941 2l2820 7c-177,-798 -579,-1341 -1490,-1369 -842,-26 -1337,550 -1330,1362zm-34481 -20l2373 12c-91,-318 -21,-283 -548,-744 -251,-220 -505,-334 -909,-266l-916 998zm3429 -2959c392,-506 586,-512 393,-805 -330,-62 -188,86 -485,317 -570,444 -85,17 -706,86 16,383 107,308 363,552 192,183 291,366 481,542 929,862 1860,-596 805,-972 -10,26 -16,65 -17,83l-17 167c-10,430 124,77 -4,555 -545,49 -621,-193 -813,-525zm-4809 -28708l-31 -5543c-238,169 -43,-17 -286,249 -1179,1297 -1119,4160 317,5294z"/>
   <path class="fil1" d="M32981 9945c275,53 444,320 649,614 1438,2062 10,5301 -2865,5306 -3389,6 -4543,-4379 -2246,-5958 56,1053 -100,1805 372,2670 812,1487 2955,1444 3751,5 451,-816 332,-1589 339,-2637zm-15508 -37c-12,1010 -120,1908 372,2707 336,547 927,1089 1915,1062 2572,-68 2086,-3291 2195,-3825 2413,2031 900,5885 -2077,6010 -3945,165 -4389,-4938 -2405,-5954zm37702 32c1093,1016 1425,2494 830,3881 -1708,3975 -7762,1564 -6406,-2442 184,-545 579,-1346 1110,-1498l-7 822c-7,1936 981,3398 2811,2898 658,-180 1191,-730 1420,-1300 285,-707 131,-1535 242,-2361zm-48832 14c91,598 -293,3768 2300,3728 952,-14 1573,-588 1894,-1202 417,-799 272,-1704 296,-2662 2043,1087 1677,5960 -2076,6044 -3252,73 -4640,-3820 -2414,-5908zm37728 -40c413,198 873,952 1052,1637 1079,4133 -4965,6144 -6520,2093 -275,-716 -297,-1552 -46,-2296 314,-928 723,-1150 1019,-1506 102,698 -327,3756 2196,3838 2528,82 2268,-2825 2299,-3766zm16 -6738c-798,311 -1149,736 -2317,720 -1102,-16 -1407,-342 -2163,-652l12 3996 -6645 9c44,-1538 57,-3286 11,-4822 -95,-3191 -4365,-3301 -4443,104 -35,1551 -1,3149 0,4709l-6644 -3c18,-1571 47,-3258 3,-4821 -37,-1304 -914,-2441 -2254,-2409 -3265,77 -1779,4585 -2222,7241l-6552 -18c-484,-2588 1095,-7119 -2230,-7198 -1343,-31 -2232,1150 -2248,2499 -19,1556 -9,3140 -4,4705 -1534,21 -2412,-107 -3716,564 -947,487 -1663,1241 -2119,2192 -681,1420 -604,6076 -455,8040l61275 2c178,-772 66,-3316 66,-4269 0,-1446 114,-2518 -463,-3777 -954,-2077 -2752,-2835 -5770,-2737 -556,-1997 1150,-7282 -2321,-7243 -1435,16 -2184,1185 -2189,2637 -4,1074 -157,3748 56,4603l-6687 -5 19 -4067zm-4480 68c756,310 1061,636 2163,652 1168,16 1519,-409 2317,-720 -32,-477 59,-1209 -211,-1509 -256,1733 -3763,1442 -3985,-235 -353,373 -263,1210 -284,1812zm3128 -2994c-321,-256 -864,-318 -1305,-174 -171,514 -27,1194 483,1325 1102,284 114,-608 822,-1151zm-2338 351c448,1587 2192,2058 2955,554 17,-33 71,-138 86,-167l97 -164c-219,-321 -407,-429 -800,-574 -708,543 280,1435 -822,1151 -510,-131 -654,-811 -483,-1325 -577,112 -680,142 -1033,525zm-506 831c222,1677 3729,1968 3985,235 -20,-549 -147,-420 -341,-843l-97 164c-15,29 -69,134 -86,167 -763,1504 -2507,1033 -2955,-554 -267,243 -462,408 -506,831z"/>
   <polygon class="fil1" points="44765,47418 51668,47425 51620,40466 44714,40472 "/>
   <polygon class="fil1" points="21583,36374 28545,36378 28508,29442 21605,29467 "/>
   <polygon class="fil1" points="21627,47421 28543,47380 28536,40467 21604,40483 "/>
   <polygon class="fil1" points="21621,58776 28540,58784 28546,51852 21602,51892 "/>
   <polygon class="fil1" points="10043,58778 16979,58783 16974,51852 10042,51900 "/>
   <polygon class="fil1" points="33189,58776 40097,58772 40095,51854 33169,51883 "/>
   <path class="fil1" d="M45047 29974c540,70 1206,992 1323,1326 -469,-97 -1287,-772 -1323,-1326zm-333 6393l6952 10 3 -6943 -6938 17 -17 6916zm1656 -5067c-117,-334 -783,-1256 -1323,-1326 36,554 854,1229 1323,1326z"/>
   <path class="fil1" d="M39223 36366l54 -598 354 -297 465 -47 0 -5991 -6896 12 -31 6906 6054 15zm0 0l980 88 -107 -1030 -465 47 -354 297 -54 598z"/>
   <path class="fil1" d="M40075 47235l7 -6582 -2724 -3c-687,68 36,94 -693,283 -860,222 -687,-266 -1466,-288 -613,-17 -1281,8 -1901,8 41,812 290,577 872,1250 228,-264 461,-540 883,-577 -758,1438 -1829,-449 3323,4876 1133,1172 901,1033 1699,1033zm-5905 -4924c258,211 430,351 665,623 115,133 139,181 265,307l967 965c282,265 390,319 633,604 22,25 81,100 103,125l2350 2300 -5778 0c-201,-496 -78,-2167 -81,-2837 -8,-1499 37,-1405 876,-2087zm5905 4924c-798,0 -566,139 -1699,-1033 -5152,-5325 -4081,-3438 -3323,-4876 -422,37 -655,313 -883,577 -582,-673 -831,-438 -872,-1250 620,0 1288,-25 1901,-8 779,22 606,510 1466,288 729,-189 6,-215 693,-283l2724 3c-218,-271 -5,-104 -358,-193l-6566 7 39 6952 5284 14c1005,0 1406,164 1594,-198zm-5905 -4924c-839,682 -884,588 -876,2087 3,670 -120,2341 81,2837l5778 0 -2350 -2300c-22,-25 -81,-100 -103,-125 -243,-285 -351,-339 -633,-604l-967 -965c-126,-126 -150,-174 -265,-307 -235,-272 -407,-412 -665,-623z"/>
   <path class="fil0" d="M55175 9940c-111,826 43,1654 -242,2361 -229,570 -762,1120 -1420,1300 -1830,500 -2818,-962 -2811,-2898l7 -822c-531,152 -926,953 -1110,1498 -1356,4006 4698,6417 6406,2442 595,-1387 263,-2865 -830,-3881z"/>
   <path class="fil0" d="M32981 9945c-7,1048 112,1821 -339,2637 -796,1439 -2939,1482 -3751,-5 -472,-865 -316,-1617 -372,-2670 -2297,1579 -1143,5964 2246,5958 2875,-5 4303,-3244 2865,-5306 -205,-294 -374,-561 -649,-614z"/>
   <path class="fil0" d="M17473 9908c-1984,1016 -1540,6119 2405,5954 2977,-125 4490,-3979 2077,-6010 -109,534 377,3757 -2195,3825 -988,27 -1579,-515 -1915,-1062 -492,-799 -384,-1697 -372,-2707z"/>
   <path class="fil0" d="M44071 9914c-31,941 229,3848 -2299,3766 -2523,-82 -2094,-3140 -2196,-3838 -296,356 -705,578 -1019,1506 -251,744 -229,1580 46,2296 1555,4051 7599,2040 6520,-2093 -179,-685 -639,-1439 -1052,-1637z"/>
   <path class="fil0" d="M6343 9954c-2226,2088 -838,5981 2414,5908 3753,-84 4119,-4957 2076,-6044 -24,958 121,1863 -296,2662 -321,614 -942,1188 -1894,1202 -2593,40 -2209,-3130 -2300,-3728z"/>
   <polygon class="fil1" points="10013,47473 16929,47433 16922,40519 9990,40535 "/>
  </g>
 </g>
</svg>
