<?xml version="1.0" encoding="UTF-8"?>
<!DOCTYPE svg PUBLIC "-//W3C//DTD SVG 1.1//EN" "http://www.w3.org/Graphics/SVG/1.1/DTD/svg11.dtd">
<!-- Creator: CorelDRAW X7 -->
<svg xmlns="http://www.w3.org/2000/svg" xml:space="preserve" width="100%" height="100%" version="1.1" style="shape-rendering:geometricPrecision; text-rendering:geometricPrecision; image-rendering:optimizeQuality; fill-rule:evenodd; clip-rule:evenodd"
viewBox="0 0 5690 8455"
 xmlns:xlink="http://www.w3.org/1999/xlink">
 <defs>
  <style type="text/css">
   <![CDATA[
    
    .fil0 {fill:#562e1c}
   ]]>
  </style>
 </defs>
 <g id="Layer_x0020_1">
  <metadata id="CorelCorpID_0Corel-Layer"/>
  <path class="fil0" d="M2916 4615l-376 0c-307,-859 677,-802 376,0zm116 -522c8,-9 21,-36 25,-28l144 -213c97,135 6,91 179,220 7,5 23,13 34,21 -15,8 -58,31 -66,36 -95,64 -24,12 -88,66 -9,369 -39,201 147,419l-243 -7c-85,-393 71,-353 -132,-514zm-610 0c-180,93 -172,-97 -172,523l-125 1c0,-87 11,-248 4,-326 -18,-209 26,-99 -97,-198l146 -309 301 -18c-132,167 -154,60 -206,156 -60,110 54,80 149,171zm-626 144c-50,278 -28,139 -140,335 33,156 -25,5 39,117 9,16 52,67 65,85 59,79 77,104 130,224 -104,-77 -612,-509 -652,-500 113,593 233,894 187,1595l2740 1c331,-525 50,-1144 -127,-1603 -14,8 -33,5 -40,25 -4,13 -63,45 -72,51 -316,201 -512,-80 -447,-350 37,-153 76,-150 241,-185 -299,-419 -503,-565 -811,-899 903,-18 908,-340 1258,-6 281,269 643,317 911,106 286,-225 214,-156 213,-827 -1337,-864 -991,-1159 -1559,-1331 -275,-83 -524,-146 -715,-294 -26,-303 77,-433 13,-781 -339,286 -293,338 -415,666 -120,324 -265,65 -1088,731 61,148 268,389 381,540 101,136 319,396 373,552 -211,-146 -290,-230 -476,-398 -103,-93 -375,-335 -499,-392 -120,323 -3,382 170,618 160,221 258,341 387,532l-764 -611c-64,362 120,484 293,721 158,217 307,383 452,633 -145,-69 -283,-224 -410,-322 -184,-143 -226,-248 -427,-353 3,419 812,1130 789,1320zm-1265 3691c598,-70 996,-477 1116,-1023 -310,8 -296,61 -440,269 -322,465 -506,699 -1207,690l0 591 5690 -2 -19 -586c-977,-19 -939,-438 -1404,-955 -405,-19 -814,-3 -1220,-7 -582,-4 -529,57 -835,360 -394,389 -790,785 -1681,663zm2315 -1190l2025 -10c234,-49 441,-470 -246,-467 -248,1 -3748,-37 -3892,35 -128,65 -166,248 -55,364 165,174 1807,78 2168,78zm-216 -2605l165 6c90,170 81,204 4,374 -260,54 -210,-214 -169,-380zm286 482c301,-802 -683,-859 -376,0l376 0zm-494 -522c-95,-91 -209,-61 -149,-171 52,-96 74,11 206,-156l-301 18 -146 309c123,99 79,-11 97,198 7,78 -4,239 -4,326l125 -1c0,-620 -8,-430 172,-523zm1616 398c-77,-141 37,9 -81,-135 -109,-134 -47,-53 -117,-109 21,143 5,193 -44,286 -233,-32 -212,-144 -152,-375l113 -39 -37 -87c-165,35 -204,32 -241,185 -65,270 131,551 447,350 9,-6 68,-38 72,-51 7,-20 26,-17 40,-25zm-658 -419c-173,-129 -82,-85 -179,-220l-144 213c-4,-8 -17,19 -25,28 203,161 47,121 132,514l243 7c-186,-218 -156,-50 -147,-419 64,-54 -7,-2 88,-66 8,-5 51,-28 66,-36 -11,-8 -27,-16 -34,-21zm-2284 -170l81 129c86,114 162,182 249,264 51,-116 42,-47 -8,-202l133 -56 -217 -217c-60,82 6,23 -118,72 -96,37 14,8 -120,10zm1534 231c-41,166 -91,434 169,380 77,-170 86,-204 -4,-374l-165 -6zm1210 114c-26,-128 91,-35 -83,-128l-113 39c-60,231 -81,343 152,375 49,-93 65,-143 44,-286zm-2313 192l129 133c112,-196 90,-57 140,-335l-219 -144 63 205 -113 141zm-101 -144l101 144 113 -141 -63 -205 -26 -56 -133 56c50,155 59,86 8,202zm-330 -393c134,-2 24,27 120,-10 124,-49 58,10 118,-72 -123,-84 -24,-25 -103,-89 -142,-116 -18,-45 -193,-112l58 283z"/>
 </g>
</svg>
