<?xml version="1.0" encoding="UTF-8"?>
<!DOCTYPE svg PUBLIC "-//W3C//DTD SVG 1.1//EN" "http://www.w3.org/Graphics/SVG/1.1/DTD/svg11.dtd">
<!-- Creator: CorelDRAW X7 -->
<svg xmlns="http://www.w3.org/2000/svg" xml:space="preserve" width="100%" height="100%" version="1.1" style="shape-rendering:geometricPrecision; text-rendering:geometricPrecision; image-rendering:optimizeQuality; fill-rule:evenodd; clip-rule:evenodd"
viewBox="0 0 6446 14455"
 xmlns:xlink="http://www.w3.org/1999/xlink">
 <defs>
  <style type="text/css">
   <![CDATA[
    
    .fil0 {fill:#562e1c}
   ]]>
  </style>
 </defs>
 <g id="Layer_x0020_1">
  <metadata id="CorelCorpID_0Corel-Layer"/>
  <path class="fil0" d="M5441 7388c0,-116 -39,-337 45,-406 116,36 5,115 203,239 -10,135 -64,270 -74,434 -10,199 11,196 -77,313 -46,63 11,19 -73,50 -5,32 -7,52 -19,80 -16,39 -18,38 -44,60l-40 -22c19,-66 15,-2 43,-66 19,-45 6,-35 -13,-74 -31,-67 2,-96 15,-173l34 -435zm-1800 -2788c-48,4 -163,-10 -198,-29 -36,-21 -31,-16 -36,-74 -4,-41 1,-68 13,-93 51,-10 136,1 167,40l-35 4c-2,0 -8,2 -10,2 -2,1 -9,7 -11,4 -1,-4 -7,1 -11,4 24,50 23,42 56,77l57 57c1,-2 5,5 8,8zm-94 -328l33 98 -87 -38 54 -60zm-167 -71l116 20c-6,51 -13,61 -52,93l-59 -20 -5 -93zm102 -371c71,16 68,3 72,72 -85,-9 -73,7 -72,-72zm12 -125c13,-5 7,-12 38,-3l75 48 -38 73 -82 -30 7 -88zm-3494 556l0 74c72,104 30,51 14,153 -31,193 236,229 361,275 7,222 -197,1015 -73,1086 79,45 207,21 227,-73 12,-54 15,-216 25,-291 25,-188 45,-375 65,-563 34,8 31,27 55,55 162,196 734,661 964,768 14,179 -21,251 150,299 271,78 567,-96 775,3 93,45 220,114 221,229 0,298 -11,582 -1,885 21,657 6,499 274,600 -30,96 -117,85 -143,321 -23,200 -59,171 -101,340 -49,195 -5,232 -5,411 0,87 -18,119 -25,199 -17,191 41,493 -3,650 -34,118 -59,236 -79,364 -25,155 17,217 30,373 4,61 -12,29 -5,91 3,34 20,56 26,81 10,48 -5,30 -5,88 0,105 44,195 35,295 -7,74 22,124 29,192 40,388 -22,888 4,1296 17,273 93,541 79,815 -8,138 -29,262 -56,394 -53,253 21,237 116,287 -41,80 -151,218 -121,359 37,169 243,94 359,112 46,7 27,24 100,26 34,1 76,-6 108,-14 262,-61 401,-55 367,-317 78,-72 120,-109 158,-241 31,-104 52,-225 48,-342 -12,-347 80,-205 184,-413 24,-47 33,-94 68,-126 55,-50 58,-25 102,-106l279 -707c10,-29 40,-124 43,-154 10,-76 -31,-50 -20,-159 43,-80 192,10 80,-238 44,-42 52,-30 86,-94 143,-273 95,-572 145,-729 34,-106 49,-170 57,-290 14,-194 58,-387 104,-577 45,-188 74,-385 126,-572 48,45 68,44 149,26 102,-23 49,31 156,5 275,-69 352,-357 455,-588 26,-59 19,-92 0,-139 95,-99 7,-145 -53,-209 60,-204 169,-239 189,-336 22,-105 3,-112 45,-217 111,-277 152,-242 181,-347 24,-87 3,-135 41,-223 57,-132 96,-261 -14,-386 -83,-11 -157,20 -205,59l-11 -69c33,-15 148,-82 169,-110 50,-64 -4,-155 -23,-218 -116,-385 -304,-800 -475,-1164 -292,-624 -827,-656 -890,-763 -74,-124 -140,-188 -335,-206 21,-207 -73,-246 150,-320 144,-49 135,-179 156,-343 34,-267 -18,-585 -217,-774 -154,-145 -481,-274 -756,-158 -228,96 -328,316 -413,586 -69,3 -159,1 -223,32l-19 13c27,65 105,77 170,102l-9 249c-61,3 -93,-5 -140,24 23,61 36,29 93,70l-58 162 -134 15c-36,103 100,132 151,182 -46,51 -99,36 -52,125 71,135 71,191 401,199 1,71 -2,75 -72,89 -44,8 -93,7 -131,22 -81,32 -90,119 -180,116 -173,-6 -387,1 -566,42 -74,17 -150,81 -205,113 -33,20 -179,-6 -248,2 -200,26 -321,78 -540,77 -86,-77 -117,-97 -233,-161 -79,-44 -183,-82 -250,-126 -332,-222 -197,-303 -362,-385 30,-59 105,-82 127,-145 4,-43 6,-30 -30,-65 -408,-392 -135,-257 -202,-464 -19,-60 -55,-67 -48,-158 7,-105 194,-258 289,-349 26,-121 36,-320 59,-468 25,-153 44,-317 61,-468 36,-316 91,-630 125,-941 34,-311 73,-641 122,-951 32,-203 61,-288 -109,-374 -145,-73 -273,-76 -436,-32 -147,40 -128,203 -149,390 -17,154 -41,316 -64,468 -45,307 -72,628 -119,935 -68,442 -123,963 -182,1415 -20,151 -47,320 -60,470 -147,0 -223,-9 -248,141 -15,85 21,118 5,170 -30,96 -36,49 0,162 -23,32 -37,53 -60,81zm1046 38c40,-27 7,21 38,-51 65,-148 -66,-236 -175,-298 81,-41 64,-13 73,-123l73 -564c-95,91 -282,244 -289,349 -7,91 29,98 48,158 67,207 -206,72 202,464 36,35 34,22 30,65z"/>
 </g>
</svg>
