<?xml version="1.0" encoding="UTF-8"?>
<!DOCTYPE svg PUBLIC "-//W3C//DTD SVG 1.1//EN" "http://www.w3.org/Graphics/SVG/1.1/DTD/svg11.dtd">
<!-- Creator: CorelDRAW X7 -->
<svg xmlns="http://www.w3.org/2000/svg" xml:space="preserve" width="100%" height="100%" version="1.1" style="shape-rendering:geometricPrecision; text-rendering:geometricPrecision; image-rendering:optimizeQuality; fill-rule:evenodd; clip-rule:evenodd"
viewBox="0 0 11360 9126"
 xmlns:xlink="http://www.w3.org/1999/xlink">
 <defs>
  <style type="text/css">
   <![CDATA[
    .str0 {stroke:#562e1c;stroke-width:6.94488}
    .fil1 {fill:#562e1c}
    .fil0 {fill:white}
   ]]>
  </style>
 </defs>
 <g id="Layer_x0020_1">
  <metadata id="CorelCorpID_0Corel-Layer"/>
  <path class="fil0" d="M-5215 7570c153,-121 67,-16 217,-12 332,-429 259,-218 482,-478l377 -549c-194,-13 -407,53 -590,-5 -152,-48 -298,-187 -407,-253 -7,434 -20,881 -79,1297z"/>
  <path class="fil1" d="M-10460 11911c-89,42 -85,-16 -136,128 -87,245 140,449 380,342 263,-117 135,-648 -244,-470z"/>
  <path class="fil0" d="M-4958 4458l201 -94c-1,-128 -35,-361 -84,-437 -47,100 -4,170 -30,294 -19,95 -69,138 -87,237z"/>
  <g id="_944062442336">
   <path class="fil1" d="M6910 4340c376,-170 541,362 273,531 -363,228 -632,-368 -273,-531zm920 497c-27,48 32,81 -150,84 -50,1 -149,-30 -179,-48 -80,-49 -122,-150 -116,-283 5,-130 59,-216 143,-255 50,-23 121,-38 185,-30 199,26 75,11 120,73 -9,6 -20,12 -28,14l-91 25c-31,6 -56,-3 -127,14 -16,10 -240,322 90,377l153 29zm135 78c-47,-60 -38,96 -48,-114 0,-180 -47,-606 43,-734l70 6c68,136 -23,355 64,395 102,-83 119,-143 295,-156 -47,84 -146,177 -201,243 76,101 174,243 249,344 -240,31 -204,-157 -378,-266 -22,327 -4,277 -94,282zm-3225 -13c-248,-8 -189,-349 -178,-709 9,8 18,19 24,25l156 125 -112 71c-9,566 25,328 110,488zm83 -637c59,-416 73,-863 79,-1296 109,65 255,205 407,252 183,58 396,-8 590,5l-376 549c-224,261 -151,49 -483,478 -150,-4 -63,-109 -217,12zm257 -3112c19,-99 68,-141 88,-237 26,-124 -17,-194 29,-294 50,76 84,309 84,437l-201 94zm-1267 323l108 29 17 106c158,43 22,-16 190,287l260 8c-30,128 -75,180 -121,296 -47,121 -67,663 -37,790 19,85 27,39 55,161 26,119 -4,110 27,208 114,63 140,135 242,229 119,110 142,86 210,226 -215,-64 -246,-256 -437,-373 -21,281 -2,572 -129,808 8,66 2,41 24,67 133,-9 196,-40 200,69l-273 12 -65 120c-61,340 139,325 246,329 124,6 26,-50 123,24 -141,97 -275,57 -383,-57l-110 -101c-16,263 -324,871 -426,950 -115,88 -168,56 -259,200 -80,126 -71,246 -117,337l-2513 2074c-68,56 -148,178 -273,126 -65,-158 59,-258 -108,-319 -356,-132 -384,630 115,679 312,31 587,-266 828,-487l723 -618c429,-405 991,-786 1360,-1180l178 46c123,-218 21,-112 273,-299 437,-725 632,-800 1022,-947 156,-119 297,-146 340,-298 -69,-121 13,-14 -156,-89 -267,-119 -87,-322 -172,-539 337,85 72,-249 622,132l19 9 23 -165c33,2 116,16 148,23l105 3 -182 118 3 77c103,-25 203,-117 250,-209 33,-200 86,-218 290,-262 262,-133 291,-365 496,-489 204,76 244,218 296,359 36,96 51,37 29,131 -24,102 -263,330 -314,525l4 155c96,74 73,16 132,115 -25,17 7,90 -154,16l-134 -89 -180 484c83,219 555,609 692,769l170 184c44,39 14,14 68,47 -2,-135 22,-316 -52,-418 -48,-65 -149,-19 -101,-371l398 -275c66,158 426,542 570,697l413 433c103,91 151,90 244,179 204,195 -82,65 460,422 457,302 1021,554 1193,959 123,291 -363,630 -352,876 234,155 760,102 853,-98 41,-90 -36,-159 257,-270 642,-242 125,-609 77,-675 -269,-369 -144,-101 -363,-307l-660 -679c-151,-181 -238,-354 -421,-497 -341,-266 -524,-41 -836,-960 -81,-238 -127,-445 -211,-671 -197,-534 -217,-474 110,-463 -197,-786 40,-1642 -997,-1968l-782 827c-319,370 -418,425 -589,610 -99,108 -64,136 -222,181 70,-135 105,-118 213,-226l1134 -1227c40,-41 81,-65 112,-96 102,-102 42,-8 77,-139 -134,-30 -597,-343 -722,-417l-738 -459c88,-104 219,-120 -6,-311 -143,-122 -132,-145 -229,-300 -202,-321 -401,-218 -814,-266 -187,-80 -227,-650 -1214,-207 -266,119 -229,341 -235,653 -5,251 60,151 88,326 26,163 -81,227 0,330zm514 1967c191,117 222,309 437,373 -68,-140 -91,-116 -210,-226 -102,-94 -128,-166 -242,-229l15 82zm-367 1271l110 101c108,114 242,154 383,57 -97,-74 1,-18 -123,-24 -107,-4 -307,11 -246,-329 -92,87 -58,91 -124,195zm3156 1788l13 -114c-28,-100 -657,-690 -809,-867 -91,-106 -48,-102 -87,-41 15,145 78,253 70,411 -6,112 -51,281 -63,432 -26,309 -58,618 -102,926 -195,1357 -744,485 -1012,904 -43,192 92,374 190,456 217,183 345,-11 462,247 84,186 104,285 413,268 464,-25 100,-287 571,-1536 124,-328 293,-731 354,-1086zm-883 -1022c39,-61 -4,-65 87,41 152,177 781,767 809,867l-13 114c71,-115 44,-69 42,-219 -54,-33 -24,-8 -68,-47l-170 -184c-137,-160 -609,-550 -692,-769 -5,14 -23,-22 -22,84 0,63 -4,7 6,60l21 53zm1732 -565l-19 -817c100,39 76,-38 75,172 0,111 -8,129 15,240l58 -42c-87,-40 4,-259 -64,-395l-70 -6c-90,128 -43,554 -43,734 10,210 1,54 48,114zm-225 -2718c8,-90 30,-70 -57,-70 -35,131 25,37 -77,139 -31,31 -72,55 -112,96l-1134 1227c-108,108 -143,91 -213,226 158,-45 123,-73 222,-181 171,-185 270,-240 589,-610l782 -827zm-798 2227c-107,154 -104,215 -1,385l220 -28c68,-219 73,-409 -219,-357zm888 413l-153 -29c-330,-55 -106,-367 -90,-377 71,-17 96,-8 127,-14l91 -25c8,-2 19,-8 28,-14 -45,-62 79,-47 -120,-73 -64,-8 -135,7 -185,30 -84,39 -138,125 -143,255 -6,133 36,234 116,283 30,18 129,49 179,48 182,-3 123,-36 150,-84zm135 78c90,-5 72,45 94,-282 174,109 138,297 378,266 -75,-101 -173,-243 -249,-344 55,-66 154,-159 201,-243 -176,13 -193,73 -295,156l-58 42c-23,-111 -15,-129 -15,-240 1,-210 25,-133 -75,-172l19 817zm-1023 -491c292,-52 287,138 219,357l-220 28c-103,-170 -106,-231 1,-385zm-32 -84c-359,163 -90,759 273,531 268,-169 103,-701 -273,-531zm-502 459l134 89c161,74 129,1 154,-16 -59,-99 -36,-41 -132,-115l-4 -155 -152 197zm-1668 103c-85,-160 -119,78 -110,-488l112 -71 -156 -125c-6,-6 -15,-17 -24,-25 -11,360 -70,701 178,709zm-591 -503l273 -12c-4,-109 -67,-78 -200,-69 -22,-26 -16,-1 -24,-67 -58,0 -42,82 -49,148zm954 579c37,-55 70,-106 103,-161 -465,158 -445,-523 -73,-436 103,24 99,60 119,168 9,-7 21,-30 26,-21 6,8 21,-15 28,-19 57,-24 15,-13 91,-27 -550,-381 -285,-47 -622,-132 85,217 -95,420 172,539 169,75 87,-32 156,89zm660 -640c97,-49 203,-128 290,-262 -204,44 -257,62 -290,262zm-347 153c-11,53 -18,35 42,35l3 -148 95 -16c7,-2 21,-8 31,-13 -32,-7 -115,-21 -148,-23l-23 165zm171 -142c-10,5 -24,11 -31,13l-95 16 -3 148 55 21 -3 -77 182 -118 -105 -3zm-381 468l-38 -233c46,-28 27,-18 84,-35 -20,-108 -16,-144 -119,-168 -372,-87 -392,594 73,436z"/>
   <path class="fil1 str0" d="M5103 4978l660 -640 -138 -326 -820 740c0,0 312,206 298,226z"/>
  </g>
 </g>
</svg>
