<?xml version="1.0" encoding="UTF-8"?>
<!DOCTYPE svg PUBLIC "-//W3C//DTD SVG 1.1//EN" "http://www.w3.org/Graphics/SVG/1.1/DTD/svg11.dtd">
<!-- Creator: CorelDRAW X7 -->
<svg xmlns="http://www.w3.org/2000/svg" xml:space="preserve" width="100%" height="100%" version="1.1" style="shape-rendering:geometricPrecision; text-rendering:geometricPrecision; image-rendering:optimizeQuality; fill-rule:evenodd; clip-rule:evenodd"
viewBox="0 0 24157 14959"
 xmlns:xlink="http://www.w3.org/1999/xlink">
 <defs>
  <style type="text/css">
   <![CDATA[
    .fil0 {fill:#562e1c}
   ]]>
  </style>
 </defs>
 <g id="Layer_x0020_1">
  <metadata id="CorelCorpID_0Corel-Layer"/>
  <path class="fil0" d="M1183 10486c154,-121 67,-15 217,-11 332,-430 259,-218 483,-479l376 -549c-194,-13 -407,53 -590,-5 -152,-47 -298,-187 -407,-252 -6,433 -20,880 -79,1296z"/>
  <path class="fil0" d="M-4061 14828c-89,41 -86,-17 -137,127 -86,246 140,450 380,342 263,-117 135,-648 -243,-469z"/>
  <path class="fil0" d="M1440 7374l201 -93c0,-129 -35,-362 -84,-438 -47,100 -4,170 -29,295 -20,95 -70,138 -88,236z"/>
  <g id="_908459769200">
   <path class="fil0" d="M5897 4182l-1 -30c-31,-19 -30,-28 -72,-28l73 58zm-956 6785c18,-32 72,-73 101,-83l169 250c150,215 206,270 25,394 -65,-15 -484,-288 -518,-342 37,-30 67,-77 115,-94 45,0 225,188 309,211 -60,-152 -245,-254 -201,-336zm670 -29c156,112 -53,402 -236,279 -391,-264 -19,-617 199,-332 -22,71 -92,120 -142,167 23,42 126,120 111,24 -8,-50 -48,-62 68,-138zm3625 -301c-16,-31 -14,-6 -9,-39l54 -70c49,-43 51,-47 91,-17 2,1 35,41 41,55l-82 85c-56,49 -41,27 -69,14 17,100 -5,67 -50,101 -2,2 -6,4 -8,7 -32,28 -2,27 -58,65l-59 50c-2,3 -10,10 -13,13l-188 202c-54,69 -18,22 -53,46 -80,58 -7,88 -129,78 9,28 16,33 4,59 -68,-14 -17,-36 -110,-62 -8,120 -5,42 40,120l-152 154c-39,-10 -80,-41 -98,-70 -12,-18 -10,-14 -16,-43l84 -18c37,-95 65,-13 104,-147 29,-102 60,-70 120,-98 3,-1 46,-28 52,-33 2,-2 5,-4 7,-7l12 -16c75,-99 34,-13 85,-82 46,-63 -2,-25 57,-65 94,-64 2,-91 118,-54 10,3 -14,15 32,7 30,-6 6,13 23,-17 21,-37 -5,-35 -11,-112l73 -63c39,-49 34,-56 108,-43zm-3345 -14c104,125 92,188 -19,287 -115,103 -212,23 -288,-53 -254,-253 94,-490 225,-305 -49,136 -113,59 -180,61 -20,81 125,223 196,208 22,-77 -10,-45 -32,-116 36,-38 43,-57 98,-82zm2565 -698c67,3 27,-7 72,30 -12,20 -22,57 -63,35 -37,-19 -18,-37 -9,-65zm133 -10c-215,15 -186,-270 -18,-185 -26,92 -23,15 -82,61l80 64c18,-56 -5,-52 42,-73 27,26 10,-31 27,38 9,38 -5,43 -49,95zm26 -318c109,-50 225,147 88,189 -96,30 -215,-129 -88,-189zm215 -216c51,-23 166,91 142,143 -43,46 -102,-64 -145,-78 10,60 133,104 64,147 -21,15 33,39 -43,1 -16,-8 -18,-16 -30,-27 -25,-25 -28,-36 -62,-47 13,60 94,56 86,138 -64,41 -130,-59 -173,-106l161 -171zm-3260 -151c-18,-139 74,-172 128,-109 -36,67 -28,15 -81,45l77 68c40,-70 -15,68 4,-26 4,-18 -6,-7 7,-25 22,-32 -12,-15 47,-23 24,62 16,162 -126,125 22,75 -2,110 -57,139 -74,-4 -64,-33 -123,-57 19,57 44,64 63,129 -27,24 -25,17 -44,48 -77,-17 -92,-45 -153,-81 -61,-37 -100,-42 -48,-100 68,3 65,44 125,63 -26,-55 -48,-57 -71,-112l43 -46c40,12 17,1 39,54 52,-51 61,-135 170,-92zm166 -121c-23,-19 -92,-37 -91,-105 0,-24 -22,-9 14,-28 32,-17 46,8 102,11 6,71 31,104 103,107 -214,-200 -2,-255 75,-175 55,57 49,115 -22,161l-46 38c-2,3 -4,7 -5,9l-47 42c-64,-20 -39,-25 -83,-60zm472 -344c-264,-110 19,-360 101,-88 -26,50 -37,72 -101,88zm-322 79c30,-80 49,-4 43,-120 -2,-55 109,-131 120,-136 29,42 7,41 15,74 15,66 155,110 96,189 -39,-1 -53,-24 -86,-53 -19,-18 -17,-17 -34,-35l-40 -37c-2,3 -4,8 -5,11l-7 23c-26,127 50,105 59,169 5,32 7,5 -6,25 -28,28 -29,22 -88,-35 -33,-33 -41,-38 -67,-75zm470 -420c34,37 82,58 75,127 -7,55 -63,95 -115,76 -85,-32 -160,-210 40,-203zm1797 -40c41,21 95,64 113,117 -44,39 -48,64 -99,82 -41,-30 -81,-64 -105,-119l91 -80zm-198 270c-82,-41 -114,40 -205,44 -92,3 -141,-43 -143,-132 -2,-132 215,-300 279,-153 -90,143 -115,12 -154,111 9,8 3,46 111,-4 179,-82 245,46 237,126 -11,118 -181,273 -301,142 127,-166 171,-1 176,-134zm-1511 -382c64,18 108,87 151,126 -11,18 -27,39 -41,56 -37,-31 -67,-68 -115,-91 41,102 118,75 60,132 -34,26 -6,29 -51,1l-109 -111 105 -113zm57 16c-28,-76 11,-124 96,-123 18,33 13,2 -3,56 150,-13 102,93 70,121 -19,17 -54,39 -79,15 -32,-32 -6,-27 15,-65 -57,13 -49,19 -99,-4zm1960 -236c79,109 102,186 -20,288 -45,38 -91,68 -154,48 -92,-28 -331,-222 -186,-388 80,-91 185,-135 278,-17 -19,42 -54,73 -87,95 -34,-15 -54,-38 -103,-31 -15,66 34,94 72,133 126,128 149,66 128,12 -20,-50 -15,4 -28,-57 26,-33 57,-66 100,-83zm-1730 97c-24,-43 -62,-75 -32,-134 25,-52 63,-52 124,-35 -8,30 -11,48 -35,57 -32,12 19,-46 -45,1 31,35 43,59 89,69 -8,-31 -28,-60 18,-67 65,-10 73,145 -97,126 26,66 25,45 -3,93 -33,-13 -27,-14 -53,-40 13,-44 0,-6 17,-39l17 -31zm157 -308c43,-16 100,27 118,69 21,49 6,113 -52,129 -99,26 -220,-144 -66,-198zm1621 -213c107,-33 246,124 276,182 70,132 -35,266 -140,293 -186,47 -490,-366 -136,-475zm-1591 174c20,-27 52,-62 86,-92 14,-13 14,-11 23,-19l58 -66c57,7 144,82 145,132 3,99 -121,-55 -153,-59 14,54 74,70 99,133l-37 26c-71,-16 -49,-49 -130,-85 32,72 68,55 91,132l-34 34c-75,-39 -94,-99 -148,-136zm1967 -501c-6,-87 25,-139 81,-158 122,-41 363,280 365,284 -96,177 -152,61 -238,-24 -89,-88 -74,-105 -143,-92 -4,65 59,106 95,141 25,24 38,37 62,61 16,15 15,13 29,29 28,31 11,11 29,38 -17,49 -9,32 -43,67 -21,21 -30,27 -53,41 -60,-27 -145,-143 -197,-190 -50,-46 -108,-36 -76,21 1,1 23,27 26,30 21,23 36,39 60,65 54,59 93,66 124,132 -17,36 2,5 -24,38l-79 68c-51,-43 -107,-108 -159,-155l-151 -159c13,-33 -3,-7 27,-46 84,-105 65,-68 101,-47 4,-115 51,-140 164,-144zm-3065 71c-7,-62 -16,-52 25,-84 112,-86 28,-37 100,-96 3,-3 12,-10 16,-13l15 -12c22,-18 -18,4 24,-19 45,16 79,34 82,96 -68,-3 -31,-30 -96,-50 24,62 38,27 52,94 -28,13 -33,-2 -55,-17 16,87 22,34 -18,80 -129,147 -81,5 -198,62 17,27 22,29 40,52 72,-34 -62,43 26,-25 21,-16 -24,-5 30,-18 -14,103 -43,36 -122,148l-67 74c-2,2 -6,5 -8,7 -2,2 -5,5 -7,7l-167 164c-55,60 0,23 -67,70l-25 19c-3,2 -11,11 -14,14 -8,8 -10,14 -25,24 -71,-76 -44,-68 -102,-81 9,32 10,61 19,84 21,54 20,12 35,58 -28,17 -28,8 -54,-1 7,78 2,63 -48,99 -4,67 26,-29 3,44 -11,33 -23,-9 -115,68 -139,116 -46,118 -161,99 47,158 -138,33 -156,-17 44,-76 2,51 65,-69 102,10 22,18 96,-29 31,-20 105,-105 107,-142 0,0 -3,-25 -3,-33 90,-1 70,-9 80,-15l77 -66c58,-76 -8,-126 101,-153 107,-26 -40,26 33,-6 63,-28 15,-37 89,-27l16 -85c59,-13 29,-14 86,4 -42,-83 11,-59 71,-141 86,-118 61,61 139,-24 55,-60 -93,-159 81,-144zm2499 -655c-3,-73 7,-84 85,-87 -36,91 -15,-11 -41,62l31 34c25,-12 9,-35 49,-49 10,93 -57,114 -106,57 18,66 29,-2 24,103l-102 0c60,173 -123,41 -152,-7l42 -11c1,0 38,11 43,13 -24,-59 -34,-7 -19,-78 36,2 9,-2 24,6l25 22c2,-3 4,-8 5,-11l32 -44c30,-18 25,-10 60,-10zm193 -54c-63,37 -121,-46 -149,-96 6,-8 28,-17 50,-12 54,12 17,5 38,33 54,69 50,33 61,75zm-1517 -368c74,-22 16,-1 123,42 -23,-51 -46,-68 -57,-105l50 -36c13,11 183,196 113,259 -49,30 -92,-17 -146,-50 -129,-77 -96,-70 -83,-110zm182 -84c20,-18 47,-46 66,-65 57,6 74,18 107,43 -28,72 -92,72 -31,110 26,-54 -19,-47 42,-79 121,108 -156,221 -184,-9zm-2225 -81c17,-20 69,-64 90,-70 103,163 218,334 328,506 -32,56 -92,119 -148,152l-503 -328c18,-54 57,-97 114,-118 41,-1 190,165 288,189 -33,-84 -100,-148 -150,-213 -33,-44 -62,-65 -19,-118zm659 -9c108,61 53,221 -61,285 -164,92 -495,-219 -271,-408 133,-113 221,13 303,54 -27,69 15,6 -41,71 -43,51 -85,52 -100,123 27,39 44,53 98,53 12,-68 -1,-44 -20,-94 26,-37 53,-68 92,-84zm3150 165c-31,-98 29,-55 80,-130 52,-78 30,-34 69,-67 17,-15 6,-4 25,-31 13,-18 -9,-3 23,-33 117,5 -33,20 71,26 76,4 -20,-2 66,-26 7,15 24,32 4,50 -33,31 13,7 -18,1l-32 -15c10,79 7,85 -69,91l29 -35c12,-18 17,10 11,-28 -21,27 -42,24 -99,21 45,26 34,20 65,67 -22,37 -49,43 -79,73 -51,50 -26,96 -112,69 23,68 -8,98 -88,91 10,26 15,30 1,56 -71,-18 -22,-36 -121,-74 22,127 1,49 50,132 -24,42 -3,1 -27,27 -49,54 -14,57 -54,70 -80,8 -104,-37 -90,-111 37,-21 54,6 86,-89 1,-3 2,-7 4,-11 18,-60 18,-81 83,-103 22,40 -1,32 27,80 15,-24 0,-13 4,-45 5,-33 -24,13 11,-39 26,-38 46,-28 80,-17zm-1298 -65c-55,1 -58,7 -96,-23 -78,-60 -78,-129 22,-186 38,17 39,12 59,40 -88,95 -15,-6 -83,32 31,49 33,52 79,78 21,-43 -21,-41 42,-83 56,67 23,88 -23,142zm160 -184c-42,116 -75,49 -208,-38 -23,-79 -28,-41 -18,-91 75,-24 17,3 105,6 10,50 8,55 39,83 43,40 32,17 82,40zm1439 -54c-7,-75 1,-86 65,-96 3,30 18,22 -17,50l15 47c2,-1 5,-5 7,-6l59 -34c-20,112 -71,88 -129,39zm-3174 -180c87,109 119,167 -17,287 -113,100 -212,25 -287,-52 -74,-76 -151,-179 -47,-296 153,-172 260,-24 285,-7l-88 92c-63,-20 -10,-35 -114,-30 7,102 145,217 204,204 29,-101 -43,-35 -19,-125 8,-31 53,-61 83,-73zm1759 1c-18,-64 -23,-35 13,-77l66 -39c28,78 -26,35 21,102 27,40 52,40 53,90 -32,20 -41,15 -78,12 2,310 -410,-78 -75,-88zm1575 139c-43,-9 -73,-13 -82,-62 -9,-51 27,-64 105,-140l74 -72c43,10 87,41 93,89 -44,7 -61,-8 -89,-48 3,58 22,40 41,92 -2,1 -7,2 -9,2l-16 4c-22,11 9,1 -72,95 -24,27 -10,19 -45,40zm-1309 -188c-4,4 -1,37 -56,-1 -12,-8 -36,-32 -47,-41 -1,-2 -42,-41 -42,-41 -56,-41 -153,16 -63,-80 78,-84 64,-64 101,-66 42,77 -63,30 51,127 34,29 89,66 56,102zm-1707 -22c-130,201 -180,123 -308,-9 -157,-163 -59,-7 -161,-88 -33,-26 -13,-53 -20,-81 -7,-30 -45,-56 -67,-86 20,-41 59,-85 100,-107 45,19 5,2 43,37 84,79 16,-29 159,60 2,74 -13,10 -11,97 26,18 104,98 127,111 95,51 32,-63 138,66zm-69 -547c101,-32 226,111 271,181 77,122 -34,269 -134,292 -187,43 -504,-356 -137,-473zm1974 164c-31,-66 -4,-64 -4,-65 1,-3 58,-93 118,-70 3,1 141,80 81,154 -73,-16 -58,-71 -139,-82 41,50 192,204 5,123 22,117 -30,163 -131,138 14,78 -2,134 -97,143 -106,-15 -162,-233 33,-205 -4,-107 28,-144 134,-136zm272 -131c-47,-15 -65,43 -122,5 -47,-32 -21,-91 6,-113 25,-21 42,-25 71,-11l33 28c92,69 53,-9 115,-29 27,29 26,22 26,64 -41,26 -18,14 -74,-6 11,104 -47,166 -121,117 51,-79 41,12 66,-55zm204 -125c-162,8 -197,-166 -91,-199 78,-25 70,44 70,44 -47,36 -5,3 -39,16l-39 14c38,39 27,40 81,66 27,-43 -13,47 4,-22 1,-2 1,-6 2,-8 13,-38 2,-26 36,-41 60,60 23,75 -24,130zm39 -320c87,-44 212,132 88,186 -100,44 -230,-114 -88,-186zm154 -163c3,-2 5,-5 7,-7 57,-56 69,-74 164,25 41,43 41,43 11,93 -83,-29 -75,-79 -137,-93 14,42 62,70 91,117 -17,34 -17,25 -38,51 -23,-21 -38,-35 -66,-58 -5,-5 -26,-23 -28,-25 -23,-17 -2,-11 -24,-13 -1,44 -7,6 17,31 12,13 22,19 37,34 97,104 -40,133 -137,-33l103 -122zm-3515 -70c80,17 53,40 126,68 -21,-62 -41,-61 -73,-115l43 -51c44,36 141,179 135,243l-25 32c-73,2 -210,-105 -235,-139l29 -38zm299 -220c22,-16 21,-22 45,-35 26,-15 31,-10 57,-26 -9,-67 -60,-158 58,-99 102,51 -40,31 146,130l-37 60c-64,-5 -36,-11 -98,-64 -18,-15 -4,-5 -27,-18 -2,3 -3,8 -4,11l-49 66 43 51c21,-84 10,-23 32,-75 35,41 64,94 -4,139 -58,39 -75,3 -126,-19 18,57 30,8 36,70 7,64 -86,138 -168,44 -35,-40 -53,-85 -11,-130 50,-54 91,-17 139,2 -33,-36 -34,-39 -32,-107zm-509 -1117c144,17 21,-26 116,-52 59,-16 84,37 93,81 -31,59 -16,19 -55,56 -20,19 -29,36 -44,60l-96 -38c-30,29 -22,-3 -36,33 40,35 -1,-4 24,29 93,-31 -66,42 25,-20 35,-24 24,-30 35,-4 6,14 12,88 -87,64 39,114 -49,89 -104,66 12,41 57,127 -39,91 -16,-6 -89,-50 -106,-87 48,-35 64,7 108,39 -30,-44 -55,-55 -51,-106 39,-3 54,24 54,24 2,2 7,11 8,8 1,-2 5,6 7,9 -1,-80 25,-105 94,-72 -20,-72 -35,-38 20,-88 59,-53 19,10 34,-93zm3430 -388c165,-68 514,290 189,453 -181,90 -515,-320 -189,-453zm-3093 306c-82,-10 -25,-26 -118,-53 -6,133 43,60 36,128 -56,11 -2,11 -105,-62 26,-107 -38,88 14,-31l9 -19c24,-73 -22,-57 64,-116 2,3 5,7 6,9l47 62c30,31 41,28 47,82zm40 -183c-9,-92 12,-63 60,-104 27,-23 39,-57 77,-79 15,-2 98,35 87,89 -50,21 -47,-11 -100,-42 15,37 25,36 56,68 -15,40 1,2 -20,23l-36 45c-28,46 -11,47 -81,41l-22 79c-82,17 -114,-22 -101,-110l80 -10zm165 -206c16,-54 7,-34 56,-56 35,15 30,26 50,41 4,-1 9,-4 12,-5 2,-1 8,-3 11,-5 70,-30 39,-17 63,0 -20,27 -20,7 -43,32 -21,23 -10,40 -40,62 -16,10 -36,18 -43,-4 -6,-21 7,-19 30,-36 -68,6 -62,32 -96,-29zm3286 -253c-4,-102 76,-246 232,-99 48,45 193,183 218,227 -31,41 -55,57 -97,104 -55,-25 -75,-62 -129,-113 -31,-29 -34,-32 -62,-64 -27,-32 -41,-43 -94,-46 5,83 3,53 109,157 42,42 91,81 115,132l-106 90c-70,-39 -190,-211 -265,-228 -9,19 -13,22 -25,37 51,82 186,172 233,250 -31,46 -55,76 -95,99 -57,-19 -201,-181 -254,-234 -39,-39 -53,-34 -72,-87 98,-131 108,-86 129,-78 4,-117 53,-144 163,-147zm-8883 4343l0 476c53,106 19,242 177,506 198,331 417,460 770,606 345,142 792,49 1115,-117 151,-77 323,-174 536,-159 181,13 349,123 424,270 97,192 73,416 53,625 -41,417 -138,771 -215,1158 -78,388 -313,799 -206,1112 104,305 606,337 942,435 180,52 381,82 572,122 133,27 537,48 617,84l582 0c46,-16 422,6 654,-216 129,-124 276,-411 255,-617 -16,-162 -106,-294 -175,-403 -139,-34 -204,-215 -295,-229 -154,-23 -48,-40 -104,-126 -20,-31 -30,-30 -50,-62 102,-189 123,-45 210,-26l23 -74c19,-71 6,-315 70,-557 118,-447 573,-762 1031,-802l83 -29c147,-12 184,56 300,-33 34,-27 78,-213 220,-109 36,26 87,90 124,126 37,35 89,81 124,129 -24,61 -48,26 -45,98 13,23 122,82 207,167 137,139 231,276 275,477 14,64 53,253 53,309l98 9c41,91 -9,129 -95,156 -4,560 -468,646 -363,1166 18,90 62,200 117,271l50 67c54,10 25,-25 47,26 1,-2 1,-5 1,-6l1 -25c-1,-6 -12,-49 -14,-59 56,31 9,4 45,33l26 23c-5,-72 9,-86 81,-87 -1,-61 9,-101 75,-76 2,20 -26,53 -27,49 -1,-2 -5,4 -6,7 3,2 32,17 40,22 1,-2 1,-6 1,-7l10 -18c14,-17 4,-11 30,-19 5,64 16,50 -27,82 -145,110 -33,114 -176,58 57,113 38,60 17,126 47,69 246,127 337,153 54,15 86,3 135,26l711 0c48,-21 495,-60 605,-79 196,-34 389,-73 574,-120 315,-81 862,-146 948,-427 102,-332 -137,-787 -202,-1116 -97,-490 -237,-968 -230,-1494 3,-161 -6,-131 35,-217 12,-26 16,-48 25,-74 51,-149 217,-262 408,-287 474,-63 567,254 1035,327 404,63 752,-38 1074,-273 455,-332 449,-742 509,-877l0 -452c-13,-35 -15,-103 -27,-148 -36,-141 -67,-242 -143,-370 -101,-170 -195,-273 -324,-371 -302,-231 -651,-341 -1040,-293 -562,69 -1125,675 -1475,44 -24,-45 -73,-214 -74,-272 -18,-550 100,-984 219,-1504 23,-100 36,-185 67,-281 81,-243 233,-572 150,-833 -96,-306 -615,-348 -953,-434 -184,-47 -385,-90 -576,-122 -111,-18 -547,-52 -605,-77l-711 0 -63 16c-227,40 -430,123 -556,318 -40,61 -51,69 -88,148 -71,153 -117,418 -13,556l45 20c30,-42 12,-42 56,-86 105,-105 183,-87 266,0 -18,44 -47,68 -85,95 -63,-22 -30,-49 -101,-30 -24,83 118,203 202,204 6,-110 -11,-34 -34,-117l85 -82c217,92 -53,448 -192,310l-26 28c11,159 171,169 67,802 -48,292 -157,464 -330,614 -341,298 -816,411 -1266,257 -54,-18 -111,-59 -168,-62 -5,23 86,100 109,121 -30,43 -64,86 -110,103l-312 -312c21,-48 41,-44 41,-98l-126 -145c-211,-250 -157,-408 -221,-586 -65,-5 -52,6 -88,-35l-50 -53 7 -74c23,-16 37,-21 64,-39 28,-18 18,-9 31,-28l20 -39c3,-350 196,-517 319,-760 75,-148 77,-270 33,-444 -27,-110 -131,-287 -186,-336 -39,31 -13,8 -30,33l-50 -45c-18,-15 -16,-19 -45,-26 65,66 57,49 66,94 -13,5 -34,6 -36,6 -43,19 8,15 -60,76l-36 37c-97,126 -150,-32 -137,-57 18,-14 27,-11 46,-23 84,-52 1,-90 122,-81 -29,-78 7,-38 43,-118 -30,-39 -154,-87 -222,-105 -48,-13 -84,-28 -134,-36 -51,-9 -106,-3 -146,-21l-555 0c-26,10 -550,58 -635,69 -194,26 -393,76 -579,117 -187,42 -385,93 -554,154 -377,137 -635,162 -411,828 137,409 336,1305 370,1711 6,68 18,386 1,451 -15,54 -7,3 -26,53 -20,49 -11,85 -36,132 -78,145 -208,289 -380,311 -354,45 -669,-287 -1039,-341 -458,-67 -782,64 -1079,269 -275,190 -429,485 -498,807 -2,12 -5,25 -8,36l-12 35zm8885 478c-113,4 -160,29 -164,144 -36,-21 -17,-58 -101,47 -30,39 -14,13 -27,46l151 159c52,47 108,112 159,155l79 -68c26,-33 7,-2 24,-38 -31,-66 -70,-73 -124,-132 -24,-26 -39,-42 -60,-65 -3,-3 -25,-29 -26,-30 -32,-57 26,-67 76,-21 52,47 137,163 197,190 23,-14 32,-20 53,-41 34,-35 26,-18 43,-67 -18,-27 -1,-7 -29,-38 -14,-16 -13,-14 -29,-29 -24,-24 -37,-37 -62,-61 -36,-35 -99,-76 -95,-141 69,-13 54,4 143,92 86,85 142,201 238,24 -2,-4 -243,-325 -365,-284 -56,19 -87,71 -81,158zm-2 -4821c-110,3 -159,30 -163,147 -21,-8 -31,-53 -129,78 19,53 33,48 72,87 53,53 197,215 254,234 40,-23 64,-53 95,-99 -47,-78 -182,-168 -233,-250 12,-15 16,-18 25,-37 75,17 195,189 265,228l106 -90c-24,-51 -73,-90 -115,-132 -106,-104 -104,-74 -109,-157 53,3 67,14 94,46 28,32 31,35 62,64 54,51 74,88 129,113 42,-47 66,-63 97,-104 -25,-44 -170,-182 -218,-227 -156,-147 -236,-3 -232,99zm-3063 4892c-174,-15 -26,84 -81,144 -78,85 -53,-94 -139,24 -60,82 -113,58 -71,141 -57,-18 -27,-17 -86,-4l-16 85c-74,-10 -26,-1 -89,27 -73,32 74,-20 -33,6 -109,27 -43,77 -101,153l-77 66c-10,6 10,14 -80,15 0,8 3,33 3,33 -2,37 -76,122 -107,142 -74,47 6,39 -96,29 -63,120 -21,-7 -65,69 18,50 203,175 156,17 115,19 22,17 161,-99 92,-77 104,-35 115,-68 23,-73 -7,23 -3,-44 50,-36 55,-21 48,-99 26,9 26,18 54,1 -15,-46 -14,-4 -35,-58 -9,-23 -10,-52 -19,-84 58,13 31,5 102,81 15,-10 17,-16 25,-24 3,-3 11,-12 14,-14l25 -19c67,-47 12,-10 67,-70l167 -164c2,-2 5,-5 7,-7 2,-2 6,-5 8,-7l67 -74c79,-112 108,-45 122,-148 -54,13 -9,2 -30,18 -88,68 46,-9 -26,25 -18,-23 -23,-25 -40,-52 117,-57 69,85 198,-62 40,-46 34,7 18,-80 22,15 27,30 55,17 -14,-67 -28,-32 -52,-94 65,20 28,47 96,50 -3,-62 -37,-80 -82,-96 -42,23 -2,1 -24,19l-15 12c-4,3 -13,10 -16,13 -72,59 12,10 -100,96 -41,32 -32,22 -25,84zm-699 -911c-98,-24 -247,-190 -288,-189 -57,21 -96,64 -114,118l503 328c56,-33 116,-96 148,-152 -110,-172 -225,-343 -328,-506 -21,6 -73,50 -90,70 -43,53 -14,74 19,118 50,65 117,129 150,213zm21 4842c-84,-23 -264,-211 -309,-211 -48,17 -78,64 -115,94 34,54 453,327 518,342 181,-124 125,-179 -25,-394l-169 -250c-29,10 -83,51 -101,83 -44,82 141,184 201,336zm4094 -666c-74,-13 -69,-6 -108,43l-73 63c6,77 32,75 11,112 -17,30 7,11 -23,17 -46,8 -22,-4 -32,-7 -116,-37 -24,-10 -118,54 -59,40 -11,2 -57,65 -51,69 -10,-17 -85,82l-12 16c-2,3 -5,5 -7,7 -6,5 -49,32 -52,33 -60,28 -91,-4 -120,98 -39,134 -67,52 -104,147l-84 18c6,29 4,25 16,43 18,29 59,60 98,70l152 -154c-45,-78 -48,0 -40,-120 93,26 42,48 110,62 12,-26 5,-31 -4,-59 122,10 49,-20 129,-78 35,-24 -1,23 53,-46l188 -202c3,-3 11,-10 13,-13l59 -50c56,-38 26,-37 58,-65 2,-3 6,-5 8,-7 45,-34 67,-1 50,-101 28,13 13,35 69,-14l82 -85c-6,-14 -39,-54 -41,-55 -40,-30 -42,-26 -91,17l-54 70c-5,33 -7,8 9,39zm-557 -2673c-98,8 -236,-166 -201,-199 38,-36 207,112 201,199zm-170 -336c-354,109 -50,522 136,475 105,-27 210,-161 140,-293 -30,-58 -169,-215 -276,-182zm-2414 -2300c80,-24 211,126 209,193 -57,8 -46,13 -84,-22 -37,-33 -129,-118 -125,-171zm42 -142c-367,117 -50,516 137,473 100,-23 211,-170 134,-292 -45,-70 -170,-213 -271,-181zm2344 -2249c71,11 207,117 193,207 -57,7 -145,-78 -180,-129 -36,-55 -15,-19 -13,-78zm4 -121c-326,133 8,543 189,453 325,-163 -24,-521 -189,-453zm-3096 3333c-20,17 -3,4 -28,17 -30,-25 -39,-36 -31,-76 57,-25 62,-3 85,31 -10,11 -12,17 -26,28zm222 -28c-39,16 -66,47 -92,84 19,50 32,26 20,94 -54,0 -71,-14 -98,-53 15,-71 57,-72 100,-123 56,-65 14,-2 41,-71 -82,-41 -170,-167 -303,-54 -224,189 107,500 271,408 114,-64 169,-224 61,-285zm-199 4806c-10,47 -7,41 -51,59 -15,-12 -64,-40 -29,-74 30,-31 55,-4 80,15zm199 11c-116,76 -76,88 -68,138 15,96 -88,18 -111,-24 50,-47 120,-96 142,-167 -218,-285 -590,68 -199,332 183,123 392,-167 236,-279zm2850 -2886c-43,17 -74,50 -100,83 13,61 8,7 28,57 21,54 -2,116 -128,-12 -38,-39 -87,-67 -72,-133 49,-7 69,16 103,31 33,-22 68,-53 87,-95 -93,-118 -198,-74 -278,17 -145,166 94,360 186,388 63,20 109,-10 154,-48 122,-102 99,-179 20,-288zm-2573 -2249c-30,12 -75,42 -83,73 -24,90 48,24 19,125 -59,13 -197,-102 -204,-204 104,-5 51,10 114,30l88 -92c-25,-17 -132,-165 -285,7 -104,117 -27,220 47,296 75,77 174,152 287,52 136,-120 104,-178 17,-287zm2067 2851c-5,133 -49,-32 -176,134 120,131 290,-24 301,-142 8,-80 -58,-208 -237,-126 -108,50 -102,12 -111,4 39,-99 64,32 154,-111 -64,-147 -281,21 -279,153 2,89 51,135 143,132 91,-4 123,-85 205,-44zm55 -5425l216 342 26 -28c139,138 409,-218 192,-310l-85 82c23,83 40,7 34,117 -84,-1 -226,-121 -202,-204 71,-19 38,8 101,30 38,-27 67,-51 85,-95 -83,-87 -161,-105 -266,0 -44,44 -26,44 -56,86l-45 -20zm-2119 7394c-55,25 -62,44 -98,82 22,71 54,39 32,116 -71,15 -216,-127 -196,-208 67,-2 131,75 180,-61 -131,-185 -479,52 -225,305 76,76 173,156 288,53 111,-99 123,-162 19,-287zm-241 -5154c22,30 60,56 67,86 7,28 -13,55 20,81 102,81 4,-75 161,88 128,132 178,210 308,9 -106,-129 -43,-15 -138,-66 -23,-13 -101,-93 -127,-111 -2,-87 13,-23 11,-97 -143,-89 -75,19 -159,-60 -38,-35 2,-18 -43,-37 -41,22 -80,66 -100,107zm1336 3360c97,-4 167,-5 265,2 95,8 146,33 235,43 -3,-4 -7,-15 -9,-12 -1,3 -6,-9 -8,-11 -5,-6 -16,-18 -19,-21l21 -36c56,12 113,68 123,124 40,24 157,79 198,93 -3,-72 21,-37 45,-98 -35,-48 -87,-94 -124,-129 -37,-36 -88,-100 -124,-126 -142,-104 -186,82 -220,109 -116,89 -153,21 -300,33l-83 29zm-1416 401c-109,-43 -118,41 -170,92 -22,-53 1,-42 -39,-54l-43 46c23,55 45,57 71,112 -60,-19 -57,-60 -125,-63 -52,58 -13,63 48,100 61,36 76,64 153,81 19,-31 17,-24 44,-48 -19,-65 -44,-72 -63,-129 59,24 49,53 123,57 55,-29 79,-64 57,-139 142,37 150,-63 126,-125 -59,8 -25,-9 -47,23 -13,18 -3,7 -7,25 -19,94 36,-44 -4,26l-77 -68c53,-30 45,22 81,-45 -54,-63 -146,-30 -128,109zm2347 -3686c33,16 69,58 79,85 -40,-6 -106,-40 -79,-85zm118 -135c36,16 78,41 86,85 -49,-7 -71,-36 -86,-85zm76 -59c-106,-8 -138,29 -134,136 -195,-28 -139,190 -33,205 95,-9 111,-65 97,-143 101,25 153,-21 131,-138 187,81 36,-73 -5,-123 81,11 66,66 139,82 60,-74 -78,-153 -81,-154 -60,-23 -117,67 -118,70 0,1 -27,-1 4,65zm650 936c-34,-11 -54,-21 -80,17 -35,52 -6,6 -11,39 -4,32 11,21 -4,45 -28,-48 -5,-40 -27,-80 -65,22 -65,43 -83,103 -2,4 -3,8 -4,11 -32,95 -49,68 -86,89 -14,74 10,119 90,111 40,-13 5,-16 54,-70 24,-26 3,15 27,-27 -49,-83 -28,-5 -50,-132 99,38 50,56 121,74 14,-26 9,-30 -1,-56 80,7 111,-23 88,-91 86,27 61,-19 112,-69 30,-30 57,-36 79,-73 -31,-47 -20,-41 -65,-67 57,3 78,6 99,-21 6,38 1,10 -11,28l-29 35c76,-6 79,-12 69,-91l32 15c31,6 -15,30 18,-1 20,-18 3,-35 -4,-50 -86,24 10,30 -66,26 -104,-6 46,-21 -71,-26 -32,30 -10,15 -23,33 -19,27 -8,16 -25,31 -39,33 -17,-11 -69,67 -51,75 -111,32 -80,130zm-3095 -2026c-26,16 -31,11 -57,26 -24,13 -23,19 -45,35 -2,68 -1,71 32,107 -48,-19 -89,-56 -139,-2 -42,45 -24,90 11,130 82,94 175,20 168,-44 -6,-62 -18,-13 -36,-70 51,22 68,58 126,19 68,-45 39,-98 4,-139 -22,52 -11,-9 -32,75l-43 -51 49 -66c1,-3 2,-8 4,-11 23,13 9,3 27,18 62,53 34,59 98,64l37 -60c-186,-99 -44,-79 -146,-130 -118,-59 -67,32 -58,99zm435 6445c-83,-145 -136,-188 -177,-368l-39 -149 -23 74c-87,-19 -108,-163 -210,26 20,32 30,31 50,62 56,86 -50,103 104,126 91,14 156,195 295,229zm428 -5523c-33,-45 -18,-24 -67,-51 -33,-17 -36,-21 -68,-42 -91,-58 -83,-73 -137,-93 0,54 -20,50 -41,98l312 312c46,-17 80,-60 110,-103 -23,-21 -114,-98 -109,-121zm-1474 -1978c-15,103 25,40 -34,93 -55,50 -40,16 -20,88 -69,-33 -95,-8 -94,72 -2,-3 -6,-11 -7,-9 -1,3 -6,-6 -8,-8 0,0 -15,-27 -54,-24 -4,51 21,62 51,106 -44,-32 -60,-74 -108,-39 17,37 90,81 106,87 96,36 51,-50 39,-91 55,23 143,48 104,-66 99,24 93,-50 87,-64 -11,-26 0,-20 -35,4 -91,62 68,-11 -25,20 -25,-33 16,6 -24,-29 14,-36 6,-4 36,-33l96 38c15,-24 24,-41 44,-60 39,-37 24,3 55,-56 -9,-44 -34,-97 -93,-81 -95,26 28,69 -116,52zm855 5828c-33,-39 -58,-31 -75,-90 39,14 80,39 75,90zm-46 62c-72,-3 -97,-36 -103,-107 -56,-3 -70,-28 -102,-11 -36,19 -14,4 -14,28 -1,68 68,86 91,105 44,35 19,40 83,60l47 -42c1,-2 3,-6 5,-9l46 -38c71,-46 77,-104 22,-161 -77,-80 -289,-25 -75,175zm1744 -3219c33,20 46,45 56,78 -48,-10 -83,-53 -81,-83 22,-3 10,-4 25,5zm39 -71c-335,10 77,398 75,88 37,3 46,8 78,-12 -1,-50 -26,-50 -53,-90 -47,-67 7,-24 -21,-102l-66 39c-36,42 -31,13 -13,77zm-729 1998c54,37 73,97 148,136l34 -34c-23,-77 -59,-60 -91,-132 81,36 59,69 130,85l37 -26c-25,-63 -85,-79 -99,-133 32,4 156,158 153,59 -1,-50 -88,-125 -145,-132l-58 66c-9,8 -9,6 -23,19 -34,30 -66,65 -86,92zm1751 1750c43,47 109,147 173,106 8,-82 -73,-78 -86,-138 34,11 37,22 62,47 12,11 14,19 30,27 76,38 22,14 43,-1 69,-43 -54,-87 -64,-147 43,14 102,124 145,78 24,-52 -91,-166 -142,-143l-161 171zm8 -4819c97,166 234,137 137,33 -15,-15 -25,-21 -37,-34 -24,-25 -18,13 -17,-31 22,2 1,-4 24,13 2,2 23,20 28,25 28,23 43,37 66,58 21,-26 21,-17 38,-51 -29,-47 -77,-75 -91,-117 62,14 54,64 137,93 30,-50 30,-50 -11,-93 -95,-99 -107,-81 -164,-25 -2,2 -4,5 -7,7l-103 122zm-2791 4111c26,37 34,42 67,75 59,57 60,63 88,35 13,-20 11,7 6,-25 -9,-64 -85,-42 -59,-169l7 -23c1,-3 3,-8 5,-11l40 37c17,18 15,17 34,35 33,29 47,52 86,53 59,-79 -81,-123 -96,-189 -8,-33 14,-32 -15,-74 -11,5 -122,81 -120,136 6,116 -13,40 -43,120zm-80 -6203c-18,-20 -28,-29 -43,-47l39 -15c37,-12 -5,-4 42,-10l-38 72zm254 -184c-17,-36 -12,-29 -45,-59 -24,-22 -37,-29 -72,-45 -36,80 -72,40 -43,118 -121,-9 -38,29 -122,81 -19,12 -28,9 -46,23 -13,25 40,183 137,57l36 -37c68,-61 17,-57 60,-76 2,0 23,-1 36,-6 -9,-45 -1,-28 -66,-94 29,7 27,11 45,26l50 45c17,-25 -9,-2 30,-33zm-628 482l-80 10c-13,88 19,127 101,110l22 -79c70,6 53,5 81,-41l36 -45c21,-21 5,17 20,-23 -31,-32 -41,-31 -56,-68 53,31 50,63 100,42 11,-54 -72,-91 -87,-89 -38,22 -50,56 -77,79 -48,41 -69,12 -60,104zm2887 3778c-35,0 -30,-8 -60,10l-32 44c-1,3 -3,8 -5,11l-25 -22c-15,-8 12,-4 -24,-6 -15,71 -5,19 19,78 -5,-2 -42,-13 -43,-13l-42 11c29,48 212,180 152,7l102 0c5,-105 -6,-37 -24,-103 49,57 116,36 106,-57 -40,14 -24,37 -49,49l-31 -34c26,-73 5,29 41,-62 -78,3 -88,14 -85,87zm-185 4916c22,57 18,42 53,79 44,44 11,30 71,50 21,-66 40,-13 -17,-126 143,56 31,52 176,-58 43,-32 32,-18 27,-82 -26,8 -16,2 -30,19l-10 18c0,1 0,5 -1,7 -8,-5 -37,-20 -40,-22 1,-3 5,-9 6,-7 1,4 29,-29 27,-49 -66,-25 -76,15 -75,76 -72,1 -86,15 -81,87l-26 -23c-36,-29 11,-2 -45,-33 2,10 13,53 14,59l-1 25c0,1 0,4 -1,6 -22,-51 7,-16 -47,-26zm-1073 -5401c11,37 34,54 57,105 -107,-43 -49,-64 -123,-42 -13,40 -46,33 83,110 54,33 97,80 146,50 70,-63 -100,-248 -113,-259l-50 36zm2161 -289c35,-21 21,-13 45,-40 81,-94 50,-84 72,-95l16 -4c2,0 7,-1 9,-2 -19,-52 -38,-34 -41,-92 28,40 45,55 89,48 -6,-48 -50,-79 -93,-89l-74 72c-78,76 -114,89 -105,140 9,49 39,53 82,62zm-3904 -1449c32,54 52,53 73,115 -73,-28 -46,-51 -126,-68l-29 38c25,34 162,141 235,139l25 -32c6,-64 -91,-207 -135,-243l-43 51zm1021 3891l109 111c45,28 17,25 51,-1 58,-57 -19,-30 -60,-132 48,23 78,60 115,91 14,-17 30,-38 41,-56 -43,-39 -87,-108 -151,-126l-105 113zm392 -236l-17 31c-17,33 -4,-5 -17,39 26,26 20,27 53,40 28,-48 29,-27 3,-93 170,19 162,-136 97,-126 -46,7 -26,36 -18,67 -46,-10 -58,-34 -89,-69 64,-47 13,11 45,-1 24,-9 27,-27 35,-57 -61,-17 -99,-17 -124,35 -30,59 8,91 32,134zm1652 -2930c-25,67 -15,-24 -66,55 74,49 132,-13 121,-117 56,20 33,32 74,6 0,-42 1,-35 -26,-64 -62,20 -23,98 -115,29l-33 -28c-29,-14 -46,-10 -71,11 -27,22 -53,81 -6,113 57,38 75,-20 122,-5zm-2094 3263c46,17 83,39 79,90 -26,-9 -68,-50 -79,-90zm67 -58c-200,-7 -125,171 -40,203 52,19 108,-21 115,-76 7,-69 -41,-90 -75,-127zm2270 1216c37,29 66,47 79,87 -55,-8 -74,-36 -79,-87zm-11 -43c-127,60 -8,219 88,189 137,-42 21,-239 -88,-189zm-2369 -896c-47,-10 -72,-45 -92,-89 51,15 79,39 92,89zm-38 64c64,-16 75,-38 101,-88 -82,-272 -365,-22 -101,88zm969 -2554c28,230 305,117 184,9 -61,32 -16,25 -42,79 -61,-38 3,-38 31,-110 -33,-25 -50,-37 -107,-43 -19,19 -46,47 -66,65zm1441 -1387c36,2 98,58 76,98 -26,-28 -73,-73 -76,-98zm8 -50c-142,72 -12,230 88,186 124,-54 -1,-230 -88,-186zm-1747 3116c47,42 54,40 90,87 -41,2 -45,-9 -71,-33 -24,-23 -36,-25 -19,-54zm9 -49c-154,54 -33,224 66,198 58,-16 73,-80 52,-129 -18,-42 -75,-85 -118,-69zm-387 447c50,23 42,17 99,4 -21,38 -47,33 -15,65 25,24 60,2 79,-15 32,-28 80,-134 -70,-121 16,-54 21,-23 3,-56 -85,-1 -124,47 -96,123zm2088 1627c44,-52 58,-57 49,-95 -17,-69 0,-12 -27,-38 -47,21 -24,17 -42,73l-80 -64c59,-46 56,31 82,-61 -168,-85 -197,200 18,185zm-676 -4160c33,-36 -22,-73 -56,-102 -114,-97 -9,-50 -51,-127 -37,2 -23,-18 -101,66 -90,96 7,39 63,80 0,0 41,39 42,41 11,9 35,33 47,41 55,38 52,5 56,1zm674 -661c47,-55 84,-70 24,-130 -34,15 -23,3 -36,41 -1,2 -1,6 -2,8 -17,69 23,-21 -4,22 -54,-26 -43,-27 -81,-66l39 -14c34,-13 -8,20 39,-16 0,0 8,-69 -70,-44 -106,33 -71,207 91,199zm-1124 1127c46,-54 79,-75 23,-142 -63,42 -21,40 -42,83 -46,-26 -48,-29 -79,-78 68,-38 -5,63 83,-32 -20,-28 -21,-23 -59,-40 -100,57 -100,126 -22,186 38,30 41,24 96,23zm599 2243c24,55 64,89 105,119 51,-18 55,-43 99,-82 -18,-53 -72,-96 -113,-117l-91 80zm-647 -2465c133,87 166,154 208,38 -50,-23 -39,0 -82,-40 -31,-28 -29,-33 -39,-83 -88,-3 -30,-30 -105,-6 -10,50 -5,12 18,91zm-1505 -1734l-13 -83 -73 -58c42,0 41,9 72,28l-2 -155 -20 39c-13,19 -3,10 -31,28 -27,18 -41,23 -64,39l-7 74 50 53c36,41 23,30 88,35zm2769 3699c6,-87 -163,-235 -201,-199 -35,33 103,207 201,199zm-5 -4820c14,-90 -122,-196 -193,-207 -2,59 -23,23 13,78 35,51 123,136 180,129zm-2370 2377c2,-67 -129,-217 -209,-193 -4,53 88,138 125,171 38,35 27,30 84,22zm-1099 -2386c103,73 49,73 105,62 7,-68 -42,5 -36,-128 93,27 36,43 118,53 -6,-54 -17,-51 -47,-82l-47 -62c-1,-2 -4,-6 -6,-9 -86,59 -40,43 -64,116l-9 19c-52,119 12,-76 -14,31zm3125 6994c86,-27 136,-65 95,-156l-98 -9 3 165zm-2733 -7396c34,61 28,35 96,29 -23,17 -36,15 -30,36 7,22 27,14 43,4 30,-22 19,-39 40,-62 23,-25 23,-5 43,-32 -24,-17 7,-30 -63,0 -3,2 -9,4 -11,5 -3,1 -8,4 -12,5 -20,-15 -15,-26 -50,-41 -49,22 -40,2 -56,56zm3465 3250c58,49 109,73 129,-39l-59 34c-2,1 -5,5 -7,6l-15 -47c35,-28 20,-20 17,-50 -64,10 -72,21 -65,96zm-699 584c28,50 86,133 149,96 -11,-42 -7,-6 -61,-75 -21,-28 16,-21 -38,-33 -22,-5 -44,4 -50,12zm-877 2307l108 44c-10,-56 -67,-112 -123,-124l-21 36c3,3 14,15 19,21 2,2 7,14 8,11 2,-3 6,8 9,12zm-2125 2112c44,-18 41,-12 51,-59 -25,-19 -50,-46 -80,-15 -35,34 14,62 29,74zm0 -4820c25,-13 8,0 28,-17 14,-11 16,-17 26,-28 -23,-34 -28,-56 -85,-31 -8,40 1,51 31,76zm3167 3789c-45,-37 -5,-27 -72,-30 -9,28 -28,46 9,65 41,22 51,-15 63,-35zm-532 -4326c-10,-27 -46,-69 -79,-85 -27,45 39,79 79,85zm-332 324c-10,-33 -23,-58 -56,-78 -15,-9 -3,-8 -25,-5 -2,30 33,73 81,83zm-1418 2748c-13,-50 -41,-74 -92,-89 20,44 45,79 92,89zm723 -724c-36,-47 -43,-45 -90,-87 -17,29 -5,31 19,54 26,24 30,35 71,33zm1725 -3055c22,-40 -40,-96 -76,-98 3,25 50,70 76,98zm-573 572c-8,-44 -50,-69 -86,-85 15,49 37,78 86,85zm-1753 3078c4,-51 -33,-73 -79,-90 11,40 53,81 79,90zm-524 -6003c-47,6 -5,-2 -42,10l-39 15c15,18 25,27 43,47l38 -72zm2861 7158c-13,-40 -42,-58 -79,-87 5,51 24,79 79,87zm-2795 -695c5,-51 -36,-76 -75,-90 17,59 42,51 75,90z"/>
   <path class="fil0" d="M16398 8694l-29 0c-20,31 -29,30 -29,73l58 -73zm6786 955c-33,-17 -74,-72 -84,-100l250 -169c215,-150 270,-206 394,-26 -15,65 -288,485 -342,518 -30,-37 -77,-67 -93,-115 -1,-45 188,-225 210,-308 -152,60 -253,244 -335,200zm-30 -670c112,-155 402,53 279,236 -264,391 -617,19 -332,-199 71,23 120,93 167,143 42,-24 120,-127 24,-111 -50,7 -62,47 -138,-69zm-301 -3624c-31,16 -6,13 -39,9l-70 -55c-43,-48 -47,-51 -17,-91 2,-2 41,-35 55,-41l85 83c49,56 27,41 14,68 100,-17 67,5 101,50 2,3 5,6 7,8 28,32 28,3 65,58l50 59c3,3 10,10 13,13l202 189c69,53 22,18 47,52 58,81 88,7 78,130 27,-10 32,-17 59,-5 -15,69 -37,18 -62,110 119,8 41,5 119,-40l154 152c-10,40 -41,81 -69,99 -19,11 -15,9 -44,16l-18 -84c-95,-37 -13,-65 -147,-104 -102,-30 -70,-61 -98,-121 -1,-3 -28,-46 -33,-51 -2,-2 -4,-6 -7,-8l-15 -12c-100,-75 -14,-34 -83,-85 -63,-46 -24,2 -65,-57 -64,-93 -91,-1 -54,-118 3,-10 15,14 7,-31 -6,-30 14,-6 -17,-24 -37,-21 -35,5 -112,11l-63 -73c-49,-39 -56,-33 -43,-107zm-14 3345c125,-105 188,-93 287,18 104,115 23,213 -52,288 -254,254 -491,-94 -306,-224 136,48 59,112 61,180 81,19 223,-125 208,-196 -77,-23 -45,9 -116,31 -38,-36 -57,-42 -82,-97zm-698 -2566c4,-66 -7,-26 30,-71 20,12 58,21 36,62 -20,37 -38,19 -66,9zm-9 -132c14,214 -271,185 -186,17 93,27 15,23 61,82l64 -80c-56,-18 -52,6 -73,-42 26,-27 -30,-10 38,-26 38,-10 43,5 96,49zm-318 -27c-51,-108 146,-225 188,-87 30,95 -129,215 -188,87zm-217 -214c-23,-51 91,-167 143,-143 46,43 -64,103 -78,146 60,-10 104,-134 148,-65 14,22 38,-33 0,43 -8,17 -16,19 -27,30 -24,25 -36,28 -47,62 60,-13 56,-93 138,-85 41,63 -59,129 -106,172l-171 -160zm-151 3259c-139,19 -172,-73 -108,-127 66,35 14,27 44,81l68 -78c-70,-40 68,16 -26,-4 -18,-4 -7,6 -25,-6 -32,-22 -15,11 -23,-48 62,-23 163,-16 125,127 75,-22 110,2 140,56 -5,74 -34,64 -58,124 58,-19 65,-45 130,-64 23,28 16,25 47,44 -17,77 -45,93 -81,153 -37,61 -42,101 -100,48 3,-68 45,-65 63,-125 -55,27 -57,49 -112,71l-46 -43c12,-40 1,-16 54,-39 -50,-52 -135,-61 -92,-170zm-121 -166c-19,23 -37,92 -105,92 -24,0 -9,21 -28,-15 -17,-32 8,-46 11,-102 71,-6 104,-31 108,-103 -201,214 -256,3 -176,-75 57,-55 115,-49 161,22l39 46c2,2 6,4 8,6l42 46c-20,65 -25,39 -60,83zm-343 -472c-111,264 -361,-18 -89,-100 50,25 72,37 89,100zm78 323c-80,-31 -3,-49 -120,-44 -55,3 -131,-109 -136,-119 42,-30 42,-8 74,-15 66,-16 110,-156 189,-96 -1,38 -24,53 -53,85 -18,19 -17,17 -35,34l-37 40c3,3 8,4 11,5l23 7c128,26 105,-50 169,-59 32,-5 6,-7 25,7 28,27 22,29 -35,87 -32,34 -38,41 -75,68zm-420 -471c37,-34 58,-82 127,-74 55,6 95,62 76,115 -32,84 -210,160 -203,-41zm-40 -1796c21,-42 64,-96 117,-114 39,44 65,48 82,100 -30,41 -64,80 -119,104l-80 -90zm270 197c-41,82 40,114 44,206 3,91 -43,140 -132,142 -132,3 -300,-215 -153,-279 143,90 12,115 111,154 8,-9 46,-2 -4,-110 -82,-179 46,-246 126,-238 118,12 273,181 142,301 -166,-127 0,-171 -134,-176zm-382 1511c18,-64 87,-108 126,-151 18,11 39,28 56,42 -30,36 -68,66 -91,114 102,-41 75,-118 132,-59 27,33 30,6 1,51l-111 108 -113 -105zm16 -56c-76,27 -124,-11 -122,-97 32,-18 1,-13 55,4 -13,-151 93,-103 121,-71 17,20 39,54 15,79 -31,33 -27,7 -64,-14 12,56 18,48 -5,99zm-236 -1961c109,-78 186,-102 288,20 38,46 68,92 48,154 -28,93 -222,331 -388,186 -91,-79 -135,-185 -17,-278 42,19 73,55 95,88 -15,33 -38,54 -31,103 66,14 95,-35 133,-73 128,-125 67,-149 12,-128 -50,20 4,16 -57,29 -33,-27 -66,-58 -83,-101zm97 1730c-43,24 -75,62 -134,33 -51,-26 -52,-63 -35,-124 30,7 48,10 57,35 12,31 -45,-19 1,44 35,-30 60,-42 69,-88 -31,7 -59,27 -67,-19 -10,-65 146,-73 126,97 66,-25 45,-25 93,4 -13,32 -13,27 -40,53 -44,-13 -6,-1 -39,-18l-31 -17zm-308 -157c-15,-43 27,-99 69,-117 49,-21 113,-6 129,51 26,99 -144,220 -198,66zm-213 -1621c-33,-107 124,-245 182,-276 133,-70 267,36 293,140 47,186 -366,490 -475,136zm174 1591c-27,-20 -62,-52 -92,-86 -13,-14 -11,-14 -19,-23l-66 -57c7,-58 82,-145 132,-146 99,-3 -55,122 -59,153 54,-14 70,-74 134,-98l25 36c-15,72 -49,50 -85,130 72,-31 55,-68 132,-91l34 34c-39,75 -99,94 -136,148zm-501 -1967c-87,6 -139,-24 -157,-80 -42,-122 279,-364 283,-366 177,96 61,153 -24,238 -88,89 -104,74 -92,144 65,3 106,-60 141,-96 24,-24 38,-37 61,-62 15,-15 13,-15 29,-29 31,-28 11,-10 38,-28 49,16 33,8 67,42 21,21 27,30 41,53 -27,60 -143,146 -190,197 -46,50 -36,109 22,76 1,-1 26,-23 29,-26 23,-21 39,-36 65,-60 59,-54 66,-93 133,-124 35,17 4,-2 37,24l68 80c-42,50 -108,106 -155,158l-159 152c-32,-13 -7,2 -45,-28 -105,-83 -69,-65 -48,-100 -115,-5 -140,-52 -144,-165zm72 3065c-63,7 -53,17 -85,-25 -86,-112 -37,-28 -96,-100 -3,-3 -10,-12 -13,-15l-12 -16c-18,-22 4,18 -19,-24 16,-44 34,-79 96,-81 -3,67 -30,31 -50,96 62,-24 27,-39 94,-52 13,27 -1,32 -16,55 86,-17 34,-23 79,17 147,129 5,82 62,199 28,-18 29,-23 52,-41 -34,-71 44,63 -25,-26 -16,-20 -5,24 -18,-30 103,14 36,43 148,123l74 67c2,2 5,5 7,7 2,2 5,5 7,7l164 167c60,56 23,0 70,67l19 25c3,3 11,11 14,14 8,9 14,11 24,25 -76,72 -68,45 -81,102 32,-8 61,-10 84,-19 55,-20 12,-19 58,-35 17,28 9,28 -1,54 78,-7 63,-1 100,48 66,4 -30,-26 43,-2 33,10 -9,23 68,114 116,139 118,47 99,162 158,-48 33,137 -17,155 -76,-43 51,-2 -69,-65 10,-101 18,-21 -29,-95 -20,-31 -105,-106 -142,-108 0,0 -25,3 -33,3 -1,-89 -9,-69 -15,-79l-66 -78c-76,-57 -126,9 -153,-101 -25,-106 26,40 -6,-32 -28,-63 -37,-16 -27,-90l-85 -16c-12,-59 -14,-28 4,-86 -83,42 -59,-11 -141,-71 -118,-86 61,-60 -24,-139 -60,-55 -159,93 -143,-81zm-656 -2498c-73,3 -83,-8 -86,-86 90,36 -12,16 61,41l34 -31c-12,-25 -34,-9 -49,-48 93,-11 114,57 57,105 66,-17 -2,-28 103,-24l0 103c173,-60 42,122 -7,152l-11 -42c0,-2 12,-38 13,-44 -59,24 -6,34 -78,20 2,-36 -2,-9 6,-24l23 -26c-4,-2 -9,-4 -12,-5l-44 -32c-18,-30 -10,-24 -10,-59zm-54 -193c37,62 -46,121 -96,149 -8,-7 -17,-29 -12,-51 12,-54 5,-17 33,-38 69,-53 33,-50 75,-60zm-368 1516c-21,-74 -1,-15 42,-122 -51,23 -68,45 -105,56l-35 -50c10,-13 195,-182 258,-113 30,49 -17,92 -50,147 -77,128 -70,96 -110,82zm-84 -182c-18,-20 -45,-46 -65,-65 6,-58 18,-74 43,-107 72,27 72,91 110,30 -54,-26 -47,20 -79,-42 108,-120 221,156 -9,184zm-81 2225c-20,-17 -64,-69 -70,-89 163,-104 334,-218 506,-329 56,33 119,92 152,148l-327 504c-55,-18 -98,-58 -119,-115 -1,-40 165,-190 189,-288 -84,33 -148,100 -213,150 -44,33 -65,63 -118,19zm-9 -659c61,-107 221,-53 285,62 93,163 -219,494 -408,271 -113,-133 14,-222 54,-304 69,27 6,-15 71,41 51,44 53,85 124,100 38,-27 52,-43 53,-98 -69,-11 -44,1 -95,20 -37,-25 -68,-53 -84,-92zm165 -3150c-98,31 -54,-29 -130,-80 -78,-52 -33,-30 -67,-69 -15,-17 -4,-5 -31,-25 -18,-13 -3,9 -32,-23 4,-117 19,33 25,-70 4,-76 -2,19 -26,-67 15,-7 32,-23 50,-4 31,33 7,-13 1,19l-15 31c79,-10 85,-7 91,69l-34 -28c-19,-13 10,-18 -29,-11 28,20 24,41 21,98 26,-45 20,-33 67,-65 37,23 44,50 73,79 51,51 96,26 69,112 68,-22 98,8 91,88 26,-9 30,-15 56,-1 -18,72 -36,22 -74,121 127,-22 49,-1 132,-49 42,24 1,2 28,26 54,50 56,14 69,55 8,79 -37,103 -111,89 -21,-37 6,-54 -89,-86 -3,-1 -7,-2 -10,-3 -61,-19 -82,-19 -103,-84 39,-21 31,1 79,-27 -24,-15 -13,0 -45,-4 -33,-4 13,25 -39,-11 -37,-25 -28,-46 -17,-80zm-65 1298c1,55 7,59 -22,97 -61,78 -130,77 -187,-23 17,-38 13,-39 40,-58 96,88 -5,15 32,83 49,-31 52,-34 78,-80 -43,-21 -41,21 -83,-42 67,-56 88,-22 142,23zm-183 -160c115,42 48,75 -38,208 -80,24 -41,29 -92,19 -24,-76 3,-18 6,-106 50,-9 55,-7 83,-38 40,-44 17,-33 41,-83zm-55 -1438c-75,7 -86,-1 -96,-66 30,-3 22,-18 50,17l47 -14c-1,-3 -4,-6 -6,-8l-34 -58c112,20 88,71 39,129zm-180 3173c109,-86 168,-119 287,17 100,114 25,213 -52,288 -76,74 -179,150 -296,46 -172,-153 -24,-260 -6,-284l92 88c-21,62 -35,10 -31,113 102,-7 217,-144 205,-204 -102,-28 -36,43 -126,19 -31,-8 -61,-53 -73,-83zm1 -1759c-64,18 -35,23 -77,-12l-39 -66c78,-28 35,25 103,-21 39,-27 39,-52 89,-54 20,32 15,42 12,78 311,-1 -78,410 -88,75zm139 -1575c-9,43 -13,73 -62,82 -51,10 -64,-27 -140,-104l-72 -75c10,-42 42,-87 89,-92 8,43 -8,60 -47,88 57,-3 39,-22 91,-41 1,3 2,8 2,9l5 16c10,23 0,-9 94,73 27,23 19,9 40,44zm-188 1310c4,4 37,0 -1,56 -8,11 -32,36 -41,46 -2,2 -41,42 -41,42 -40,56 16,153 -80,63 -84,-78 -64,-64 -66,-100 77,-43 30,63 127,-51 29,-35 66,-89 102,-56zm-22 1706c201,131 123,180 -9,308 -163,158 -7,59 -87,161 -26,33 -54,14 -82,20 -30,7 -56,46 -86,68 -41,-21 -85,-59 -107,-101 19,-45 2,-5 37,-43 79,-83 -29,-16 60,-159 74,-2 10,14 97,12 18,-26 98,-104 111,-128 51,-95 -63,-31 66,-138zm-547 70c-32,-102 111,-227 181,-271 122,-77 269,34 292,133 43,187 -356,504 -473,138zm164 -1974c-65,30 -64,4 -65,4 -3,-2 -93,-59 -70,-118 1,-4 80,-142 155,-81 -17,72 -72,57 -83,138 50,-40 205,-192 123,-4 117,-23 163,29 138,130 79,-14 134,2 143,97 -15,106 -233,162 -205,-32 -106,4 -144,-29 -136,-134zm-131 -272c-15,46 44,64 5,121 -32,48 -91,21 -113,-5 -20,-26 -25,-43 -11,-72l28 -33c69,-92 -9,-53 -29,-115 29,-27 22,-26 64,-26 26,41 15,19 -6,74 104,-11 166,47 117,121 -79,-51 12,-41 -55,-65zm-125 -205c8,163 -166,198 -199,91 -24,-78 44,-69 44,-69 36,46 3,4 16,38l14 39c39,-37 40,-27 66,-81 -43,-26 47,14 -22,-4 -2,0 -6,-1 -8,-1 -37,-13 -26,-2 -41,-37 61,-60 75,-22 130,24zm-320 -38c-44,-87 132,-213 186,-89 44,101 -114,231 -186,89zm-163 -155c-2,-2 -5,-5 -7,-7 -56,-56 -73,-69 25,-164 43,-41 43,-41 93,-11 -29,84 -79,75 -93,137 42,-14 70,-62 118,-91 33,17 24,17 51,39 -22,22 -36,38 -59,65 -4,5 -23,26 -25,29 -17,22 -11,1 -13,24 44,0 6,6 32,-18 12,-12 18,-22 33,-37 104,-97 133,41 -33,137l-122 -103zm-69 3515c16,-79 39,-52 67,-126 -62,21 -61,42 -115,74l-51 -44c36,-44 180,-141 243,-135l32 25c2,73 -105,210 -139,236l-37 -30zm-221 -298c-16,-23 -21,-22 -35,-45 -15,-27 -10,-31 -26,-58 -67,9 -158,61 -99,-58 52,-101 31,40 130,-145l60 36c-5,64 -11,36 -63,98 -15,18 -5,5 -19,27 3,2 8,3 11,5l67 48 51 -43c-85,-20 -24,-9 -76,-32 41,-35 94,-64 139,4 39,59 3,75 -19,127 57,-18 8,-31 70,-37 64,-6 138,86 44,168 -40,35 -85,53 -130,11 -54,-50 -17,-91 2,-138 -36,33 -39,34 -107,32zm-1117 508c17,-143 -26,-20 -52,-116 -16,-58 37,-84 81,-93 59,32 19,16 56,55 19,21 36,30 61,44l-39 97c29,30 -3,22 33,36 35,-40 -3,1 29,-24 -30,-93 42,66 -20,-26 -24,-35 -30,-24 -4,-35 14,-5 88,-12 65,88 113,-39 88,48 65,103 41,-11 127,-57 91,39 -6,16 -49,90 -87,107 -35,-48 7,-65 39,-108 -44,29 -54,54 -105,50 -3,-39 23,-54 23,-54 2,-2 11,-6 8,-8 -2,-1 6,-4 9,-7 -80,1 -105,-25 -72,-94 -72,21 -38,36 -88,-20 -53,-58 10,-19 -93,-34zm-388 -3429c-67,-165 290,-514 453,-190 91,181 -320,516 -453,190zm306 3093c-10,81 -26,24 -53,118 134,5 60,-44 128,-37 11,57 11,2 -62,106 -106,-27 88,38 -31,-15l-19 -9c-72,-23 -57,23 -116,-63 3,-3 7,-5 9,-7l62 -47c31,-30 28,-41 82,-46zm-183 -40c-91,8 -63,-12 -104,-61 -23,-27 -57,-38 -79,-77 -2,-15 35,-98 89,-86 21,49 -11,46 -42,99 37,-14 36,-24 69,-56 39,15 1,0 22,20l45 37c46,28 47,11 41,80l79 22c17,82 -22,115 -110,101l-10 -79zm-206 -165c-54,-16 -34,-8 -56,-56 15,-36 27,-30 41,-50 -1,-5 -3,-10 -5,-12 -1,-3 -3,-8 -5,-12 -29,-70 -17,-39 0,-62 27,20 7,19 32,42 23,21 40,10 62,41 11,15 19,35 -4,42 -21,6 -19,-7 -36,-30 7,68 32,62 -29,97zm-253 -3287c-102,5 -246,-76 -99,-232 46,-48 183,-192 227,-217 41,30 57,54 104,96 -25,55 -62,76 -113,130 -29,30 -32,33 -64,61 -31,27 -43,41 -46,94 83,-4 53,-3 157,-108 43,-43 82,-91 132,-116l90 106c-39,70 -211,191 -228,265 19,10 23,13 37,25 82,-50 172,-185 250,-233 46,32 76,55 100,96 -20,57 -182,200 -235,253 -39,39 -34,53 -87,72 -131,-97 -86,-108 -78,-129 -116,-3 -144,-53 -147,-163zm4343 8883l476 0c106,-53 242,-18 506,-177 331,-197 460,-417 606,-770 142,-345 49,-792 -117,-1114 -77,-152 -173,-323 -158,-536 12,-181 122,-350 269,-424 193,-98 416,-74 625,-53 418,40 771,138 1158,215 388,77 799,313 1113,206 304,-104 336,-606 434,-942 52,-180 82,-381 122,-572 27,-134 48,-537 84,-617l0 -582c-15,-47 6,-423 -216,-654 -124,-130 -411,-276 -617,-256 -162,16 -294,106 -403,176 -34,138 -215,203 -229,294 -23,155 -40,48 -126,104 -31,20 -29,30 -62,50 -188,-101 -45,-123 -26,-209l-74 -23c-71,-19 -314,-6 -557,-70 -446,-118 -762,-573 -802,-1032l-29 -83c-12,-147 57,-183 -33,-299 -27,-35 -213,-79 -109,-220 26,-36 90,-87 126,-125 35,-36 81,-89 129,-123 62,24 27,48 98,45 23,-14 82,-123 167,-207 139,-137 276,-232 477,-276 64,-14 254,-52 309,-52l9 -99c91,-40 129,10 156,95 561,4 646,468 1166,364 90,-18 200,-63 271,-117l67 -51c10,-54 -25,-25 26,-46 -2,-1 -5,-2 -6,-2l-25 0c-6,1 -49,12 -59,14 31,-56 4,-10 33,-46l24 -26c-73,5 -87,-8 -88,-81 -61,2 -101,-8 -76,-75 20,-2 53,26 49,28 -2,0 5,4 8,5 1,-2 16,-32 21,-39 -2,-1 -6,-2 -6,-2l-19 -9c-17,-15 -11,-5 -19,-31 64,-4 50,-16 82,27 110,146 114,33 58,176 113,-57 60,-37 126,-16 69,-48 127,-246 153,-338 15,-54 3,-85 26,-134l0 -711c-21,-49 -60,-496 -79,-606 -34,-195 -73,-388 -120,-573 -80,-316 -146,-863 -427,-949 -332,-101 -787,137 -1116,202 -490,97 -968,237 -1494,230 -161,-2 -131,7 -217,-35 -25,-12 -48,-16 -74,-25 -149,-50 -262,-217 -287,-407 -63,-474 254,-567 327,-1035 63,-404 -38,-753 -272,-1075 -333,-455 -743,-449 -878,-509l-452 0c-34,14 -102,15 -147,27 -142,36 -242,67 -371,144 -169,101 -272,195 -371,323 -231,302 -341,651 -293,1040 69,562 675,1125 44,1475 -45,25 -214,73 -272,75 -550,17 -984,-101 -1503,-219 -100,-23 -186,-37 -282,-68 -243,-80 -572,-232 -833,-150 -306,96 -348,615 -434,953 -47,184 -90,385 -122,576 -18,112 -52,547 -77,605l0 711 16 63c40,227 124,431 318,556 61,40 69,51 148,88 153,71 418,117 556,13l20 -45c-42,-29 -42,-12 -86,-56 -105,-104 -87,-182 0,-266 44,19 68,47 95,86 -22,62 -49,29 -30,100 83,24 203,-118 204,-202 -110,-6 -34,11 -117,34l-82 -85c92,-217 448,53 310,192l28 26c159,-11 169,-171 802,-67 292,48 464,158 615,330 297,341 410,816 256,1267 -18,53 -59,111 -62,167 23,5 100,-86 122,-108 42,29 86,63 102,110l-312 312c-48,-21 -44,-42 -98,-41l-144 125c-250,211 -409,157 -586,222 -5,64 5,51 -36,88l-53 50 -74 -7c-16,-23 -21,-38 -39,-65 -18,-28 -9,-17 -28,-31l-38 -20c-351,-2 -518,-195 -761,-318 -148,-75 -270,-77 -444,-34 -110,28 -287,132 -336,186 31,40 8,13 33,31l-45 49c-15,19 -19,17 -26,45 66,-65 49,-57 94,-66 6,14 6,35 7,37 18,42 14,-9 76,60l36 35c126,97 -32,151 -57,137 -14,-17 -11,-27 -23,-46 -52,-83 -90,-1 -81,-121 -78,28 -38,-8 -118,-43 -38,30 -87,154 -105,222 -13,48 -28,83 -36,133 -9,51 -3,106 -21,146l0 556c10,25 58,550 70,635 25,193 75,392 116,578 42,188 93,385 154,555 137,376 162,634 828,411 409,-138 1305,-337 1711,-371 68,-5 386,-18 451,-1 54,15 4,7 53,27 49,19 85,11 132,36 145,77 289,207 311,380 45,353 -287,668 -341,1039 -67,457 65,781 270,1078 189,275 485,429 807,498 11,2 24,5 35,8l35 12zm478 -8885c4,113 29,160 144,165 -21,35 -57,17 48,100 38,30 13,15 45,28l159 -152c47,-52 113,-108 155,-158l-68 -80c-33,-26 -2,-7 -37,-24 -67,31 -74,70 -133,124 -26,24 -42,39 -65,60 -3,3 -28,25 -29,26 -58,33 -68,-26 -22,-76 47,-51 163,-137 190,-197 -14,-23 -20,-32 -41,-53 -34,-34 -18,-26 -67,-42 -27,18 -7,0 -38,28 -16,14 -14,14 -29,29 -23,25 -37,38 -61,62 -35,36 -76,99 -141,96 -12,-70 4,-55 92,-144 85,-85 201,-142 24,-238 -4,2 -325,244 -283,366 18,56 70,86 157,80zm-4821 2c3,110 31,160 147,163 -8,21 -53,32 78,129 53,-19 48,-33 87,-72 53,-53 215,-196 235,-253 -24,-41 -54,-64 -100,-96 -78,48 -168,183 -250,233 -14,-12 -18,-15 -37,-25 17,-74 189,-195 228,-265l-90 -106c-50,25 -89,73 -132,116 -104,105 -74,104 -157,108 3,-53 15,-67 46,-94 32,-28 35,-31 64,-61 51,-54 88,-75 113,-130 -47,-42 -63,-66 -104,-96 -44,25 -181,169 -227,217 -147,156 -3,237 99,232zm4893 3063c-16,174 83,26 143,81 85,79 -94,53 24,139 82,60 58,113 141,71 -18,58 -16,27 -4,86l85 16c-10,74 -1,27 27,90 32,72 -19,-74 6,32 27,110 77,44 153,101l66 78c6,10 14,-10 15,79 8,0 33,-3 33,-3 37,2 122,77 142,108 47,74 39,-6 29,95 120,63 -7,22 69,65 50,-18 175,-203 17,-155 19,-115 17,-23 -99,-162 -77,-91 -35,-104 -68,-114 -73,-24 23,6 -43,2 -37,-49 -22,-55 -100,-48 10,-26 18,-26 1,-54 -46,16 -3,15 -58,35 -23,9 -52,11 -84,19 13,-57 5,-30 81,-102 -10,-14 -16,-16 -24,-25 -3,-3 -11,-11 -14,-14l-19 -25c-47,-67 -10,-11 -70,-67l-164 -167c-2,-2 -5,-5 -7,-7 -2,-2 -5,-5 -7,-7l-74 -67c-112,-80 -45,-109 -148,-123 13,54 2,10 18,30 69,89 -9,-45 25,26 -23,18 -24,23 -52,41 -57,-117 85,-70 -62,-199 -45,-40 7,-34 -79,-17 15,-23 29,-28 16,-55 -67,13 -32,28 -94,52 20,-65 47,-29 50,-96 -62,2 -80,37 -96,81 23,42 1,2 19,24l12 16c3,3 10,12 13,15 59,72 10,-12 96,100 32,42 22,32 85,25zm-912 699c-24,98 -190,248 -189,288 21,57 64,97 119,115l327 -504c-33,-56 -96,-115 -152,-148 -172,111 -343,225 -506,329 6,20 50,72 70,89 53,44 74,14 118,-19 65,-50 129,-117 213,-150zm4842 -20c-22,83 -211,263 -210,308 16,48 63,78 93,115 54,-33 327,-453 342,-518 -124,-180 -179,-124 -394,26l-250 169c10,28 51,83 84,100 82,44 183,-140 335,-200zm-666 -4094c-13,74 -6,68 43,107l63 73c77,-6 75,-32 112,-11 31,18 11,-6 17,24 8,45 -4,21 -7,31 -37,117 -10,25 54,118 41,59 2,11 65,57 69,51 -17,10 83,85l15 12c3,2 5,6 7,8 5,5 32,48 33,51 28,60 -4,91 98,121 134,39 52,67 147,104l18 84c29,-7 25,-5 44,-16 28,-18 59,-59 69,-99l-154 -152c-78,45 0,48 -119,40 25,-92 47,-41 62,-110 -27,-12 -32,-5 -59,5 10,-123 -20,-49 -78,-130 -25,-34 22,1 -47,-52l-202 -189c-3,-3 -10,-10 -13,-13l-50 -59c-37,-55 -37,-26 -65,-58 -2,-2 -5,-5 -7,-8 -34,-45 -1,-67 -101,-50 13,-27 35,-12 -14,-68l-85 -83c-14,6 -53,39 -55,41 -30,40 -26,43 17,91l70 55c33,4 8,7 39,-9zm-2673 557c9,97 -166,235 -199,201 -36,-39 112,-207 199,-201zm-336 169c109,354 522,50 475,-136 -26,-104 -160,-210 -293,-140 -58,31 -215,169 -182,276zm-2300 2415c-24,-80 126,-211 193,-210 8,58 13,47 -22,85 -33,36 -117,128 -171,125zm-142 -42c117,366 516,49 473,-138 -23,-99 -170,-210 -292,-133 -70,44 -213,169 -181,271zm-2248 -2345c10,-70 116,-206 206,-193 7,58 -77,145 -129,180 -55,37 -19,15 -77,13zm-122 -3c133,326 544,-9 453,-190 -163,-324 -520,25 -453,190zm3334 3095c16,20 3,3 16,28 -25,30 -36,39 -76,31 -25,-57 -3,-61 32,-84 10,9 16,11 28,25zm-29 -222c16,39 47,67 84,92 51,-19 26,-31 95,-20 -1,55 -15,71 -53,98 -71,-15 -73,-56 -124,-100 -65,-56 -2,-14 -71,-41 -40,82 -167,171 -54,304 189,223 501,-108 408,-271 -64,-115 -224,-169 -285,-62zm4806 199c48,10 41,8 59,51 -12,15 -40,64 -74,30 -30,-31 -4,-56 15,-81zm11 -199c76,116 88,76 138,69 96,-16 18,87 -24,111 -47,-50 -96,-120 -167,-143 -285,218 68,590 332,199 123,-183 -167,-391 -279,-236zm-2886 -2850c17,43 50,74 83,101 61,-13 7,-9 57,-29 55,-21 116,3 -12,128 -38,38 -67,87 -133,73 -7,-49 16,-70 31,-103 -22,-33 -53,-69 -95,-88 -118,93 -74,199 17,278 166,145 360,-93 388,-186 20,-62 -10,-108 -48,-154 -102,-122 -179,-98 -288,-20zm-2249 2573c12,30 42,75 73,83 90,24 24,-47 126,-19 12,60 -103,197 -205,204 -4,-103 10,-51 31,-113l-92 -88c-18,24 -166,131 6,284 117,104 220,28 296,-46 77,-75 152,-174 52,-288 -119,-136 -178,-103 -287,-17zm2851 -2067c134,5 -32,49 134,176 131,-120 -24,-289 -142,-301 -80,-8 -208,59 -126,238 50,108 12,101 4,110 -99,-39 32,-64 -111,-154 -147,64 21,282 153,279 89,-2 135,-51 132,-142 -4,-92 -85,-124 -44,-206zm-5425 -55l342 -216 -28 -26c138,-139 -218,-409 -310,-192l82 85c83,-23 7,-40 117,-34 -1,84 -121,226 -204,202 -19,-71 8,-38 30,-100 -27,-39 -51,-67 -95,-86 -87,84 -105,162 0,266 44,44 44,27 86,56l-20 45zm7394 2120c25,55 44,61 82,97 71,-22 39,-54 116,-31 15,71 -127,215 -208,196 -2,-68 75,-132 -61,-180 -185,130 52,478 306,224 75,-75 156,-173 52,-288 -99,-111 -162,-123 -287,-18zm-5154 241c30,-22 56,-61 86,-68 28,-6 56,13 82,-20 80,-102 -76,-3 87,-161 132,-128 210,-177 9,-308 -129,107 -15,43 -66,138 -13,24 -93,102 -111,128 -87,2 -23,-14 -97,-12 -89,143 19,76 -60,159 -35,38 -18,-2 -37,43 22,42 66,80 107,101zm3360 -1337c-4,-97 -5,-166 2,-264 8,-96 33,-147 44,-236 -5,3 -16,8 -13,9 3,2 -9,6 -11,8 -6,6 -18,16 -21,20l-36 -22c12,-56 68,-113 124,-123 25,-40 79,-157 93,-197 -71,3 -36,-21 -98,-45 -48,34 -94,87 -129,123 -36,38 -100,89 -126,125 -104,141 82,185 109,220 90,116 21,152 33,299l29 83zm401 1416c-43,109 42,118 92,170 -53,23 -42,-1 -54,39l46 43c55,-22 57,-44 112,-71 -18,60 -60,57 -63,125 58,53 63,13 100,-48 36,-60 64,-76 81,-153 -31,-19 -24,-16 -47,-44 -65,19 -72,45 -130,64 24,-60 53,-50 58,-124 -30,-54 -65,-78 -140,-56 38,-143 -63,-150 -125,-127 8,59 -9,26 23,48 18,12 7,2 25,6 94,20 -44,-36 26,4l-68 78c-30,-54 22,-46 -44,-81 -64,54 -31,146 108,127zm-3686 -2346c16,-34 58,-69 85,-79 -6,39 -40,105 -85,79zm-135 -119c17,-36 41,-78 85,-86 -7,49 -36,71 -85,86zm-59 -75c-8,105 30,138 136,134 -28,194 190,138 205,32 -9,-95 -64,-111 -143,-97 25,-101 -21,-153 -138,-130 82,-188 -73,-36 -123,4 11,-81 66,-66 83,-138 -75,-61 -154,77 -155,81 -23,59 67,116 70,118 1,0 0,26 65,-4zm936 -651c-11,34 -20,55 17,80 52,36 6,7 39,11 32,4 21,-11 45,4 -48,28 -40,6 -79,27 21,65 42,65 103,84 3,1 7,2 10,3 95,32 68,49 89,86 74,14 119,-10 111,-89 -13,-41 -15,-5 -69,-55 -27,-24 14,-2 -28,-26 -83,48 -5,27 -132,49 38,-99 56,-49 74,-121 -26,-14 -30,-8 -56,1 7,-80 -23,-110 -91,-88 27,-86 -18,-61 -69,-112 -29,-29 -36,-56 -73,-79 -47,32 -41,20 -67,65 3,-57 7,-78 -21,-98 39,-7 10,-2 29,11l34 28c-6,-76 -12,-79 -91,-69l15 -31c6,-32 30,14 -1,-19 -18,-19 -35,-3 -50,4 24,86 30,-9 26,67 -6,103 -21,-47 -25,70 29,32 14,10 32,23 27,20 16,8 31,25 34,39 -11,17 67,69 76,51 32,111 130,80zm-2026 3095c16,27 11,31 26,58 14,23 19,22 35,45 68,2 71,1 107,-32 -19,47 -56,88 -2,138 45,42 90,24 130,-11 94,-82 20,-174 -44,-168 -62,6 -13,19 -70,37 22,-52 58,-68 19,-127 -45,-68 -98,-39 -139,-4 52,23 -9,12 76,32l-51 43 -67 -48c-3,-2 -8,-3 -11,-5 14,-22 4,-9 19,-27 52,-62 58,-34 63,-98l-60 -36c-99,185 -78,44 -130,145 -59,119 32,67 99,58zm6445 -434c-145,83 -188,135 -368,176l-149 40 74 23c-19,86 -162,108 26,209 33,-20 31,-30 62,-50 86,-56 103,51 126,-104 14,-91 195,-156 229,-294zm-5523 -429c-45,34 -24,18 -51,68 -17,33 -21,35 -42,67 -58,91 -73,84 -93,138 54,-1 50,20 98,41l312 -312c-16,-47 -60,-81 -102,-110 -22,22 -99,113 -122,108zm-1978 1474c103,15 40,-24 93,34 50,56 16,41 88,20 -33,69 -8,95 72,94 -3,3 -11,6 -9,7 3,2 -6,6 -8,8 0,0 -26,15 -23,54 51,4 61,-21 105,-50 -32,43 -74,60 -39,108 38,-17 81,-91 87,-107 36,-96 -50,-50 -91,-39 23,-55 48,-142 -65,-103 23,-100 -51,-93 -65,-88 -26,11 -20,0 4,35 62,92 -10,-67 20,26 -32,25 6,-16 -29,24 -36,-14 -4,-6 -33,-36l39 -97c-25,-14 -42,-23 -61,-44 -37,-39 3,-23 -56,-55 -44,9 -97,35 -81,93 26,96 69,-27 52,116zm5829 -855c-39,33 -32,58 -91,76 14,-39 39,-81 91,-76zm62 46c-4,72 -37,97 -108,103 -3,56 -28,70 -11,102 19,36 4,15 28,15 68,0 86,-69 105,-92 35,-44 40,-18 60,-83l-42 -46c-2,-2 -6,-4 -8,-6l-39 -46c-46,-71 -104,-77 -161,-22 -80,78 -25,289 176,75zm-3220 -1744c21,-33 45,-46 78,-55 -10,48 -52,83 -83,80 -3,-21 -4,-10 5,-25zm-71 -39c10,335 399,-76 88,-75 3,-36 8,-46 -12,-78 -50,2 -50,27 -89,54 -68,46 -25,-7 -103,21l39 66c42,35 13,30 77,12zm1998 729c37,-54 97,-73 136,-148l-34 -34c-77,23 -60,60 -132,91 36,-80 70,-58 85,-130l-25 -36c-64,24 -80,84 -134,98 4,-31 158,-156 59,-153 -50,1 -125,88 -132,146l66 57c8,9 6,9 19,23 30,34 65,66 92,86zm1750 -1751c47,-43 147,-109 106,-172 -82,-8 -78,72 -138,85 11,-34 23,-37 47,-62 11,-11 19,-13 27,-30 38,-76 14,-21 0,-43 -44,-69 -88,55 -148,65 14,-43 124,-103 78,-146 -52,-24 -166,92 -143,143l171 160zm-4819 -8c166,-96 137,-234 33,-137 -15,15 -21,25 -33,37 -26,24 12,18 -32,18 2,-23 -4,-2 13,-24 2,-3 21,-24 25,-29 23,-27 37,-43 59,-65 -27,-22 -18,-22 -51,-39 -48,29 -76,77 -118,91 14,-62 64,-53 93,-137 -50,-30 -50,-30 -93,11 -98,95 -81,108 -25,164 2,2 5,5 7,7l122 103zm4111 2792c37,-27 43,-34 75,-68 57,-58 63,-60 35,-87 -19,-14 7,-12 -25,-7 -64,9 -41,85 -169,59l-23 -7c-3,-1 -8,-2 -11,-5l37 -40c18,-17 17,-15 35,-34 29,-32 52,-47 53,-85 -79,-60 -123,80 -189,96 -32,7 -32,-15 -74,15 5,10 81,122 136,119 117,-5 40,13 120,44zm-6203 80c-20,18 -29,27 -47,43l-15 -39c-12,-38 -3,4 -10,-43l72 39zm-184 -255c-36,17 -29,12 -59,45 -22,24 -29,37 -45,73 80,35 40,71 118,43 -9,120 29,38 81,121 12,19 9,29 23,46 25,14 183,-40 57,-137l-36 -35c-62,-69 -58,-18 -76,-60 -1,-2 -1,-23 -7,-37 -45,9 -28,1 -94,66 7,-28 11,-26 26,-45l45 -49c-25,-18 -2,9 -33,-31zm482 629l10 79c88,14 127,-19 110,-101l-79 -22c6,-69 5,-52 -41,-80l-45 -37c-21,-20 17,-5 -22,-20 -33,32 -32,42 -69,56 31,-53 63,-50 42,-99 -54,-12 -91,71 -89,86 22,39 56,50 79,77 41,49 13,69 104,61zm3778 -2887c0,35 -8,29 10,59l44 32c3,1 8,3 12,5l-23 26c-8,15 -4,-12 -6,24 72,14 19,4 78,-20 -1,6 -13,42 -13,44l11 42c49,-30 180,-212 7,-152l0 -103c-105,-4 -37,7 -103,24 57,-48 36,-116 -57,-105 15,39 37,23 49,48l-34 31c-73,-25 29,-5 -61,-41 3,78 13,89 86,86zm4916 184c57,-22 42,-17 79,-53 45,-44 30,-10 50,-70 -66,-21 -13,-41 -126,16 56,-143 52,-30 -58,-176 -32,-43 -18,-31 -82,-27 8,26 2,16 19,31l19 9c0,0 4,1 6,2 -5,7 -20,37 -21,39 -3,-1 -10,-5 -8,-5 4,-2 -29,-30 -49,-28 -25,67 15,77 76,75 1,73 15,86 88,81l-24 26c-29,36 -2,-10 -33,46 10,-2 53,-13 59,-14l25 0c1,0 4,1 6,2 -51,21 -16,-8 -26,46zm-5401 1073c37,-11 54,-33 105,-56 -43,107 -63,48 -42,122 40,14 33,46 110,-82 33,-55 80,-98 50,-147 -63,-69 -248,100 -258,113l35 50zm-289 -2161c-21,-35 -13,-21 -40,-44 -94,-82 -84,-50 -94,-73l-5 -16c0,-1 -1,-6 -2,-9 -52,19 -34,38 -91,41 39,-28 55,-45 47,-88 -47,5 -79,50 -89,92l72 75c76,77 89,114 140,104 49,-9 53,-39 62,-82zm-1449 3905c54,-32 53,-53 115,-74 -28,74 -51,47 -67,126l37 30c34,-26 141,-163 139,-236l-32 -25c-63,-6 -207,91 -243,135l51 44zm3891 -1022l111 -108c29,-45 26,-18 -1,-51 -57,-59 -30,18 -132,59 23,-48 61,-78 91,-114 -17,-14 -38,-31 -56,-42 -39,43 -108,87 -126,151l113 105zm-236 -392l31 17c33,17 -5,5 39,18 27,-26 27,-21 40,-53 -48,-29 -27,-29 -93,-4 20,-170 -136,-162 -126,-97 8,46 36,26 67,19 -9,46 -34,58 -69,88 -46,-63 11,-13 -1,-44 -9,-25 -27,-28 -57,-35 -17,61 -16,98 35,124 59,29 91,-9 134,-33zm-2930 -1651c67,24 -24,14 55,65 49,-74 -13,-132 -117,-121 21,-55 32,-33 6,-74 -42,0 -35,-1 -64,26 20,62 98,23 29,115l-28 33c-14,29 -9,46 11,72 22,26 81,53 113,5 39,-57 -20,-75 -5,-121zm3263 2093c17,-46 39,-83 90,-79 -9,26 -50,69 -90,79zm-58 -67c-7,201 171,125 203,41 19,-53 -21,-109 -76,-115 -69,-8 -90,40 -127,74zm1216 -2269c29,-37 47,-66 87,-80 -8,55 -36,74 -87,80zm-42 10c59,128 218,8 188,-87 -42,-138 -239,-21 -188,87zm-897 2369c-10,47 -45,72 -89,92 15,-51 39,-78 89,-92zm65 38c-17,-63 -39,-75 -89,-100 -272,82 -22,364 89,100zm-2555 -969c230,-28 117,-304 9,-184 32,62 25,16 79,42 -38,61 -38,-3 -110,-30 -25,33 -37,49 -43,107 20,19 47,45 65,65zm-1387 -1441c2,-35 58,-97 98,-76 -28,26 -73,73 -98,76zm-50 -7c72,142 230,12 186,-89 -54,-124 -230,2 -186,89zm3116 1746c42,-47 40,-53 87,-90 2,41 -9,46 -33,71 -23,24 -25,37 -54,19zm-49 -9c54,154 224,33 198,-66 -16,-57 -80,-72 -129,-51 -42,18 -84,74 -69,117zm447 388c23,-51 17,-43 5,-99 37,21 33,47 64,14 24,-25 2,-59 -15,-79 -28,-32 -134,-80 -121,71 -54,-17 -23,-22 -55,-4 -2,86 46,124 122,97zm1628 -2088c-53,-44 -58,-59 -96,-49 -68,16 -12,-1 -38,26 21,48 17,24 73,42l-64 80c-46,-59 32,-55 -61,-82 -85,168 200,197 186,-17zm-4161 676c-36,-33 -73,21 -102,56 -97,114 -50,8 -127,51 2,36 -18,22 66,100 96,90 40,-7 80,-63 0,0 39,-40 41,-42 9,-10 33,-35 41,-46 38,-56 5,-52 1,-56zm-661 -675c-55,-46 -69,-84 -130,-24 15,35 4,24 41,37 2,0 6,1 8,1 69,18 -21,-22 22,4 -26,54 -27,44 -66,81l-14 -39c-13,-34 20,8 -16,-38 0,0 -68,-9 -44,69 33,107 207,72 199,-91zm1127 1124c-54,-45 -75,-79 -142,-23 42,63 40,21 83,42 -26,46 -29,49 -78,80 -37,-68 64,5 -32,-83 -27,19 -23,20 -40,58 57,100 126,101 187,23 29,-38 23,-42 22,-97zm2243 -599c55,-24 89,-63 119,-104 -17,-52 -43,-56 -82,-100 -53,18 -96,72 -117,114l80 90zm-2464 647c86,-133 153,-166 38,-208 -24,50 -1,39 -41,83 -28,31 -33,29 -83,38 -3,88 -30,30 -6,106 51,10 12,5 92,-19zm-1734 1506l-84 13 -58 73c0,-43 9,-42 29,-73l-155 2 38 20c19,14 10,3 28,31 18,27 23,42 39,65l74 7 53 -50c41,-37 31,-24 36,-88zm3698 -2769c-87,-6 -235,162 -199,201 33,34 208,-104 199,-201zm-4820 4c-90,-13 -196,123 -206,193 58,2 22,24 77,-13 52,-35 136,-122 129,-180zm2377 2370c-67,-1 -217,130 -193,210 54,3 138,-89 171,-125 35,-38 30,-27 22,-85zm-2386 1100c73,-104 73,-49 62,-106 -68,-7 6,42 -128,37 27,-94 43,-37 53,-118 -54,5 -51,16 -82,46l-62 47c-2,2 -6,4 -9,7 59,86 44,40 116,63l19 9c119,53 -75,-12 31,15zm6994 -3126c-27,-85 -65,-135 -156,-95l-9 99 165 -4zm-7396 2734c61,-35 36,-29 29,-97 17,23 15,36 36,30 23,-7 15,-27 4,-42 -22,-31 -39,-20 -62,-41 -25,-23 -5,-22 -32,-42 -17,23 -29,-8 0,62 2,4 4,9 5,12 2,2 4,7 5,12 -14,20 -26,14 -41,50 22,48 2,40 56,56zm3250 -3465c49,-58 73,-109 -39,-129l34 58c2,2 5,5 6,8l-47 14c-28,-35 -20,-20 -50,-17 10,65 21,73 96,66zm584 699c50,-28 133,-87 96,-149 -42,10 -6,7 -75,60 -28,21 -21,-16 -33,38 -5,22 4,44 12,51zm2308 876l43 -108c-56,10 -112,67 -124,123l36 22c3,-4 15,-14 21,-20 2,-2 14,-6 11,-8 -3,-1 8,-6 13,-9zm2111 2125c-18,-43 -11,-41 -59,-51 -19,25 -45,50 -15,81 34,34 62,-15 74,-30zm-4820 0c-13,-25 0,-8 -16,-28 -12,-14 -18,-16 -28,-25 -35,23 -57,27 -32,84 40,8 51,-1 76,-31zm3789 -3166c-37,45 -26,5 -30,71 28,10 46,28 66,-9 22,-41 -16,-50 -36,-62zm-4326 532c-27,10 -69,45 -85,79 45,26 79,-40 85,-79zm324 332c-33,9 -57,22 -78,55 -9,15 -8,4 -5,25 31,3 73,-32 83,-80zm2748 1417c-50,14 -74,41 -89,92 44,-20 79,-45 89,-92zm-724 -723c-47,37 -45,43 -87,90 29,18 31,5 54,-19 24,-25 35,-30 33,-71zm-3055 -1725c-40,-21 -96,41 -98,76 25,-3 70,-50 98,-76zm572 573c-44,8 -68,50 -85,86 49,-15 78,-37 85,-86zm3078 1753c-51,-4 -73,33 -90,79 40,-10 81,-53 90,-79zm-6003 524c7,47 -2,5 10,43l15 39c18,-16 27,-25 47,-43l-72 -39zm7158 -2861c-40,14 -58,43 -87,80 51,-6 79,-25 87,-80zm-694 2795c-52,-5 -77,37 -91,76 59,-18 52,-43 91,-76z"/>
  </g>
 </g>
</svg>
