<?xml version="1.0" encoding="UTF-8"?>
<!DOCTYPE svg PUBLIC "-//W3C//DTD SVG 1.1//EN" "http://www.w3.org/Graphics/SVG/1.1/DTD/svg11.dtd">
<!-- Creator: CorelDRAW X7 -->
<svg xmlns="http://www.w3.org/2000/svg" xml:space="preserve" width="100%" height="100%" version="1.1" style="shape-rendering:geometricPrecision; text-rendering:geometricPrecision; image-rendering:optimizeQuality; fill-rule:evenodd; clip-rule:evenodd"
viewBox="0 0 34839 62739"
 xmlns:xlink="http://www.w3.org/1999/xlink">
 <defs>
  <style type="text/css">
   <![CDATA[
    .fil0 {fill:#562e1c}
    .fil1 {fill:#562e1c}
    .fil2 {fill:#562e1c}
   ]]>
  </style>
 </defs>
 <g id="Layer_x0020_1">
  <metadata id="CorelCorpID_0Corel-Layer"/>
  <path class="fil0" d="M1279 38718c-88,42 -85,-17 -136,127 -87,246 140,450 380,343 263,-118 135,-648 -244,-470z"/>
  <path class="fil0" d="M17319 31635l201 -93c-1,-129 -35,-362 -84,-438 -47,100 -4,170 -30,295 -19,95 -69,138 -87,236z"/>
  <g id="_908459740624">
   <path class="fil1" d="M4163 29453c193,-380 572,-209 1594,-207 8704,18 18520,152 26957,-8l-21 -854 -13503 -23c-324,-83 -194,-60 -332,-183l57 -12152 -1084 1 -1 12188 -13684 41c5,-3057 -417,-5920 977,-8223 2865,-4732 9063,-4336 14068,-4336 3097,0 5621,-214 8425,829 6705,2493 5557,7360 5557,12851 0,6200 0,12400 0,18600 0,2624 388,6306 -732,8378 -1002,1853 -2885,3217 -5249,4048 -2921,1026 -14110,1020 -17041,9 -2396,-825 -4183,-2170 -5195,-3958 -1249,-2207 -809,-5712 -809,-8477 0,-4942 -194,-14123 16,-18524zm-4163 -28691l0 679c1433,1527 4032,2810 6938,2762 3125,-53 5185,-1453 7892,-1752 4273,-472 6264,3649 4228,8333 -592,1362 -1408,1935 -629,3218 -3227,207 -5638,-289 -8706,743 -2472,832 -4440,2189 -5624,3820 -1819,2505 -1619,4314 -1619,7859 0,4021 -171,26011 70,28035 315,2636 2133,4731 3630,5792 3328,2358 5363,1888 6778,2488l11426 0c646,-273 2580,-483 3680,-879 2205,-794 4120,-2119 5415,-4024 961,-1413 751,-2063 1360,-3345l0 -32329c-705,-1357 -690,-4241 -5146,-6536 -3482,-1792 -5760,-1511 -9928,-1608 1284,-2365 2603,-4769 2220,-7961 -321,-2670 -2298,-4810 -4522,-5515 -5487,-1739 -9454,4610 -16111,-542l-601 0c-301,274 -504,469 -751,762z"/>
   <path class="fil2" d="M4163 29453c1423,-177 18554,-47 21523,-47 1418,0 6130,177 7168,-89l17 -1041 -14013 -98c138,123 8,100 332,183l13503 23 21 854c-8437,160 -18253,26 -26957,8 -1022,-2 -1401,-173 -1594,207z"/>
  </g>
 </g>
</svg>
