<?xml version="1.0" encoding="UTF-8"?>
<!DOCTYPE svg PUBLIC "-//W3C//DTD SVG 1.1//EN" "http://www.w3.org/Graphics/SVG/1.1/DTD/svg11.dtd">
<!-- Creator: CorelDRAW X7 -->
<svg xmlns="http://www.w3.org/2000/svg" xml:space="preserve" width="100%" height="100%" version="1.1" style="shape-rendering:geometricPrecision; text-rendering:geometricPrecision; image-rendering:optimizeQuality; fill-rule:evenodd; clip-rule:evenodd"
viewBox="0 0 3830 3829"
 xmlns:xlink="http://www.w3.org/1999/xlink">
 <defs>
  <style type="text/css">
   <![CDATA[
    .fil0 {fill:#2188C7}
   ]]>
  </style>
 </defs>
 <g id="Layer_x0020_1">
  <metadata id="CorelCorpID_0Corel-Layer"/>
  <g id="_909505981232">
   <path class="fil0" d="M3327 2685c-13,38 -28,59 -45,80 -13,28 -23,42 -38,64 -19,28 -24,34 -47,53 -7,23 2,-1 -8,18 -2,2 -14,21 -15,23 -17,22 -7,17 -34,32 -9,16 -11,22 -23,38 -17,20 -11,14 -30,25 -40,73 -279,247 -387,305 -147,80 -324,155 -515,181 -90,26 -379,33 -473,10 -1033,-109 -1810,-1321 -1194,-2403 465,-817 1535,-1087 2368,-485 66,47 224,187 257,247l37 47 97 139c20,12 44,55 50,83 27,32 68,128 83,164 132,328 156,689 61,1033 -24,86 -96,293 -144,346zm-3327 -877l0 200c28,67 16,349 166,679 168,367 449,696 805,892 164,90 416,200 634,223 135,24 280,32 427,23 484,-22 843,-215 1181,-504 44,-37 83,-88 121,-119 18,-32 24,-34 52,-54 12,-30 61,-87 83,-114l51 -70c19,-38 45,-76 69,-120 17,-32 41,-97 64,-124 126,-330 204,-576 168,-982 -21,-235 -91,-477 -193,-680 -27,-54 -94,-153 -107,-195 -25,-18 -48,-58 -55,-84l-91 -111c-9,-7 -14,-11 -24,-22 -17,-18 -7,-6 -17,-22 -36,-22 -194,-205 -391,-326 -144,-89 -303,-168 -494,-224 -405,-120 -866,-90 -1241,60 -358,144 -626,376 -814,620 -388,502 -359,974 -394,1054z"/>
   <path class="fil0" d="M2354 2462c-55,0 -104,0 -160,5 -40,4 -113,27 -132,-12 -30,-66 5,-239 30,-294 35,59 -8,11 54,82 90,103 4,73 208,219zm-915 -25c50,-56 105,-54 150,-130 16,-27 40,-68 58,-87 41,-46 21,-23 53,-78 39,46 60,245 19,309l-280 -14zm338 -764l37 18 6 95 12 63 -47 4 -150 81c-53,66 -48,9 -70,83 7,119 -147,261 -180,310 -17,23 -31,45 -47,69 -62,90 -153,44 -171,124l-2 59c5,2 10,4 17,8l24 15c-21,15 -42,29 -36,65 73,-37 90,-76 132,-114 26,47 35,77 84,102 49,25 81,50 139,51l738 0c88,-2 30,-12 151,-39 71,-16 54,-42 77,-96 1,-2 2,-5 3,-7 10,17 87,116 115,94 13,-14 -29,-58 -38,-72 37,31 77,-66 -1,-116 -66,-43 -69,8 -161,-121 -51,-73 -111,-126 -122,-148l-76 -206 -34 -63 -169 -76c-34,-22 36,20 -18,-9l-21 -12 0 -147 31 -10c14,-32 13,-29 1,-64 -25,-69 -11,-142 -97,-149 -98,-9 -111,65 -127,169 -3,20 -2,18 0,39z"/>
   <polygon class="fil0" points="1584,1089 1345,1507 1255,2171 1423,1530 "/>
   <polygon class="fil0" points="1864,968 1569,1518 1472,2003 1670,1465 "/>
   <polygon class="fil0" points="2281,1039 2472,1481 2487,2150 2391,1495 "/>
   <polygon class="fil0" points="2060,1152 2217,1380 2281,1900 2156,1465 "/>
   <polygon class="fil0" points="1637,1016 1902,753 1805,922 "/>
   <polygon class="fil0" points="2243,1000 1960,804 2133,863 "/>
   <polygon class="fil0" points="1218,2227 1127,2325 962,2550 1182,2379 "/>
   <polygon class="fil0" points="2551,2181 2643,2279 2807,2504 2655,2385 "/>
   <polygon class="fil0" points="2216,1200 2161,1082 2058,984 2137,1092 "/>
   <polygon class="fil0" points="2484,2293 2429,2174 2327,2076 2405,2185 "/>
  </g>
 </g>
</svg>
