<?xml version="1.0" encoding="UTF-8"?>
<!DOCTYPE svg PUBLIC "-//W3C//DTD SVG 1.1//EN" "http://www.w3.org/Graphics/SVG/1.1/DTD/svg11.dtd">
<!-- Creator: CorelDRAW X7 -->
<svg xmlns="http://www.w3.org/2000/svg" xml:space="preserve" width="100%" height="100%" version="1.1" style="shape-rendering:geometricPrecision; text-rendering:geometricPrecision; image-rendering:optimizeQuality; fill-rule:evenodd; clip-rule:evenodd"
viewBox="0 0 3830 3829"
 xmlns:xlink="http://www.w3.org/1999/xlink">
 <defs>
  <style type="text/css">
   <![CDATA[
    .fil0 {fill:#34B25D}
   ]]>
  </style>
 </defs>
 <g id="Layer_x0020_1">
  <metadata id="CorelCorpID_0Corel-Layer"/>
  <g id="_909505978320">
   <path class="fil0" d="M2651 848l-18 -8c-112,54 -48,106 -214,191 -73,38 -96,63 -149,122 -44,48 -36,17 -96,41 -36,14 -140,86 -156,113 -66,-33 -86,-43 -48,-94 52,-72 26,-30 6,-105 -26,-95 -82,-125 -153,-72 -35,27 -38,63 -53,120 -14,56 39,46 54,120 -108,2 -118,-51 -175,-104 -43,-40 -59,-14 -92,-42 -35,-30 8,-48 -205,-213 -62,-48 -34,-126 -125,-154 -6,8 -28,-7 9,25l-46 7c-4,86 94,106 136,167 38,55 16,51 123,187 53,67 57,30 64,142 48,23 27,-1 63,43 84,103 28,95 61,171 11,26 34,49 27,70 -111,41 -150,-92 -252,-91 -137,0 -192,172 -562,119 -67,-9 -170,-9 -240,5 -35,6 -49,7 -64,35 15,8 2,6 27,4 2,0 32,-8 37,-10 257,-66 344,97 678,-79 49,-26 65,-58 142,-41 112,24 74,125 244,79 32,247 -52,292 -79,482 -9,64 -22,87 -16,174l45 29c-2,56 5,103 6,158 1,84 1,63 41,114l85 -5c-15,54 -40,105 -18,176 18,58 98,66 113,-1 3,-15 25,-226 -21,-257 -22,-15 -12,-4 -35,-14 -28,-13 -5,-7 -35,-23 0,-20 0,-50 2,-69 5,-50 39,-77 44,-189 41,49 20,71 46,128 1,3 2,5 3,7 16,35 15,60 19,99 5,41 14,87 19,125 4,37 -13,76 -12,131 6,199 38,44 -23,261 -22,80 -35,215 58,223 124,-64 27,-256 56,-349 76,-241 12,-214 39,-389 25,-164 8,-94 38,-128 19,-21 14,1 16,-44 2,-54 -7,-160 -18,-210 -43,-184 -18,-210 14,-384 114,0 182,-41 301,-45 161,-5 355,150 756,109 28,-3 53,-8 81,-10 34,-2 64,2 85,-13l-14 -8c-2,-1 -5,-3 -8,-4 -2,0 -5,-1 -8,-2l-123 5c-59,7 -109,5 -168,3 -401,-15 -411,-98 -581,-106 -134,-7 -202,49 -310,43 56,-211 150,-240 189,-275 36,-34 7,-56 58,-97 123,-100 203,-239 350,-281 -22,-12 -35,-4 -54,-15 35,-26 32,-5 62,-20 -9,-7 -1,-1 -17,-8 -2,-1 -5,-2 -7,-3 -2,-1 -5,-2 -7,-3l22 -13c1,0 3,-1 5,-2 -20,-20 -3,-3 -39,-22 -2,-2 -6,-4 -8,-5 -2,-1 -6,-3 -8,-5 33,-6 16,2 33,-16z"/>
   <path class="fil0" d="M3327 2685c-13,38 -28,59 -45,80 -13,28 -23,42 -38,64 -19,28 -24,34 -47,53 -7,23 2,-1 -8,18 -2,2 -14,21 -15,23 -17,22 -7,17 -34,32 -9,16 -11,22 -23,38 -17,20 -11,14 -30,25 -40,73 -279,247 -387,305 -147,80 -324,155 -515,181 -90,26 -379,33 -473,10 -1033,-109 -1810,-1321 -1194,-2403 465,-817 1535,-1087 2368,-485 66,47 224,187 257,247l37 47 97 139c20,12 44,55 50,83 27,32 68,128 83,164 132,328 156,689 61,1033 -24,86 -96,293 -144,346zm-3327 -877l0 200c28,67 16,349 166,679 168,367 449,696 805,892 164,90 416,200 634,223 135,24 280,32 427,23 484,-22 843,-215 1181,-504 44,-37 83,-88 121,-119 18,-32 24,-34 52,-54 12,-30 61,-87 83,-114l51 -70c19,-38 45,-76 69,-120 17,-32 41,-97 64,-124 126,-330 204,-576 168,-982 -21,-235 -91,-477 -193,-680 -27,-54 -94,-153 -107,-195 -25,-18 -48,-58 -55,-84l-91 -111c-9,-7 -14,-11 -24,-22 -17,-18 -7,-6 -17,-22 -36,-22 -194,-205 -391,-326 -144,-89 -303,-168 -494,-224 -405,-120 -866,-90 -1241,60 -358,144 -626,376 -814,620 -388,502 -359,974 -394,1054z"/>
  </g>
 </g>
</svg>
