<?xml version="1.0" encoding="UTF-8"?>
<!DOCTYPE svg PUBLIC "-//W3C//DTD SVG 1.1//EN" "http://www.w3.org/Graphics/SVG/1.1/DTD/svg11.dtd">
<!-- Creator: CorelDRAW X7 -->
<svg xmlns="http://www.w3.org/2000/svg" xml:space="preserve" width="100%" height="100%" version="1.1" style="shape-rendering:geometricPrecision; text-rendering:geometricPrecision; image-rendering:optimizeQuality; fill-rule:evenodd; clip-rule:evenodd"
viewBox="0 0 3830 3829"
 xmlns:xlink="http://www.w3.org/1999/xlink">
 <defs>
  <style type="text/css">
   <![CDATA[
    .fil0 {fill:#DC202A}
   ]]>
  </style>
 </defs>
 <g id="Layer_x0020_1">
  <metadata id="CorelCorpID_0Corel-Layer"/>
  <g id="_944360962096">
   <path class="fil0" d="M2205 1587c-44,131 -9,103 -149,144 2,34 12,50 7,76 -3,20 -17,37 -21,64 -11,75 28,80 42,123 -39,59 -26,20 -38,104 -3,25 -11,43 -14,63 -5,29 0,42 -6,73 -34,183 33,65 0,252 -14,81 -19,46 3,118 6,18 -4,103 -4,137 0,47 -6,74 -8,126 -3,94 -25,39 24,116 -16,88 -27,25 -6,121 11,50 -20,76 9,126 58,98 134,64 204,11 201,-154 486,-439 597,-663 73,-147 125,-313 150,-490 60,-424 -12,-716 -186,-1039 -25,-45 -24,-64 -89,-59 -54,3 -86,11 -106,47l-89 183c-23,77 -49,54 -79,124 -33,74 -33,10 -78,87l-106 127c-32,29 -18,9 -57,29z"/>
   <path class="fil0" d="M1868 1366c-45,18 -148,107 -164,148 -17,42 -19,71 -48,107 -31,37 -48,42 -80,85 -38,53 -42,39 -80,75 -22,20 -54,80 -72,93 -27,19 -87,20 -124,31 -56,17 -60,39 -124,41 -17,-55 -14,-69 -41,-124 -32,-65 10,-70 -37,-117l-23 50c-3,19 5,53 7,83 5,73 31,104 23,173 -32,21 -134,31 -141,30 -48,-4 -70,-48 -126,-37 -22,4 -10,0 -24,10 5,22 16,34 35,45 31,18 33,8 58,20 47,23 24,72 51,114 1,0 132,38 179,-5 32,-29 8,-18 19,-46 155,-39 135,24 316,-113 84,-64 169,-117 218,-219 22,-46 47,-103 66,-147l134 -196c14,-16 41,-30 61,-46 31,-25 25,-31 49,-58 24,-26 39,-28 64,-49 -21,-22 -18,-33 -31,-60 -64,-8 -60,0 -108,25 -62,33 -63,-1 -57,87z"/>
   <path class="fil0" d="M3327 2685c-13,38 -28,59 -45,80 -13,28 -23,42 -38,64 -19,28 -24,34 -47,53 -7,23 2,-1 -8,18 -2,2 -14,21 -15,23 -17,22 -7,17 -34,32 -9,16 -11,22 -23,38 -17,20 -11,14 -30,25 -40,73 -279,247 -387,305 -147,80 -324,155 -515,181 -90,26 -379,33 -473,10 -1033,-109 -1810,-1321 -1194,-2403 465,-817 1535,-1087 2368,-485 66,47 224,187 257,247l37 47 97 139c20,12 44,55 50,83 27,32 68,128 83,164 132,328 156,689 61,1033 -24,86 -96,293 -144,346zm-3327 -877l0 200c28,67 16,349 166,679 168,367 449,696 805,892 164,90 416,200 634,223 135,24 280,32 427,23 484,-22 843,-215 1181,-504 44,-37 83,-88 121,-119 18,-32 24,-34 52,-54 12,-30 61,-87 83,-114l51 -70c19,-38 45,-76 69,-120 17,-32 41,-97 64,-124 126,-330 204,-576 168,-982 -21,-235 -91,-477 -193,-680 -27,-54 -94,-153 -107,-195 -25,-18 -48,-58 -55,-84l-91 -111c-9,-7 -14,-11 -24,-22 -17,-18 -7,-6 -17,-22 -36,-22 -194,-205 -391,-326 -144,-89 -303,-168 -494,-224 -405,-120 -866,-90 -1241,60 -358,144 -626,376 -814,620 -388,502 -359,974 -394,1054z"/>
  </g>
 </g>
</svg>
