<?xml version="1.0" encoding="UTF-8"?>
<!DOCTYPE svg PUBLIC "-//W3C//DTD SVG 1.1//EN" "http://www.w3.org/Graphics/SVG/1.1/DTD/svg11.dtd">
<!-- Creator: CorelDRAW X7 -->
<svg xmlns="http://www.w3.org/2000/svg" xml:space="preserve" width="100%" height="100%" version="1.1" style="shape-rendering:geometricPrecision; text-rendering:geometricPrecision; image-rendering:optimizeQuality; fill-rule:evenodd; clip-rule:evenodd"
viewBox="0 0 9693 17304"
 xmlns:xlink="http://www.w3.org/1999/xlink">
 <defs>
  <style type="text/css">
   <![CDATA[
    .fil0 {fill:#562e1c}
    .fil1 {fill:#562e1c}
   ]]>
  </style>
 </defs>
 <g id="Layer_x0020_1">
  <metadata id="CorelCorpID_0Corel-Layer"/>
  <g id="_944447388096">
   <path class="fil0" d="M381 15914c-2,-201 199,-567 332,-672 57,-45 63,-9 135,-25 91,-20 14,-49 87,-84 34,-18 197,-48 260,-74 41,-17 67,-44 105,-61 119,-53 367,-68 505,-20 60,21 23,-2 47,36 129,205 84,-8 211,68l309 273c313,390 128,395 76,468 48,208 89,299 54,543l70 41c-40,146 -154,318 -232,395 -118,118 -187,174 -352,254l88 -171c40,-75 56,-87 71,-191 -168,-16 -348,-131 -451,-201 -35,37 -65,79 -99,107 -115,93 -327,198 -358,238 36,125 122,209 168,321 -294,-12 -732,-255 -847,-514 37,-18 64,-22 100,-38 29,-12 66,-30 91,-42 -46,-228 -92,-316 -36,-575 -132,-4 -225,-124 -286,-151 -19,26 -22,45 -48,75zm8127 -10793c-340,99 -202,6 -393,136 -46,31 -112,75 -151,113l-76 63c-119,104 -371,330 -462,440l-187 217c-93,105 -157,239 -256,340 -157,160 -121,48 -321,263l-228 281c20,-56 60,-145 86,-187 21,-34 28,-51 50,-90l113 -149c216,-215 210,-120 345,-321l593 -1006c18,-33 26,-63 44,-95 164,-297 137,-160 8,-446 -106,-234 -49,-317 -22,-428 99,-4 178,38 236,116 144,190 244,554 188,756 127,13 213,-2 338,-14 109,-10 185,-46 278,-59 -63,23 -96,45 -183,70zm-4682 846c63,-33 47,-39 103,-90 116,-108 292,-323 364,-307l24 -79 24 -388 -195 4c27,-41 74,-39 133,-131 112,-179 10,-542 -29,-707 170,144 218,785 207,1067 21,-11 -6,215 -39,510 -21,326 -220,796 -171,1077 30,173 115,345 203,437 79,83 170,161 269,219 37,21 63,24 98,50 -72,-12 -188,-64 -249,-95 -233,-118 -442,-255 -453,-572 -5,-142 106,-483 -103,-527 -302,-64 -221,634 89,914 170,152 213,168 407,275 124,68 340,150 487,192l563 119c-270,13 -554,-57 -810,-108 -82,-16 -142,-53 -218,-75 -191,-57 -432,-203 -577,-339 -49,-47 -83,-110 -136,-153 -71,38 -176,113 -182,231 14,60 196,138 279,253 87,120 121,191 180,334 75,181 204,604 213,821 -54,-90 -82,-235 -124,-340 -41,-104 -74,-216 -130,-314 -37,-66 -71,-127 -108,-184 -38,-58 -83,-124 -135,-170 -52,-47 -102,-98 -167,-125 -121,-52 -375,-24 -255,240 -106,-57 -225,-90 -302,9l60 27c23,6 45,7 69,13 96,28 224,139 294,206 79,76 98,104 158,175l141 177c-27,-10 -138,-100 -175,-130 -173,-144 -370,-246 -593,-295 -98,-21 -161,-14 -253,19 -122,43 -79,52 -148,144 -77,103 -165,228 -263,318l27 17c1,0 28,12 29,13 107,47 227,108 313,187 71,65 222,229 249,323 -27,-57 -191,-183 -241,-220 -77,-58 -199,-140 -323,-150 -64,-5 -169,-9 -212,21 -33,24 -64,96 -90,147 -89,177 -202,351 -323,510 -88,115 -206,183 -306,277 -200,187 -103,383 -88,547 15,173 -235,245 565,326 -96,69 -452,56 -624,-3l-8 447c-277,-9 -160,235 -139,437 40,390 127,789 170,1192 98,908 84,491 197,680 21,37 29,102 31,153 7,127 -22,246 -20,363 31,28 41,23 72,54 48,48 120,125 131,199 -25,-87 -241,-172 -316,-136 -37,33 -35,56 -84,100 -196,176 -625,307 -863,346l67 43c113,77 215,219 248,354l-115 -4c-79,-131 -89,-176 -213,-271 -131,-100 -171,-87 -323,0 -82,47 -241,116 -169,269 43,89 177,145 295,178 11,89 89,161 181,96 131,-94 5,-54 241,-73 8,88 3,88 -60,144 -142,126 -262,298 -316,490 -118,417 -63,736 157,1084 64,101 226,244 320,305 526,337 1234,210 1595,-263 115,-152 190,-308 237,-515 29,-129 28,-339 -3,-467 -44,-178 -122,-374 -239,-512l-123 -127c-190,-177 -301,-156 -270,-244l99 -2c8,81 -2,100 54,142 123,59 155,-97 198,-142 43,-46 48,-42 69,-109 46,-144 190,-575 52,-697 -78,23 -129,171 -278,174 99,-80 124,-59 170,-216 40,-136 3,-193 -10,-325 -41,-415 61,-955 146,-1358 45,-215 132,-389 129,-629 -7,-562 -312,-950 -158,-1275 93,-196 310,-193 486,-278l395 -174c21,-10 107,-45 133,-52 -42,43 -102,76 -142,112 -48,44 -76,86 -127,119 17,47 65,95 100,130l88 80c298,250 437,55 402,-290 -8,-82 -65,-284 -93,-361l42 64c87,161 134,328 135,518 82,-30 72,-41 128,-86 42,-34 73,-63 113,-94 348,-268 282,-528 313,-941 80,104 134,569 139,736 8,298 -1,557 -34,848 40,25 67,59 102,94 28,28 75,60 86,115 22,110 -96,211 -142,254 12,87 253,204 350,225 192,41 300,61 511,64 38,305 44,490 134,778 99,314 240,135 81,713 -124,452 3,946 -76,1411 -40,232 -103,263 -6,503 43,104 -113,269 -140,434 -28,165 -1,153 77,200 -78,56 -141,93 -202,161 -49,55 -103,157 -99,234 33,-67 129,-144 191,-177l-105 154c-124,170 -374,575 -230,779 48,68 -12,203 149,181 36,-5 58,-23 72,-53 11,-27 5,-17 12,-44 1,-3 2,-8 3,-11l12 -33 209 1 53 115c38,49 74,38 141,25 60,-88 6,-93 137,-112 -68,-326 -277,-465 -648,-394 146,-56 342,-78 480,11 166,107 154,196 239,344l39 -32c201,-263 277,-659 44,-926 -34,-38 -68,-73 -110,-112 -29,-26 -86,-92 -116,-87 124,-2 291,181 346,277 65,-244 -64,-253 -25,-483 10,-56 28,-192 45,-234 21,-50 92,-75 128,-150 57,-116 99,-287 140,-416 93,-292 157,-583 232,-878 19,-72 22,-181 35,-220 21,-68 33,-147 47,-225 45,-267 81,-807 -110,-946l-286 132c-112,37 -255,26 -377,14 136,-4 240,-29 352,-81 60,-28 230,-158 251,-193 20,-35 -16,-94 -27,-159 -30,-185 -14,-424 29,-600 -32,1 -177,45 -217,57 -141,43 -569,122 -703,22 263,-6 522,-65 750,-141 104,-35 213,-86 316,-128 100,-40 221,-82 296,-144 -27,-34 -24,-43 -51,-83l-254 -441c-123,-249 -203,-977 -54,-1172 13,235 11,401 88,610 112,303 292,126 295,-66 3,-166 -106,-418 -173,-528 -20,-34 -41,-89 -62,-118 -66,-93 -152,-187 -197,-303 -34,-89 -66,-170 -84,-263 -19,-103 -41,-156 -51,-266 -38,-442 148,-499 196,-379 33,81 -47,300 14,654 21,119 138,408 212,462 27,-72 21,-173 36,-253 47,-252 63,-513 64,-771 1,-149 0,-345 -43,-486 -88,-299 16,-217 37,-426 -25,43 -25,33 -58,72l-95 100c-14,16 -8,12 -25,30 -17,18 -19,16 -36,34 -18,18 -12,14 -27,29 -22,21 -13,11 -39,30 -3,2 -12,9 -16,12l-22 20c-27,23 -38,27 -73,51 -84,57 -41,57 -157,93 17,-54 259,-387 189,-489 -80,-117 -307,148 -378,-105 141,85 228,-56 307,-134 216,-210 173,247 182,376l106 -103c424,-481 86,-567 696,-1082 62,-52 174,-96 267,-121 51,-14 101,-40 153,-56 143,-44 316,-76 450,-132 12,-51 46,-67 80,-101 80,-80 377,-403 449,-418 129,-28 138,66 259,49 80,-22 159,-79 251,-117 48,-20 76,-39 119,-61 47,-25 74,-25 84,-96 15,-107 -64,-206 -138,-229 -119,-37 -204,3 -314,3 24,-9 109,-87 132,-110 49,-50 89,-51 73,-162 -67,-6 -49,-1 -101,24 -53,25 -40,11 -78,46 -84,79 -321,254 -383,335 17,-49 34,-46 76,-100 30,-39 57,-68 84,-96l178 -170c168,-138 54,-391 -32,-502l-130 -148c-25,-28 -18,-22 -41,-43l-218 -225c-26,-27 -22,-16 -45,-39l-339 -369c-27,-34 -54,-67 -78,-102l-51 -61c-2,-2 -5,-6 -6,-8l-67 -72c-26,-23 -14,-17 -38,-45 -115,-132 -271,-224 -442,-267 -211,-52 -259,-112 -413,-212 -20,-13 -34,-18 -54,-29 -72,-41 -389,-190 -487,-215 -41,31 -35,34 -64,83 -29,50 -34,41 -61,77l-476 567c-106,125 -392,331 -559,355l60 -286c270,-72 447,-290 620,-490 87,-101 303,-394 342,-520 -12,-8 -2,-2 -26,-8 -25,-5 17,7 -17,-2 -99,-26 -72,-226 -65,-306 28,-293 84,-268 3,-380 105,-41 272,-198 291,-339 19,-135 -134,-226 -236,-125 -6,6 -30,38 -37,46 -25,26 -18,18 -44,34 77,-147 111,-184 312,-180 9,-311 -25,-546 -244,-748 -130,-119 -267,-174 -442,-210 -103,-21 -193,-30 -300,-16 -208,28 -304,75 -460,193 40,39 67,49 104,93 -154,-62 -202,37 -267,131 -56,80 -101,224 -125,334 -14,60 -59,126 -49,190 10,65 57,56 54,167 -2,81 -33,102 -33,195 2,192 62,255 80,375 10,63 12,135 25,195 18,81 58,96 65,167 8,76 10,135 64,165 123,68 298,-16 352,-76 63,-70 108,-201 144,-303 1,361 -155,348 -192,459 207,14 386,-61 552,-166l145 -101c-28,103 -83,189 -151,262 -12,13 -18,16 -28,26 -111,112 -296,263 -462,259 -161,-4 -146,-106 -194,-193 -29,182 -33,540 51,713l97 162c-22,87 -53,175 -59,272 -229,-158 -239,-612 -203,-927 -89,23 -190,101 -273,143l-472 182c-188,61 -375,176 -459,346 -91,181 -144,404 -199,608 -45,170 -155,782 -194,861 -71,148 -109,191 -243,256l-19 9c77,63 113,92 244,106 -47,12 -99,106 -105,186 -12,147 37,351 102,481 33,66 63,143 98,190z"/>
   
   <path class="fil0" d="M4385 8203c77,58 79,166 43,293 -14,49 -31,98 -48,147 -26,75 -55,70 -70,116 136,-43 375,101 444,155 134,106 101,121 162,214 25,-151 67,-219 162,-301 107,-92 176,-164 304,-149l-257 -356c-50,-67 -36,-86 -68,-146 -113,2 -224,29 -335,43 -158,19 -213,-10 -337,-16z"/>
   <path class="fil0" d="M4800 8800c43,-18 126,-93 120,-153 -17,-48 -24,-47 -53,-77 -10,-10 -23,-25 -34,-35 -33,-28 -8,-13 -47,-31 -8,101 -33,201 14,296z"/>
   <path class="fil0" d="M1068 15319c77,59 79,167 43,293 -14,49 -31,98 -48,148 -26,74 -55,69 -70,115 136,-43 375,101 444,156 134,106 101,120 162,213 25,-150 67,-218 162,-300 107,-92 176,-165 304,-150l-258 -355c-49,-67 -35,-86 -67,-147 -113,3 -224,30 -335,43 -158,20 -213,-10 -337,-16z"/>
  </g>
 </g>
</svg>
