<?xml version="1.0" encoding="UTF-8"?>
<!DOCTYPE svg PUBLIC "-//W3C//DTD SVG 1.1//EN" "http://www.w3.org/Graphics/SVG/1.1/DTD/svg11.dtd">
<!-- Creator: CorelDRAW X7 -->
<svg xmlns="http://www.w3.org/2000/svg" xml:space="preserve" width="100%" height="100%" version="1.1" style="shape-rendering:geometricPrecision; text-rendering:geometricPrecision; image-rendering:optimizeQuality; fill-rule:evenodd; clip-rule:evenodd"
viewBox="0 0 5117 4617"
 xmlns:xlink="http://www.w3.org/1999/xlink">
 <defs>
  <style type="text/css">
   <![CDATA[
    .fil0 {fill:#562e1c}
   ]]>
  </style>
 </defs>
 <g id="Layer_x0020_1">
  <metadata id="CorelCorpID_0Corel-Layer"/>
  <path class="fil0" d="M421 1654c117,-35 208,31 246,103 122,233 -123,621 -330,694 -395,140 -397,-653 84,-797zm320 335c-4,-47 2,-91 -4,-136 -4,-35 -17,-58 -21,-93 48,2 64,18 112,29l124 22c-19,42 -198,174 -211,178zm550 -418l-96 -2c-18,45 5,100 -145,163 -85,35 -176,43 -255,8 -160,-72 -219,-209 -457,-121 -379,140 -413,695 -231,837 145,114 348,-3 438,-88 129,-122 235,-391 448,-510 17,-10 84,-37 114,-41 77,-9 20,-2 54,15l55 15c74,10 106,114 203,75 58,-23 106,-126 113,-209 50,-3 41,-5 81,-15 0,78 7,191 1,265 -6,69 -48,131 -68,196 -22,71 -47,111 -70,194 -112,396 -78,210 -232,588 -26,62 -150,210 -175,229 -151,119 -208,139 -326,353 -70,126 -276,533 -378,637 -60,60 -151,60 -136,190 5,45 19,65 19,112 -1,48 -10,66 -7,124 92,35 260,49 338,-4 19,-125 -46,-172 -12,-260 66,-165 10,-140 158,-316 31,-37 33,-52 65,-88 111,-126 180,-175 291,-334 190,-272 220,-161 322,-303 220,-305 169,-92 377,-90 70,1 175,-48 219,-79 49,-34 68,-130 96,-194 39,-87 74,-120 110,-179 43,11 321,164 351,212 29,45 33,79 71,123 85,15 186,9 257,-19 224,-90 263,47 589,216 82,43 128,37 184,93 54,53 59,96 145,146l372 212c282,172 129,322 523,339 88,4 180,29 263,24 214,-14 194,-238 29,-289 -137,-44 -192,40 -373,-30 -126,-48 -105,14 -265,-166 -89,-100 -144,-135 -281,-303 -142,-173 -227,-203 -416,-291 -56,-26 -44,-26 -83,-69 -51,-57 -112,-84 -137,-156 -68,-196 -240,-339 -385,-476 -47,-44 -80,-118 -123,-168 -92,-105 -27,16 -125,-167 -217,-402 -173,-129 -246,-630 -12,-81 -50,-166 -53,-239l152 14c16,-50 36,-107 61,-147 152,3 238,46 426,27 37,71 -60,61 90,115 89,32 104,17 173,-20 -2,-242 -79,-248 -208,-281 -166,-42 -117,-74 -391,-105 -341,-38 -188,-110 -359,-141 -332,-59 -228,-13 -423,4 84,-693 -399,-639 -521,-424 -33,58 -34,103 -16,171 26,96 -8,112 10,169 40,128 227,93 107,331 -8,15 -9,20 -18,37l-236 237c-54,53 -47,48 -65,143 -9,50 -19,130 -8,183 17,80 43,59 15,157z"/>
 </g>
</svg>
