<?xml version="1.0" encoding="UTF-8"?>
<!DOCTYPE svg PUBLIC "-//W3C//DTD SVG 1.1//EN" "http://www.w3.org/Graphics/SVG/1.1/DTD/svg11.dtd">
<!-- Creator: CorelDRAW X7 -->
<svg xmlns="http://www.w3.org/2000/svg" xml:space="preserve" width="100%" height="100%" version="1.1" style="shape-rendering:geometricPrecision; text-rendering:geometricPrecision; image-rendering:optimizeQuality; fill-rule:evenodd; clip-rule:evenodd"
viewBox="0 0 3484 2181"
 xmlns:xlink="http://www.w3.org/1999/xlink">
 <defs>
  <style type="text/css">
   <![CDATA[
    .fil0 {fill:#562e1c}
   ]]>
  </style>
 </defs>
 <g id="Layer_x0020_1">
  <metadata id="CorelCorpID_0Corel-Layer"/>
  <g id="_944433143856">
   <path class="fil0" d="M1690 970l-1216 564c215,81 318,98 540,24 264,-88 327,6 543,39 247,38 347,-83 568,-72 238,11 270,119 569,60l-664 -1066 93 -19c181,-26 735,-90 824,-163 138,-110 66,-291 -90,-333 -107,-29 -830,101 -993,126 -131,20 -374,27 -461,107 -193,176 160,454 287,733z"/>
   <path class="fil0" d="M1 2180c186,-1 257,-105 443,-101 177,3 253,104 430,102 183,-2 260,-107 445,-102 173,4 249,105 430,102 181,-2 256,-109 445,-102 175,6 245,105 431,102 172,-3 247,-105 430,-102 179,2 250,104 429,100l-1 -345c-249,-36 -267,-104 -428,-105 -179,-2 -258,98 -431,101 -187,4 -262,-100 -444,-101 -174,-1 -270,103 -444,101 -183,-2 -254,-107 -445,-101 -181,5 -248,109 -444,101 -168,-8 -247,-107 -429,-101 -145,5 -244,84 -418,104l1 347z"/>
   <path class="fil0" d="M2894 722c-532,164 -287,919 232,767 179,-52 344,-258 272,-498 -54,-179 -261,-345 -504,-269z"/>
  </g>
 </g>
</svg>
