<?xml version="1.0" encoding="UTF-8"?>
<!DOCTYPE svg PUBLIC "-//W3C//DTD SVG 1.1//EN" "http://www.w3.org/Graphics/SVG/1.1/DTD/svg11.dtd">
<!-- Creator: CorelDRAW X7 -->
<svg xmlns="http://www.w3.org/2000/svg" xml:space="preserve" width="100%" height="100%" version="1.1" style="shape-rendering:geometricPrecision; text-rendering:geometricPrecision; image-rendering:optimizeQuality; fill-rule:evenodd; clip-rule:evenodd"
viewBox="0 0 2122 3320"
 xmlns:xlink="http://www.w3.org/1999/xlink">
 <defs>
  <style type="text/css">
   <![CDATA[
    .fil0 {fill:#562e1c}
   ]]>
  </style>
 </defs>
 <g id="Layer_x0020_1">
  <metadata id="CorelCorpID_0Corel-Layer"/>
  <path class="fil0" d="M965 1943c142,-126 225,-16 190,100 -58,24 -82,35 -152,29 -34,-49 -42,-57 -38,-129zm123 -791l-132 132c-46,46 14,18 -47,37 -11,-15 -19,25 -14,-40 3,-41 14,-22 17,-24l126 -120c1,-6 6,-6 10,-8 27,12 24,7 40,23zm-902 -379l-18 23 -8 -38 -29 -97 112 8c-18,40 -36,58 -57,104zm-69 -358l0 0zm0 0c29,-48 49,-39 79,-81l22 -26c1,-6 7,-6 10,-9 28,15 16,-17 29,21 -13,33 2,10 -20,36 -19,24 -39,28 -78,83 -32,-15 -19,-2 -42,-24zm140 -95l-14 -46 50 -27c-24,-33 -30,-3 -22,-64 49,7 22,-19 44,33 27,-52 -3,-4 24,-35l58 -45c25,83 -46,96 -140,184zm165 1016l14 -31c21,-1 16,-6 16,15 67,-28 51,-63 107,-108 30,97 38,136 32,248 -7,129 32,121 -13,238 -28,72 -32,413 -25,508 17,263 194,536 377,649 25,15 8,9 37,15l106 -93c-74,-293 -241,-209 -230,-373 25,-15 103,-38 138,-54l3 -120c45,22 91,74 140,112 137,107 113,20 180,83 28,27 23,39 68,71 93,66 61,19 218,158 276,245 138,204 225,302 48,54 69,93 104,160 117,227 244,34 191,-121 -31,-90 -83,-57 -106,-166l-21 34c-19,-84 -19,-138 -130,-107 -70,48 9,167 71,105 36,-36 -17,-115 -54,-40 2,1 6,2 7,2 63,15 12,-16 42,13l-21 25c-45,-16 -31,-8 -57,-42l24 -53 69 3c19,24 27,39 34,80 -17,18 -32,43 -63,51 -70,19 -120,-29 -110,-107 5,-48 35,-54 37,-67 2,-5 5,-5 8,-8 -47,-47 -83,-161 -122,-221 -75,-113 -141,-111 -204,-142 -29,-91 -80,-188 -104,-299 -26,-117 -52,-206 -88,-315 -68,-206 -157,-366 -205,-579l-29 -10c2,-45 -5,-14 21,-28l-2 -92 43 -10c10,-18 -1,-5 24,-18 110,-54 -76,22 29,-24 38,-17 20,-3 35,11 -11,36 -20,30 -39,52 15,14 10,11 32,26 71,49 93,10 121,43 63,151 -16,168 -56,255 74,-6 56,-35 118,-11 55,22 31,47 86,42 16,-106 -46,-40 -29,-152 11,-73 27,-106 -6,-176 -35,-75 -112,-162 -166,-223 -207,-231 -402,-187 -512,-276 148,-578 -289,-417 -311,-275 -5,33 13,98 21,133 21,89 22,70 42,95 121,151 -14,215 -82,276 -33,29 -46,35 -71,82 -35,65 -35,442 -171,401 -2,-3 -5,-7 -7,-10 -1,-2 -4,-7 -6,-9 -2,-3 -4,-7 -6,-10 -27,-41 -109,-94 -32,-152 43,-470 146,-414 234,-556 27,-45 57,-118 66,-185 63,-431 -345,-476 -442,-135 -53,189 0,304 63,433 47,96 52,325 -1,419 -63,113 10,21 -40,114 -69,127 24,140 82,175 26,16 203,220 296,-31zm580 1565c17,46 43,46 70,90 -25,50 -14,37 -48,85l20 25 -17 5 4 62c-40,36 -84,43 -90,111 65,72 207,38 256,-17 58,-65 -4,-47 92,-89 154,-66 50,-150 -29,-203 -120,-80 -119,-116 -166,-168 -31,41 -23,22 -52,55 -25,29 -2,16 -40,44zm31 -881l59 4c-16,-37 1,-24 -22,-28 -25,-3 32,38 -31,2 35,-66 61,-38 64,34 -42,21 -46,21 -88,2 -40,-68 -24,-53 14,-115 76,-3 62,1 113,38l1 76c-24,-24 -2,-83 -52,-97 -17,-4 -81,-6 -75,50 6,67 -1,7 17,34zm-68 -77c-4,72 4,80 38,129 70,6 94,-5 152,-29 35,-116 -48,-226 -190,-100zm1039 886c-14,-57 -21,-67 -54,-107l-110 -4c-3,3 -6,3 -8,8 -2,13 -32,19 -37,67 -10,78 40,126 110,107 31,-8 46,-33 63,-51 -7,-41 -15,-56 -34,-80l-69 -3 -24 53c26,34 12,26 57,42l21 -25c-30,-29 21,2 -42,-13 -1,0 -5,-1 -7,-2 37,-75 90,4 54,40 -62,62 -141,-57 -71,-105 111,-31 111,23 130,107l21 -34zm-916 -1677c-16,-16 -13,-11 -40,-23 -4,2 -9,2 -10,8l-126 120c-3,2 -14,-17 -17,24 -5,65 3,25 14,40 61,-19 1,9 47,-37l132 -132zm-831 -832c94,-88 165,-101 140,-184l-58 45c-27,31 3,-17 -24,35 -22,-52 5,-26 -44,-33 -8,61 -2,31 22,64l-50 27 14 46zm776 1700c-18,-27 -11,33 -17,-34 -6,-56 58,-54 75,-50 50,14 28,73 52,97l-1 -76c-51,-37 -37,-41 -113,-38 -38,62 -54,47 -14,115 42,19 46,19 88,-2 -3,-72 -29,-100 -64,-34 63,36 6,-5 31,-2 23,4 6,-9 22,28l-59 -4zm-916 -1605c23,22 10,9 42,24 39,-55 59,-59 78,-83 22,-26 7,-3 20,-36 -13,-38 -1,-6 -29,-21 -3,3 -9,3 -10,9l-22 26c-30,42 -50,33 -79,81zm850 2455c14,31 4,19 35,31 38,-28 15,-15 40,-44 29,-33 21,-14 52,-55 -7,-44 1,-14 -21,-25l-106 93zm-752 -1587l2 -90c-29,-13 -3,4 -37,-19 -24,-17 -12,-12 -22,-20l6 -52c-77,58 5,111 32,152 2,3 4,7 6,10 2,2 5,7 6,9 2,3 5,7 7,10zm935 -261c19,17 -7,10 49,21 19,-22 28,-16 39,-52 -15,-14 3,-28 -35,-11 -105,46 81,-30 -29,24 -25,13 -14,0 -24,18zm-62 130l29 10 -8 -38c-26,14 -19,-17 -21,28zm-666 184l30 -16c0,-21 5,-16 -16,-15l-14 31zm-236 -563c-15,-16 -7,-5 -26,-15l8 38 18 -23zm841 2333l17 -5 -20 -25 3 30zm-910 -2691l0 0z"/>
 </g>
</svg>
