<?xml version="1.0" encoding="UTF-8"?>
<!DOCTYPE svg PUBLIC "-//W3C//DTD SVG 1.1//EN" "http://www.w3.org/Graphics/SVG/1.1/DTD/svg11.dtd">
<!-- Creator: CorelDRAW X7 -->
<svg xmlns="http://www.w3.org/2000/svg" xml:space="preserve" width="100%" height="100%" version="1.1" style="shape-rendering:geometricPrecision; text-rendering:geometricPrecision; image-rendering:optimizeQuality; fill-rule:evenodd; clip-rule:evenodd"
viewBox="0 0 1552 1665"
 xmlns:xlink="http://www.w3.org/1999/xlink">
 <defs>
  <style type="text/css">
   <![CDATA[
    .fil0 {fill:#562e1c}
    .fil1 {fill:none}
   ]]>
  </style>
 </defs>
 <g id="Layer_x0020_1">
  <metadata id="CorelCorpID_0Corel-Layer"/>
  <path class="fil0" d="M196 583c169,-100 282,190 111,254 -161,60 -284,-151 -111,-254zm120 432c293,135 363,11 538,-132 72,-58 155,-96 180,-212 59,-278 -94,-517 -335,-624 -185,-83 -429,-55 -571,96 -38,41 -57,68 -83,127 -118,267 3,621 271,745z"/>
  <path class="fil0" d="M810 50c119,85 249,209 279,426 15,112 -2,201 -41,296 -54,131 5,182 52,262 75,-14 135,-52 200,-80 78,-33 112,-45 151,-113 72,-126 87,-296 26,-446 -56,-138 -131,-226 -237,-291 -101,-62 -303,-123 -430,-54z"/>
  <path class="fil0" d="M747 1041c190,109 69,-7 241,203 32,39 71,81 101,121 35,46 67,97 117,118 58,-14 94,-44 116,-95 6,-46 -151,-216 -191,-259 -111,-123 -118,-131 -152,-251 0,-3 -2,-7 -3,-10l-6 -17c-44,44 -170,122 -223,190z"/>
  <path class="fil0" d="M1403 1666l57 0c113,-91 143,-11 -31,-363 -50,-102 -97,-181 -72,-315l-202 89c56,68 100,120 149,185 81,108 88,107 11,223 19,63 60,138 88,181z"/>
  <path class="fil1" d="M196 583c-173,103 -50,314 111,254 171,-64 58,-354 -111,-254z"/>
 </g>
</svg>
