<?xml version="1.0" encoding="UTF-8"?>
<!DOCTYPE svg PUBLIC "-//W3C//DTD SVG 1.1//EN" "http://www.w3.org/Graphics/SVG/1.1/DTD/svg11.dtd">
<!-- Creator: CorelDRAW X7 -->
<svg xmlns="http://www.w3.org/2000/svg" xml:space="preserve" width="100%" height="100%" version="1.1" style="shape-rendering:geometricPrecision; text-rendering:geometricPrecision; image-rendering:optimizeQuality; fill-rule:evenodd; clip-rule:evenodd"
viewBox="0 0 3937 4210"
 xmlns:xlink="http://www.w3.org/1999/xlink">
 <defs>
  <style type="text/css">
   <![CDATA[
    .fil0 {fill:#562e1c}
   ]]>
  </style>
 </defs>
 <g id="Layer_x0020_1">
  <metadata id="CorelCorpID_0Corel-Layer"/>
  <path class="fil0" d="M2919 1499l-176 176c-44,44 -64,7 -104,-33 -103,-100 -40,-67 -53,-116 -2,-8 -28,-38 1,-66l89 -88c58,-60 56,-9 92,-14 42,-7 24,-26 86,35 38,36 84,69 65,106zm-1387 -87c5,-13 37,-43 43,-44 25,-10 38,17 41,40l38 16c-3,7 -6,8 -10,16 -27,-6 -41,-30 -54,4 11,5 20,15 23,24l-10 11c-11,-5 -60,-56 -71,-67zm91 -67c5,9 4,8 13,14 21,-10 18,-33 41,-25 4,12 1,13 -8,21 -7,8 -13,10 -17,20 8,11 20,16 24,30l-10 10c-8,-2 -65,-55 -65,-67 2,-16 8,-18 17,-27 49,-48 32,-5 27,0 -9,10 -15,11 -22,24zm-1190 -1144c-5,9 -5,7 -10,16 -33,-4 -29,-25 -54,-2 3,11 2,8 11,16 5,6 7,7 11,15l-12 10c-10,-4 -16,-12 -24,-20 0,-1 -1,-1 -2,-2l-11 -12c-12,-12 -29,-26 -33,-37 8,-9 36,-37 44,-40 14,-4 22,2 31,12 11,12 6,13 11,29 17,4 22,11 38,15zm-187 43c19,-8 18,-17 33,-29 33,-25 47,16 47,16 9,13 16,6 27,20 16,22 -2,29 -4,41 38,26 19,5 78,52 47,38 64,60 97,102 9,11 28,26 29,39 1,26 -37,54 -38,97 24,20 70,31 119,78 7,8 10,8 17,13l161 182c5,5 11,10 14,13 33,40 87,101 127,134l67 48c12,9 22,12 36,21 12,8 18,16 34,24 15,8 24,14 37,22l118 82c28,22 49,42 74,70 30,33 94,121 123,163 8,11 16,25 23,36 24,-3 33,-46 64,-37 7,4 9,5 13,11 6,7 4,10 11,16 9,8 51,20 13,57 -10,9 -17,17 -27,26l-11 -11c6,-6 47,-39 23,-49 -26,-4 -18,15 -39,20l-8 -9c6,-11 33,-26 19,-38 -19,-7 -28,23 -46,27 3,19 5,3 19,31 9,18 73,102 80,126 4,13 9,26 14,39 20,61 56,183 77,237 10,27 21,48 27,75l50 108c7,13 13,22 19,34l35 68c46,77 73,246 85,333 8,61 14,123 24,185 23,158 26,226 1,381 -19,119 -20,157 23,262 11,27 73,138 92,168 8,14 15,18 21,32 13,27 62,99 77,133l65 142c7,16 8,17 29,21 43,9 93,32 122,37 -2,49 12,87 5,142 -6,45 -23,78 -22,123 3,88 134,39 226,33 44,-3 95,5 140,8 46,3 99,1 146,1 77,0 74,-43 43,-64 -32,-22 -88,-14 -131,-18 -7,13 -16,23 -35,23 -19,0 -26,-12 -35,-21 -12,-11 -49,-45 -56,-59 -36,-27 -42,-34 -64,-74 -15,-30 -33,-67 -39,-106l46 -10c-11,-63 -32,-124 -50,-185 -42,-140 11,-331 -40,-439 -7,-14 -20,-28 -18,-40 3,-12 15,-26 19,-43 9,-35 -18,-62 -29,-89 28,-39 32,-50 27,-111 -9,-126 48,-124 24,-174 -27,-56 -40,-112 -44,-176 -3,-47 -2,-87 13,-128 26,-76 -10,-82 -3,-123 9,-57 18,-5 16,-131 -1,-47 -7,-98 -6,-144 17,-8 63,-11 81,-11l12 106c34,10 115,-6 202,13 61,13 128,21 194,19 128,-2 285,9 393,-36 43,-18 66,-33 101,-59 10,-8 19,-19 28,-26 5,-4 11,-8 15,-12l93 -97c9,-11 19,-15 28,-25 94,-114 55,-140 23,-283 -16,-73 -13,-122 -19,-195 -3,-46 -16,-53 10,-85 4,-5 9,-12 12,-15 13,-12 28,-31 42,-41 9,-6 8,-4 16,-11 23,-20 51,-38 73,-60 11,-11 21,-14 30,-23 12,-9 16,-17 29,-25 21,-14 51,-46 63,-70 5,-9 7,-9 12,-17 57,-92 23,-200 -49,-270 -55,-54 -91,-81 -172,-98 -24,-6 -73,-11 -97,-7 -13,3 -21,12 -28,25 -8,16 -5,30 -4,48 -39,23 -102,41 -116,92 -6,19 -7,21 -21,32 -19,14 -31,23 -39,51 -4,16 -13,34 -19,52 -15,47 -20,60 -51,92 0,-1 -1,-2 -1,-2 0,0 -35,-71 -48,-86 -18,-23 -62,-33 -93,-47 -17,-8 -22,-19 -37,-29 -25,-17 -34,-31 -56,-48 -12,-8 -20,-25 -34,-36 -8,-6 -12,-11 -19,-17 -37,-34 -132,-39 -191,-86 -23,-19 -57,-37 -76,-64 -26,-38 -30,-54 -86,-55 -6,-13 -23,-29 -37,-35 -10,-4 -20,-4 -29,-7 -50,-21 -93,-64 -136,-95 -7,-6 -14,-12 -22,-18l-46 -30c-17,-13 -28,-20 -47,-30l-93 -57c-10,-6 -14,-12 -21,-16 -24,-16 -48,-27 -62,-55 -25,-50 -30,-42 -57,-76 -14,-16 -34,-31 -53,-44 -62,-41 -46,-22 -118,-15 -10,-14 -14,-20 -24,-36 -10,-17 -48,-45 -65,-58 -5,-5 -44,-52 -88,-34 -11,5 -5,8 -17,12 -13,5 -15,-1 -25,9 -11,9 -2,9 -15,15 -10,5 -13,0 -22,9 -5,4 -6,15 -9,20 -6,10 -9,6 -18,15 -3,27 6,53 20,71 18,24 26,26 48,47 -10,50 14,54 56,60 47,6 61,-15 108,-8 10,51 -12,127 -3,189 19,136 62,-8 178,79 8,6 16,16 23,23 10,9 18,13 27,23 15,15 47,36 68,53 5,4 8,8 14,12l55 42c16,10 13,11 26,24 8,7 16,10 27,19 23,19 53,54 71,76 10,11 19,29 30,40 27,24 29,43 77,45 47,1 66,23 93,51 24,24 52,49 70,80 -11,15 -23,33 -31,55 -9,25 2,50 6,75 -39,9 -64,19 -96,38 -30,18 -42,49 -57,80l-99 3c-14,-24 -47,-54 -70,-67 -30,-18 -79,-14 -155,-48 -35,-15 -82,-68 -113,-94 -32,-28 -59,-25 -111,-27 -22,-1 -33,-5 -52,-13 -34,-15 -54,-33 -86,-51 -44,-26 -91,-49 -142,-65 -93,-29 -75,-28 -135,-68 -12,-8 -19,-27 -28,-42 -19,-33 -32,-55 -67,-69 -47,-19 -53,-13 -95,-43 -32,-23 -36,-92 -78,-125 -13,-10 -20,-22 -37,-33l-162 -111c-9,-4 -15,-6 -22,-11l-39 -28c-11,-8 -12,-6 -24,-13l-155 -118c-14,-9 -24,-19 -39,-28 -16,-9 -31,-15 -46,-23 -34,-19 -54,-42 -88,-13 -26,22 -12,26 -96,-4 -64,-23 -54,-29 -90,-46 -35,-16 -55,-53 -71,-66 -22,-18 -78,-15 -105,-31 -20,-12 -44,-24 -63,-38 -10,-8 -10,-11 -20,-17 -19,-11 -73,-37 -97,-40 -73,-10 -66,92 -77,127 -5,18 -14,35 -15,54 -2,34 17,45 34,65 8,9 6,13 12,24 25,41 71,7 87,-15 28,-36 70,-10 113,-12zm2456 1198c78,-34 123,83 49,115 -76,32 -122,-83 -49,-115zm100 -74c-42,3 -23,17 -66,-3 -27,-12 -40,11 -52,22 -30,28 -51,53 -80,80 -29,27 -6,34 0,57 14,59 -63,2 83,143 9,8 17,15 33,6 41,-23 4,-50 30,-83 9,-11 69,-73 83,-77 37,-12 36,13 64,-16 23,-24 1,-36 -13,-50 -19,-18 -62,-66 -82,-79zm0 0c20,13 63,61 82,79 14,14 36,26 13,50 -28,29 -27,4 -64,16 -14,4 -74,66 -83,77 -26,33 11,60 -30,83 -16,9 -24,2 -33,-6 -146,-141 -69,-84 -83,-143 -6,-23 -29,-30 0,-57 29,-27 50,-52 80,-80 12,-11 25,-34 52,-22 43,20 24,6 66,3zm117 131c19,-37 -27,-70 -65,-106 -62,-61 -44,-42 -86,-35 -36,5 -34,-46 -92,14l-89 88c-29,28 -3,58 -1,66 13,49 -50,16 53,116 40,40 60,77 104,33l176 -176zm-217 -57c-73,32 -27,147 49,115 74,-32 29,-149 -49,-115zm-2350 -1241l-16 -15c8,-11 12,-19 28,-22 8,11 18,20 -12,37zm-43 -16c4,11 21,25 33,37l11 12c1,1 2,1 2,2 8,8 14,16 24,20l12 -10c-4,-8 -6,-9 -11,-15 -9,-8 -8,-5 -11,-16 25,-23 21,-2 54,2 5,-9 5,-7 10,-16 -16,-4 -21,-11 -38,-15 -5,-16 0,-17 -11,-29 -9,-10 -17,-16 -31,-12 -8,3 -36,31 -44,40zm1250 1223c5,-8 13,-16 23,-21 11,6 9,4 14,15 -4,9 -14,17 -22,23l-15 -17zm-27 4c11,11 60,62 71,67l10 -11c-3,-9 -12,-19 -23,-24 13,-34 27,-10 54,-4 4,-8 7,-9 10,-16l-38 -16c-3,-23 -16,-50 -41,-40 -6,1 -38,31 -43,44zm-67 56c6,11 3,7 12,13 18,-4 27,-34 46,-27 14,12 -13,27 -19,38l8 9c21,-5 13,-24 39,-20 24,10 -17,43 -23,49l11 11c10,-9 17,-17 27,-26 38,-37 -4,-49 -13,-57 -7,-6 -5,-9 -11,-16 -4,-6 -6,-7 -13,-11 -31,-9 -40,34 -64,37zm-1219 -1224l22 13c11,-38 61,-35 21,2 -8,8 -2,3 -11,7 8,10 9,5 20,14 6,-13 15,-23 30,-24l9 12c-4,13 -7,18 -22,17l13 5c5,1 16,1 21,2 2,-12 20,-19 4,-41 -11,-14 -18,-7 -27,-20 0,0 -14,-41 -47,-16 -15,12 -14,21 -33,29zm1377 1101c7,-13 13,-14 22,-24 5,-5 22,-48 -27,0 -9,9 -15,11 -17,27 0,12 57,65 65,67l10 -10c-4,-14 -16,-19 -24,-30 4,-10 10,-12 17,-20 9,-8 12,-9 8,-21 -23,-8 -20,15 -41,25 -9,-6 -8,-5 -13,-14zm1121 2773l-18 -5c-6,9 5,1 -8,9 -17,10 -39,-19 -43,-28l-57 -33c7,14 44,48 56,59 9,9 16,21 35,21 19,0 28,-10 35,-23zm-2392 -3917c30,-17 20,-26 12,-37 -16,3 -20,11 -28,22l16 15zm1207 1207l15 17c8,-6 18,-14 22,-23 -5,-11 -3,-9 -14,-15 -10,5 -18,13 -23,21zm-1291 -1151c9,3 5,0 10,9 9,-4 3,1 11,-7 40,-37 -10,-40 -21,-2zm30 23l17 5c15,1 18,-4 22,-17l-9 -12c-15,1 -24,11 -30,24zm2428 3833l-51 -19c4,9 26,38 43,28 13,-8 2,0 8,-9z"/>
 </g>
</svg>
