<?xml version="1.0" encoding="UTF-8"?>
<!DOCTYPE svg PUBLIC "-//W3C//DTD SVG 1.1//EN" "http://www.w3.org/Graphics/SVG/1.1/DTD/svg11.dtd">
<!-- Creator: CorelDRAW X7 -->
<svg xmlns="http://www.w3.org/2000/svg" xml:space="preserve" width="100%" height="100%" version="1.1" style="shape-rendering:geometricPrecision; text-rendering:geometricPrecision; image-rendering:optimizeQuality; fill-rule:evenodd; clip-rule:evenodd"
viewBox="0 0 2973 3879"
 xmlns:xlink="http://www.w3.org/1999/xlink">
 <defs>
  <style type="text/css">
   <![CDATA[
    .fil0 {fill:#562e1c}
   ]]>
  </style>
 </defs>
 <g id="Layer_x0020_1">
  <metadata id="CorelCorpID_0Corel-Layer"/>
  <path class="fil0" d="M1384 1301c-14,-5 -31,-27 -42,-38 -11,-11 -33,-25 -17,-44 6,-9 32,-41 42,-31 13,12 -18,30 -27,44l14 12c23,-9 17,-33 41,-25 5,17 -11,29 -25,37 6,20 19,16 24,35l-10 10zm-227 -966c-3,16 -27,55 -35,71 -7,12 -12,21 -20,33 -36,49 -78,97 -112,151 -43,70 -54,72 -89,122 -31,46 -64,94 -60,149 3,42 136,198 187,232 57,37 58,44 128,82 110,59 87,83 104,104 19,-7 21,-29 43,-27 21,2 29,21 31,41 15,4 27,10 38,18 -3,6 -5,7 -9,15 -35,-8 -31,-27 -53,-2 6,16 17,15 21,30l-11 10c-10,-4 -33,-28 -39,-37 -4,5 -6,-8 -3,11l0 12c13,4 22,12 21,27 0,16 -8,10 -14,28 -6,40 30,129 36,173 9,23 17,61 21,88 12,87 4,33 -1,96 -2,37 8,65 -8,98 -19,40 -29,33 -11,71 -9,14 -26,27 -37,38 -130,125 -59,261 -144,371l-57 98c-25,49 -1,74 2,94 3,14 -4,15 -4,29 6,7 -2,5 8,0l47 -47c15,-15 38,-42 53,-53 35,-26 46,13 83,2 39,-12 53,16 70,32 57,56 101,83 60,125 -19,18 -98,94 -105,108 5,4 10,7 16,11 2,-3 2,-2 5,-6 13,-15 53,-76 63,-81l4 154c6,6 10,7 18,10 -14,52 -28,105 -41,157 -9,37 -15,51 -36,61 -73,32 -130,38 -193,100l-94 100c-9,8 -14,17 -25,28 -11,12 -13,17 -23,27 -13,13 -39,46 -52,52 -13,13 -30,24 -48,35 -77,47 -38,18 -95,25 -45,5 -66,-1 -105,-6 -32,0 -37,3 -44,37 -5,23 -3,50 2,73 3,21 5,32 11,52 10,32 -7,83 20,169 12,36 19,62 33,95 13,30 24,65 70,56 50,-44 -5,-75 21,-142 9,-26 20,-40 33,-60 12,-19 20,-37 31,-58 7,-9 13,-20 20,-31 7,-10 16,-19 22,-27 15,-19 33,-38 53,-49 6,-10 59,-48 74,-58 14,-10 27,-17 41,-26 14,-9 26,-18 42,-25 14,-14 167,-97 194,-106 97,-68 114,-22 151,-41 42,-22 93,-60 97,-110 2,-21 2,-26 11,-43 14,-28 31,-75 46,-107 11,-23 20,-48 32,-72 34,-72 16,-69 62,-69 16,-32 73,-200 81,-230 19,-69 29,-89 38,-160 2,-14 -2,-26 1,-39 4,-19 17,-7 24,-50 5,-24 -1,-48 4,-65 7,-22 10,-26 13,-53 5,-42 24,-106 24,-107 1,-1 1,-1 2,-3l42 -13c8,-38 11,-54 9,-97 -2,-40 10,-60 7,-98 -1,-15 -5,-32 -8,-48l-26 -130c-35,-92 -16,-72 -9,-140 3,-30 -11,-187 17,-249 9,-66 15,-140 16,-208 38,-33 93,-30 138,-38 75,-14 206,-51 271,-83l232 -121c120,-64 120,-68 216,-138 21,-15 30,-14 44,-43 8,-18 15,-45 24,-63 16,-2 38,-3 54,-5 57,-5 49,-23 29,-27l-70 -2c13,-3 38,-7 53,-10 10,-2 17,-1 25,-8 2,-2 6,-7 6,-9 4,-15 2,-4 -1,-9 -17,-10 -60,2 -83,-1 15,-6 29,-8 46,-12 20,-6 32,-7 28,-27 -23,-8 -87,0 -112,4 3,-4 2,-2 5,-5l27 -21c10,-9 19,-18 14,-35 -9,-5 -13,-4 -23,2 -5,2 -13,9 -18,12 -7,6 -11,10 -16,14l-32 26c-6,5 -7,5 -14,12 -57,51 -34,65 -48,122 -5,21 -8,23 -26,31 -109,49 -57,40 -201,85 -82,25 -174,53 -245,98 -20,12 -18,11 -45,13 -95,6 -155,47 -242,18 -49,-16 -7,-11 -88,-18 -123,-11 -106,25 -175,44 -24,7 -80,7 -108,7 9,-45 21,-96 14,-145 -4,-28 -13,-40 -21,-63 -9,-24 7,-77 -70,-174 -13,-16 -32,-24 -54,-29 -18,-4 -114,8 -139,23 -48,32 -79,88 -97,146 -20,63 7,117 27,163 21,45 29,-8 49,69 -32,12 -109,22 -134,-1 -53,-47 -67,-62 -140,-89 -24,-9 -32,-15 -40,-37 -10,-26 0,-36 12,-55 31,-52 53,-155 137,-246 21,-23 31,-6 96,-57 17,-13 81,-53 70,-77 -12,-13 -34,4 -45,12 -19,14 -15,16 -46,16 0,-92 96,-86 100,-125 0,-2 0,-28 -1,-28 -5,-18 -1,1 -12,-17l-2 -3c-15,5 -59,54 -72,67 -10,10 -23,29 -42,30 -31,2 -27,-20 -47,-21zm-776 2422c-5,21 -13,40 -16,61 -2,13 -3,23 -6,35l-8 22c-1,0 -2,2 -2,2 0,-1 -1,1 -2,2 0,5 -22,73 -26,89 -6,27 -14,72 -14,101 -2,26 -9,75 6,96 22,34 50,15 64,-9 6,-35 7,-57 27,-82 10,-12 13,-17 26,-27 12,-9 22,-17 34,-24 28,-24 58,-46 93,-67 6,-4 10,-5 16,-9 28,-17 19,-21 67,-19l217 12c41,1 64,9 102,15 85,14 120,-6 179,-40 24,-14 98,-117 101,-131 -48,40 -59,15 -115,-43 -13,-13 -46,-41 -49,-58 -5,-32 19,-21 -2,-64l-10 -16c-1,10 -29,86 -34,99 -17,39 -70,13 -96,7 -100,-22 -142,5 -215,36 -172,72 -120,46 -189,14 -80,-37 -33,-16 -84,-49 -19,-12 -31,-10 -43,6 -5,8 -17,30 -21,41zm1294 -2753c-99,20 -160,107 -144,207 13,88 101,160 207,144 87,-13 164,-102 144,-210 -15,-84 -103,-163 -207,-141zm-513 2620c-23,-85 106,-108 121,-29 15,82 -102,105 -121,29zm45 161c9,-4 18,-12 23,-18 21,-23 -22,-33 30,-83 49,-47 52,-69 101,-64 15,1 13,2 24,-8 6,-6 15,-13 16,-25 0,-15 -59,-66 -76,-84 -17,-18 -19,-31 -54,-21 -37,11 -35,-17 -63,-11 -7,2 -35,31 -42,38 -15,15 -26,27 -40,41 -9,9 -37,32 -40,45 -4,26 22,27 11,62 -10,33 6,39 21,53 12,13 27,28 40,40 11,11 27,35 49,35zm0 0c-22,0 -38,-24 -49,-35 -13,-12 -28,-27 -40,-40 -15,-14 -31,-20 -21,-53 11,-35 -15,-36 -11,-62 3,-13 31,-36 40,-45 14,-14 25,-26 40,-41 7,-7 35,-36 42,-38 28,-6 26,22 63,11 35,-10 37,3 54,21 17,18 76,69 76,84 -1,12 -10,19 -16,25 -11,10 -9,9 -24,8 -49,-5 -52,17 -101,64 -52,50 -9,60 -30,83 -5,6 -14,14 -23,18zm-125 -224c-6,5 -2,-1 -7,8 -1,4 -2,9 -4,13 -3,9 -5,12 -8,21l10 16c21,43 -3,32 2,64 3,17 36,45 49,58 56,58 67,83 115,43 11,-8 15,-18 24,-31 7,-11 14,-21 20,-32 8,3 10,4 15,7 7,-14 86,-90 105,-108 41,-42 -3,-69 -60,-125 -17,-16 -31,-44 -70,-32 -37,11 -48,-28 -83,-2 -15,11 -38,38 -53,53l-47 47c-10,5 -2,7 -8,0zm80 63c19,76 136,53 121,-29 -15,-79 -144,-56 -121,29zm132 -1315l-18 -14c7,-11 14,-19 29,-22l9 14c-5,11 -11,15 -20,22zm-34 -30l18 59c-3,-19 -1,-6 3,-11 6,9 29,33 39,37l11 -10c-4,-15 -15,-14 -21,-30 22,-25 18,-6 53,2 4,-8 6,-9 9,-15 -11,-8 -23,-14 -38,-18 -2,-20 -10,-39 -31,-41 -22,-2 -24,20 -43,27zm-25 -1011c0,1 -1,1 -1,2l-1 17c1,10 1,18 1,27 -9,9 -18,19 -27,24 -19,1 -33,-14 -39,-28l-11 25c20,1 16,23 47,21 19,-1 32,-20 42,-30 13,-13 57,-62 72,-67l-5 -3c-18,-7 13,2 -6,-2 -27,-6 -61,18 -72,14zm-67 42c6,14 20,29 39,28 9,-5 18,-15 27,-24 0,-9 0,-17 -1,-27l1 -17c0,-1 1,-1 1,-2 7,-8 7,-6 5,-18 -17,-6 -24,2 -44,19 -7,6 -25,29 -28,41zm216 991l10 -10c-5,-19 -18,-15 -24,-35 14,-8 30,-20 25,-37 -24,-8 -18,16 -41,25l-14 -12c9,-14 40,-32 27,-44 -10,-10 -36,22 -42,31 -16,19 6,33 17,44 11,11 28,33 42,38zm-90 8c9,-7 15,-11 20,-22l-9 -14c-15,3 -22,11 -29,22l18 14zm-9 96c6,-18 14,-12 14,-28 1,-15 -8,-23 -21,-27l7 55zm-1228 1232c-2,-8 -1,-7 -4,-15 -1,-1 -2,-4 -2,-5 -6,-11 0,-1 -5,-7 -4,15 -15,15 -18,31l9 9c11,-7 7,-11 20,-13zm-57 19l7 22 5 -2c14,-8 11,-10 13,-15 -13,-17 -11,-5 -25,-5z"/>
 </g>
</svg>
