<?xml version="1.0" encoding="UTF-8"?>
<!DOCTYPE svg PUBLIC "-//W3C//DTD SVG 1.1//EN" "http://www.w3.org/Graphics/SVG/1.1/DTD/svg11.dtd">
<!-- Creator: CorelDRAW X7 -->
<svg xmlns="http://www.w3.org/2000/svg" xml:space="preserve" width="100%" height="100%" version="1.1" style="shape-rendering:geometricPrecision; text-rendering:geometricPrecision; image-rendering:optimizeQuality; fill-rule:evenodd; clip-rule:evenodd"
viewBox="0 0 92652 81904"
 xmlns:xlink="http://www.w3.org/1999/xlink">
 <defs>
  <style type="text/css">
   <![CDATA[
    .fil0 {fill:#562e1c}
   ]]>
  </style>
 </defs>
 <g id="Layer_x0020_1">
  <metadata id="CorelCorpID_0Corel-Layer"/>
  <path class="fil0" d="M46213 40721c-89,42 -86,-17 -137,127 -86,246 140,450 380,343 263,-118 135,-648 -243,-470z"/>
  <path class="fil0" d="M25101 10015c2839,-103 38541,-316 41998,-10 487,792 383,771 1215,1181l249 118c-495,1000 -1889,2478 -2718,3024 -2154,1417 -3560,1994 -4777,3744 -867,1247 -3258,966 -4891,3787 -1338,-192 -2127,-70 -3286,449 -432,194 -2310,1094 -2747,670 -365,-694 -259,-2164 230,-3007 605,-1045 1541,-495 556,-2708l-93 -237c-194,-861 445,-1484 -317,-3058 -1310,-2706 -6812,-2322 -8079,126 -559,1083 104,2334 -221,3124 -248,606 -465,526 -202,1530 205,782 406,756 888,1102 43,1462 315,1928 -48,3169l-2580 -1222c-2418,-971 -1760,629 -4385,-1357 -1077,-815 -1657,-850 -2422,-1297 -1452,-848 695,-1061 -5158,-4468 -487,-283 -2003,-1285 -2173,-1674 -174,-400 -124,-1098 -310,-1584 -311,-813 -364,-189 -729,-1402zm-25101 -1240l0 1549 7873 -103c-4,950 -84,1352 203,2072 601,122 972,11 1471,-175 -22,1893 -770,7894 2272,6378 1483,-738 564,-5677 816,-7743l105 -454c8,-33 27,-93 49,-136 -47,1667 -12,3361 -16,5032 -3,1574 -200,3408 1659,3269 2829,-211 659,-6675 1594,-8339 30,1294 24,2777 24,4143 0,1338 -318,3511 719,4007 3239,1546 2217,-3869 2413,-6721 1580,1652 1554,-1135 1757,-1508l301 589c105,270 204,576 283,840 1176,3912 1140,1691 2233,3861 546,1084 871,1614 1515,2567 1720,2545 3689,2019 4844,3491 368,469 467,750 869,1173 535,566 538,540 927,1112 1980,2915 3335,2772 4709,3659 1252,6851 2689,5664 3249,11569 288,3026 -624,3430 -1693,5760 -2280,4968 -2932,5446 -3719,11097 -122,873 -601,1845 -782,2953 -93,574 -51,1171 -136,1680 -112,663 -341,672 -644,1219 -1047,1892 -1421,10808 -1277,13617l-770 269c-26,1052 -202,1217 -979,1618 -1667,860 -1412,1513 -2629,2557 -562,482 -820,827 -629,1783l915 444 1824 0c913,-479 1035,-386 1890,-1006 1040,-755 1259,-150 2289,-672 1717,-868 724,-3370 883,-4848 170,-1577 550,-3499 1085,-4861 659,-1676 1297,-876 1740,-4365 1071,-8430 3758,-6914 6283,-11889 777,-1529 1138,-2572 1790,-4316l1298 196c1309,3462 3171,5633 5516,7993 565,568 2301,5548 1947,7036 -338,1419 -1071,2364 -173,3787 572,906 553,7663 -114,8075l116 1092c-1074,625 364,2351 327,2942 331,-34 586,-194 860,-218 728,-64 769,368 1707,574 892,196 5729,914 4494,-927 -670,-998 -1704,-1880 -2462,-2527 -453,0 -386,-555 -400,-962l-795 -804c-239,-1888 -597,231 187,-3021 647,-2678 1300,-5693 1037,-8470 -103,-1095 -294,-861 209,-1570 1413,-1994 450,-4308 -133,-6428 -1238,-4509 -1458,-6786 -4500,-11080l-1619 -2271c-489,-694 -366,-476 -365,-1473 8,-8042 1408,-6426 2893,-10835 317,-942 350,-2540 887,-3203 418,-355 2836,-277 4820,-3123 1330,-1908 1719,-3161 3615,-4353 2243,-1409 2569,-1683 4034,-3939 849,-1306 2519,-3829 3042,-5207 328,471 223,677 661,899 610,309 857,-8 1148,-246 183,1921 -912,8036 2231,6645 1204,-533 932,-2191 931,-3705 -1,-1545 30,-3116 -17,-4657 838,1814 -1186,8339 1695,8305 2877,-34 921,-6371 1664,-8241 615,2036 -898,7220 975,8079 3012,1383 2164,-4618 2203,-6485 476,299 807,473 1518,278l207 -1853 7698 71 0 -1546 -7698 -233 -211 -1921c-724,-197 -1041,-26 -1517,285 -9,-1313 -11,-2629 -4,-3942 10,-1845 12,-1932 -989,-2964l-4384 0c-1432,1337 -1014,1529 -1014,3891 0,1275 320,3481 -136,4459 27,-1547 8,-3096 10,-4644 1,-1510 258,-3054 -1018,-3432 -3115,-924 -1962,4620 -2144,6564 -502,-401 -384,-420 -1245,-286 -491,738 -346,669 -366,1801 -1119,-166 -1065,-782 -2736,-655 -1050,79 -636,-233 -1281,-129 -586,95 -659,444 -986,594 -719,330 -5312,91 -6523,77l-31132 27c-1727,18 -2269,252 -3211,-241 -2513,-1316 -3773,183 -4577,308 -314,49 -402,6 -697,-22 -7,-687 144,-1535 -307,-1945 -473,-430 -1139,-191 -1278,200 -530,-3757 907,-4764 -1046,-6567l-4405 0c-1262,1305 -985,1677 -983,3891 0,1028 186,3843 -109,4577 -235,-3032 596,-7423 -956,-8142 -2857,-1323 -2217,4129 -2159,6626 -514,-231 -884,-347 -1532,-208 -604,2293 1832,1841 -8018,2031z"/>
 </g>
</svg>
