<?xml version="1.0" encoding="UTF-8"?>
<!DOCTYPE svg PUBLIC "-//W3C//DTD SVG 1.1//EN" "http://www.w3.org/Graphics/SVG/1.1/DTD/svg11.dtd">
<!-- Creator: CorelDRAW X7 -->
<svg xmlns="http://www.w3.org/2000/svg" xml:space="preserve" width="100%" height="100%" version="1.1" style="shape-rendering:geometricPrecision; text-rendering:geometricPrecision; image-rendering:optimizeQuality; fill-rule:evenodd; clip-rule:evenodd"
viewBox="0 0 5478 2267"
 xmlns:xlink="http://www.w3.org/1999/xlink">
 <defs>
  <style type="text/css">
   <![CDATA[
    .fil0 {fill:#5F3BB9}
   ]]>
  </style>
 </defs>
 <g id="Layer_x0020_1">
  <metadata id="CorelCorpID_0Corel-Layer"/>
  <path class="fil0" d="M2865 913c11,319 -50,250 103,481 103,155 173,89 152,181 -77,13 -42,-16 -192,-64 -15,-33 9,-116 -208,-153 -52,61 -101,156 -124,262l-40 232c-7,68 7,47 -26,84 -86,-24 -47,-76 -38,-143 11,-82 -6,-128 21,-206 85,-245 -6,-112 41,-372 8,-47 25,-155 -9,-192 -69,-72 -82,69 -140,-48l-108 -351c1,1 2,2 3,2l-101 -234 7 -3 2 -1c-59,12 -121,-21 -144,-76 -53,-126 37,-219 113,-202 97,21 184,181 52,272 -6,2 -11,4 -17,5l112 262c72,82 113,256 137,290 221,-95 189,-106 183,-186 -4,-70 -3,-126 93,-111 94,14 66,81 51,161 424,-72 284,-173 413,-167 -52,98 -65,77 -150,147l-85 68c-54,44 -30,37 -101,62zm-294 -686l34 -67 73 65 -91 20c-1,8 -8,15 -16,15 -9,0 -16,-7 -16,-17 0,-9 7,-16 16,-16l0 0zm-2571 2040l5478 0 0 -2267 -5478 0 0 2267z"/>
 </g>
</svg>
