<?xml version="1.0" encoding="UTF-8"?>
<!DOCTYPE svg PUBLIC "-//W3C//DTD SVG 1.1//EN" "http://www.w3.org/Graphics/SVG/1.1/DTD/svg11.dtd">
<!-- Creator: CorelDRAW X7 -->
<svg xmlns="http://www.w3.org/2000/svg" xml:space="preserve" width="100%" height="100%" version="1.1" style="shape-rendering:geometricPrecision; text-rendering:geometricPrecision; image-rendering:optimizeQuality; fill-rule:evenodd; clip-rule:evenodd"
viewBox="0 0 5478 2267"
 xmlns:xlink="http://www.w3.org/1999/xlink">
 <defs>
  <style type="text/css">
   <![CDATA[
    .fil0 {fill:#2C87EF}
   ]]>
  </style>
 </defs>
 <g id="Layer_x0020_1">
  <metadata id="CorelCorpID_0Corel-Layer"/>
  <path class="fil0" d="M2999 582c13,55 112,257 210,284 147,-104 61,-132 155,-273 53,33 72,38 90,108 -37,62 -68,62 -123,160 -37,68 -61,108 -116,175 -91,-21 -78,-40 -129,-100 -55,-63 -56,-50 -94,-126 -114,46 -285,221 -339,304 50,41 111,44 163,75 40,23 105,74 145,110 12,178 -129,275 -211,373 -189,227 43,223 68,385 -141,-5 -231,-83 -323,-134 20,-96 99,-148 148,-247 44,-88 78,-192 123,-288l-259 -17c-65,83 -93,93 -166,155 -78,67 -43,71 -167,151 -369,236 -144,352 -214,399 -46,30 -101,-124 -111,-145 -30,-62 -17,-4 -40,-83 51,-47 30,-16 88,-52 101,-62 117,-151 182,-213 73,-71 68,-14 129,-135 31,-62 93,-140 92,-179 -4,-74 -61,-75 0,-198 55,-112 72,-46 125,-139l164 -385c-98,-20 -84,-12 -162,-62 -80,-52 -77,-46 -179,-12 -379,125 -143,88 -296,176 -54,31 -110,45 -115,-42 -5,-104 49,-86 132,-110 101,-30 214,-129 322,-153 88,-20 288,44 384,67 85,20 91,68 159,66 101,-5 49,-67 67,-142 46,-182 356,-118 249,160 -44,115 -61,55 -151,87zm-2988 1680l5455 0 0 -2257 -5455 0 0 2257z"/>
 </g>
</svg>
