<?xml version="1.0" encoding="UTF-8"?>
<!DOCTYPE svg PUBLIC "-//W3C//DTD SVG 1.1//EN" "http://www.w3.org/Graphics/SVG/1.1/DTD/svg11.dtd">
<!-- Creator: CorelDRAW X7 -->
<svg xmlns="http://www.w3.org/2000/svg" xml:space="preserve" width="100%" height="100%" version="1.1" style="shape-rendering:geometricPrecision; text-rendering:geometricPrecision; image-rendering:optimizeQuality; fill-rule:evenodd; clip-rule:evenodd"
viewBox="0 0 5478 2267"
 xmlns:xlink="http://www.w3.org/1999/xlink">
 <defs>
  <style type="text/css">
   <![CDATA[
    .fil0 {fill:#6CB71D}
   ]]>
  </style>
 </defs>
 <g id="Layer_x0020_1">
  <metadata id="CorelCorpID_0Corel-Layer"/>
  <g id="_489403976768">
   <path class="fil0" d="M2257 2013c-47,-97 10,-104 -12,-192 -32,-23 -110,-70 -169,-76 -17,-1 -235,77 -92,-109 17,-22 7,-10 17,-21 22,-24 13,-21 45,-39 82,50 5,73 97,98 24,7 131,18 174,27 -4,-76 -31,-92 -31,-136 0,-237 124,-277 -2,-485l-248 27c-22,-73 -1,-183 18,-252 26,-103 -24,-42 49,-69 51,21 27,-13 36,42 20,111 -27,-54 -53,190 58,-12 80,-34 129,-61 70,-37 82,-20 134,-75 -7,-16 -160,-160 -9,-197 102,-26 130,105 158,163 34,-55 50,-47 96,-100l172 -245c42,-90 17,-101 95,-110 1,2 1,5 1,8 0,4 0,7 0,8l-65 125c-42,68 -77,152 -119,224 -130,221 -38,268 -84,560 -23,142 5,101 65,221 29,57 98,184 37,239 -22,20 -206,59 -264,78 -132,44 -103,119 -175,157zm200 -1178c-22,19 37,77 15,27 -1,0 25,-62 -15,-27zm549 -785c193,1 177,186 59,200 -145,17 -136,-111 -59,-200zm-3027 2217l5499 0 0 -2276 -5499 0 0 2276z"/>
   <path class="fil0" d="M2445 1752l132 -56 -95 -90c-19,21 -15,-19 -31,65 -5,23 -5,53 -6,81z"/>
  </g>
 </g>
</svg>
