<?xml version="1.0" encoding="UTF-8"?>
<!DOCTYPE svg PUBLIC "-//W3C//DTD SVG 1.1//EN" "http://www.w3.org/Graphics/SVG/1.1/DTD/svg11.dtd">
<!-- Creator: CorelDRAW X7 -->
<svg xmlns="http://www.w3.org/2000/svg" xml:space="preserve" width="100%" height="100%" version="1.1" style="shape-rendering:geometricPrecision; text-rendering:geometricPrecision; image-rendering:optimizeQuality; fill-rule:evenodd; clip-rule:evenodd"
viewBox="0 0 5478 2267"
 xmlns:xlink="http://www.w3.org/1999/xlink">
 <defs>
  <style type="text/css">
   <![CDATA[
    .fil0 {fill:#E09E1A}
   ]]>
  </style>
 </defs>
 <g id="Layer_x0020_1">
  <metadata id="CorelCorpID_0Corel-Layer"/>
  <path class="fil0" d="M2935 493c4,6 64,8 -14,93 -78,83 -147,156 -131,355 89,4 69,-14 97,60 -34,63 -31,47 -121,47 35,493 287,634 226,879 -26,107 -18,21 9,130l-700 -2c12,-115 36,-13 14,-110 -45,-191 -17,-82 45,-302 1,-3 2,-9 3,-12 1,-3 3,-8 4,-11 3,-6 11,-17 22,-33 104,-159 149,-323 155,-543 -158,11 -168,-55 -95,-94 21,-12 9,-4 30,-11 5,-2 11,-3 16,-4l32 -9c-7,-356 -279,-394 -133,-446l502 -1c47,6 12,-7 39,14zm-333 -247c135,-96 233,131 107,189 -82,38 -182,-31 -159,-123 16,-63 18,-42 52,-66zm-2610 2020l5494 0 0 -2266 -5494 0 0 2266z"/>
 </g>
</svg>
