<?xml version="1.0" encoding="UTF-8"?>
<!DOCTYPE svg PUBLIC "-//W3C//DTD SVG 1.1//EN" "http://www.w3.org/Graphics/SVG/1.1/DTD/svg11.dtd">
<!-- Creator: CorelDRAW X7 -->
<svg xmlns="http://www.w3.org/2000/svg" xml:space="preserve" width="100%" height="100%" version="1.1" style="shape-rendering:geometricPrecision; text-rendering:geometricPrecision; image-rendering:optimizeQuality; fill-rule:evenodd; clip-rule:evenodd"
viewBox="0 0 5478 2267"
 xmlns:xlink="http://www.w3.org/1999/xlink">
 <defs>
  <style type="text/css">
   <![CDATA[
    .fil0 {fill:#E09E1A}
   ]]>
  </style>
 </defs>
 <g id="Layer_x0020_1">
  <metadata id="CorelCorpID_0Corel-Layer"/>
  <path class="fil0" d="M3187 1146c22,-102 -17,-29 53,-65l5 68c18,-32 31,-51 -15,-82 -31,-21 -301,16 -341,24 -14,239 58,49 -12,538 -61,419 61,209 149,382 -359,0 -278,-91 -272,-172 -193,-31 -58,-190 -59,-469 -1,-94 -28,-177 -36,-266 -13,-148 6,-153 -90,-230 -220,-178 -275,-162 -411,-343 -40,-53 -35,-36 -79,-74 -185,-161 -35,4 -183,-61 -75,-338 599,169 695,230 82,53 167,133 264,111 27,-75 -212,-246 227,-168 147,26 129,64 232,90 53,-86 76,-162 222,-104 72,58 61,131 10,170 -68,52 -56,50 -152,74 31,221 49,135 -31,351 -49,132 -231,184 -176,-4zm-3208 1111l5475 0 0 -2266 -5475 0 0 2266z"/>
 </g>
</svg>
