<?xml version="1.0" encoding="UTF-8"?>
<!DOCTYPE svg PUBLIC "-//W3C//DTD SVG 1.1//EN" "http://www.w3.org/Graphics/SVG/1.1/DTD/svg11.dtd">
<!-- Creator: CorelDRAW X7 -->
<svg xmlns="http://www.w3.org/2000/svg" xml:space="preserve" width="100%" height="100%" version="1.1" style="shape-rendering:geometricPrecision; text-rendering:geometricPrecision; image-rendering:optimizeQuality; fill-rule:evenodd; clip-rule:evenodd"
viewBox="0 0 5478 2267"
 xmlns:xlink="http://www.w3.org/1999/xlink">
 <defs>
  <style type="text/css">
   <![CDATA[
    .fil0 {fill:#B51B43}
   ]]>
  </style>
 </defs>
 <g id="Layer_x0020_1">
  <metadata id="CorelCorpID_0Corel-Layer"/>
  <g id="_489404029824">
   <path class="fil0" d="M2624 442c-39,-77 1,-157 60,-211 78,-30 174,52 84,254 182,86 197,178 157,430 -22,135 -61,137 45,347 21,42 86,92 34,199 -83,169 -119,165 -14,287 39,45 92,124 139,162 93,76 152,7 239,46 -4,87 -39,82 -145,65 -124,-20 -104,-59 -228,-220l-106 -114c-20,64 -49,88 -64,155 55,69 95,38 73,119l-21 51 -169 -18c76,-39 29,2 48,-29 -83,-13 -78,20 -132,33 8,-33 23,-96 34,-131 13,-38 26,-53 41,-90 32,-75 98,-242 48,-310 -72,-96 -75,-2 -147,-78 -48,-52 -11,-39 -69,-80 -30,158 -107,213 -167,284 -209,245 -202,188 -214,363l-25 73c-101,-5 -39,-16 -164,-72 59,-70 153,-356 248,-443 137,-127 43,-86 52,-209 8,-105 59,-182 73,-271 -87,-102 -68,-24 -68,-187 0,-104 -57,-140 1,-215 160,-209 307,-172 357,-190zm-2625 1815l5455 0 0 -2257 -5455 0 0 2257z"/>
   <path class="fil0" d="M2712 1377c29,53 55,94 98,100 10,-11 66,-26 2,-75 -26,-20 -71,-22 -100,-25z"/>
  </g>
 </g>
</svg>
