<?xml version="1.0" encoding="UTF-8"?>
<!DOCTYPE svg PUBLIC "-//W3C//DTD SVG 1.1//EN" "http://www.w3.org/Graphics/SVG/1.1/DTD/svg11.dtd">
<!-- Creator: CorelDRAW X7 -->
<svg xmlns="http://www.w3.org/2000/svg" xml:space="preserve" width="100%" height="100%" version="1.1" style="shape-rendering:geometricPrecision; text-rendering:geometricPrecision; image-rendering:optimizeQuality; fill-rule:evenodd; clip-rule:evenodd"
viewBox="0 0 5478 2267"
 xmlns:xlink="http://www.w3.org/1999/xlink">
 <defs>
  <style type="text/css">
   <![CDATA[
    .fil0 {fill:#2C87EF}
   ]]>
  </style>
 </defs>
 <g id="Layer_x0020_1">
  <metadata id="CorelCorpID_0Corel-Layer"/>
  <g id="_489404025248">
   <path class="fil0" d="M3463 735c66,117 252,-17 306,39 33,46 21,95 24,166 3,86 15,64 -26,127 -87,-4 -115,-35 -206,3 -105,255 110,166 226,195l3 279c-74,2 -270,-63 -315,10 -67,111 102,228 -138,218 -77,-139 18,-178 -54,-229 -50,-37 -239,-22 -287,1 -5,-107 -3,-232 -16,-288 -151,-59 -100,148 -100,290 -262,0 -302,75 -289,-80 19,-236 -176,-126 -189,-109 -84,103 166,255 -313,202 12,-79 30,-219 -3,-299 -135,-55 -238,87 -227,-147 154,-95 297,90 244,-271 -8,-52 -31,-65 41,-89 96,-32 153,-25 241,-1 7,159 -37,318 193,229 33,-80 8,-98 19,-173 1,-6 2,-11 3,-16 8,-36 23,-50 57,-57 5,-1 11,-3 16,-4 70,-10 135,17 205,21 -31,64 -25,236 -4,307 275,82 -61,-339 195,-294 429,76 86,-173 280,-250 159,-63 99,183 114,220zm-3484 1532l5499 0 0 -2276 -5499 0 0 2276z"/>
   <path class="fil0" d="M3086 1281c152,-23 135,-50 135,-192 -71,-53 -22,-53 -142,-55 26,82 76,63 36,177 -26,74 -9,-21 -29,70z"/>
  </g>
 </g>
</svg>
