<?xml version="1.0" encoding="UTF-8"?>
<!DOCTYPE svg PUBLIC "-//W3C//DTD SVG 1.1//EN" "http://www.w3.org/Graphics/SVG/1.1/DTD/svg11.dtd">
<!-- Creator: CorelDRAW X7 -->
<svg xmlns="http://www.w3.org/2000/svg" xml:space="preserve" width="100%" height="100%" version="1.1" style="shape-rendering:geometricPrecision; text-rendering:geometricPrecision; image-rendering:optimizeQuality; fill-rule:evenodd; clip-rule:evenodd"
viewBox="0 0 5478 2267"
 xmlns:xlink="http://www.w3.org/1999/xlink">
 <defs>
  <style type="text/css">
   <![CDATA[
    .fil0 {fill:#5732B6}
   ]]>
  </style>
 </defs>
 <g id="Layer_x0020_1">
  <metadata id="CorelCorpID_0Corel-Layer"/>
  <g id="_489392837232">
   <path class="fil0" d="M2654 1704c168,-99 307,153 136,231 -158,71 -288,-141 -136,-231zm-272 -673c-52,-75 7,-46 -50,-109 -24,-26 -39,-5 -78,-69 -33,-54 -48,-162 -11,-240 86,-183 226,-120 366,-218 4,-44 -77,-181 45,-221 74,-25 167,34 116,202 156,7 306,89 355,248 48,158 -89,188 -93,190 -134,68 -105,166 -108,196 -9,76 -50,193 -50,249 0,28 45,189 61,233 23,69 38,164 69,233 35,76 94,112 121,175 -25,17 -80,42 -103,50 -61,-56 -99,-176 -146,-264 -138,-251 -49,-103 -101,-273 -181,172 -248,120 -269,262 -19,125 -17,110 -53,139 -76,-40 -51,-51 -59,-141 -5,-54 -23,-95 -19,-109 35,-71 72,-26 159,-131 83,-101 84,-23 112,-184 -90,-75 -53,-35 -117,-144 -56,-97 -59,-53 -147,-74zm-2368 1247l5501 0 0 -2268 -5501 0 0 2268z"/>
   <path class="fil0" d="M2497 924c6,-91 -6,-170 -63,-236 -104,19 -71,39 -50,105 39,123 -3,95 113,131z"/>
   <path class="fil0" d="M2501 999c-21,-54 3,-27 -47,-48 19,60 -18,22 47,48z"/>
  </g>
 </g>
</svg>
