<?xml version="1.0" encoding="UTF-8"?>
<!DOCTYPE svg PUBLIC "-//W3C//DTD SVG 1.1//EN" "http://www.w3.org/Graphics/SVG/1.1/DTD/svg11.dtd">
<!-- Creator: CorelDRAW X7 -->
<svg xmlns="http://www.w3.org/2000/svg" xml:space="preserve" width="100%" height="100%" version="1.1" style="shape-rendering:geometricPrecision; text-rendering:geometricPrecision; image-rendering:optimizeQuality; fill-rule:evenodd; clip-rule:evenodd"
viewBox="0 0 5478 2267"
 xmlns:xlink="http://www.w3.org/1999/xlink">
 <defs>
  <style type="text/css">
   <![CDATA[
    .fil0 {fill:#5F3BBA}
   ]]>
  </style>
 </defs>
 <g id="Layer_x0020_1">
  <metadata id="CorelCorpID_0Corel-Layer"/>
  <path class="fil0" d="M2854 682c21,-109 3,-183 -5,-296 -12,-160 -29,-138 -74,-238 59,12 43,21 66,31 2,0 7,3 9,3 1,1 6,2 8,2l19 -5c8,118 53,241 70,370 24,183 24,189 105,324l223 417c19,52 28,101 58,142l-30 51c-70,136 21,72 -81,146 -67,49 -126,73 -182,114l5 105c14,4 39,10 53,19 48,29 -7,-33 33,33 -72,1 -126,-13 -173,-27 -25,76 44,-21 -19,71 -82,-7 -129,-70 -186,-166 22,-26 -12,-1 40,-33l280 -148c-49,-133 -31,16 -56,-105 -61,-296 -9,-64 -108,-322 -137,-360 -579,5 -624,-513 -14,-161 -151,-272 -103,-436 86,34 85,146 93,240 44,502 349,482 471,355 -66,-63 -227,-77 -52,-223 84,10 3,-20 81,31l79 58zm-2831 1585l5455 0 0 -2257 -5455 0 0 2257z"/>
 </g>
</svg>
