<?xml version="1.0" encoding="UTF-8"?>
<!DOCTYPE svg PUBLIC "-//W3C//DTD SVG 1.1//EN" "http://www.w3.org/Graphics/SVG/1.1/DTD/svg11.dtd">
<!-- Creator: CorelDRAW X7 -->
<svg xmlns="http://www.w3.org/2000/svg" xml:space="preserve" width="100%" height="100%" version="1.1" style="shape-rendering:geometricPrecision; text-rendering:geometricPrecision; image-rendering:optimizeQuality; fill-rule:evenodd; clip-rule:evenodd"
viewBox="0 0 5478 2267"
 xmlns:xlink="http://www.w3.org/1999/xlink">
 <defs>
  <style type="text/css">
   <![CDATA[
    .fil0 {fill:#328AEF}
    .fil1 {fill:#328AEF;fill-rule:nonzero}
   ]]>
  </style>
 </defs>
 <g id="Layer_x0020_1">
  <metadata id="CorelCorpID_0Corel-Layer"/>
  <g id="_489392748912">
   <path class="fil0" d="M2611 386c462,-92 815,223 891,593 95,458 -231,819 -596,894 -448,91 -819,-231 -894,-586 -98,-469 229,-828 599,-901zm-2632 1889l5520 0 0 -2284 -5520 0 0 2284z"/>
   <path class="fil1" d="M2754 549c160,0 305,65 409,170 105,105 170,249 170,409 0,160 -65,305 -170,410 -104,104 -249,169 -409,169 -160,0 -305,-65 -409,-169 -105,-105 -170,-250 -170,-410 0,-160 65,-304 170,-409 104,-105 249,-170 409,-170zm403 176c-103,-103 -246,-166 -403,-166 -157,0 -300,63 -403,166 -103,104 -167,246 -167,403 0,158 64,300 167,403 103,103 246,167 403,167 157,0 300,-64 403,-167 103,-103 167,-245 167,-403 0,-157 -64,-299 -167,-403z"/>
   <path class="fil1" d="M2754 715c118,0 224,48 301,125 77,77 125,183 125,301 0,117 -48,224 -125,301 -77,77 -183,124 -301,124 -117,0 -224,-47 -301,-124 -77,-77 -124,-184 -124,-301 0,-118 47,-224 124,-301 77,-77 184,-125 301,-125zm294 132c-75,-75 -179,-122 -294,-122 -115,0 -219,47 -294,122 -75,75 -122,179 -122,294 0,115 47,219 122,294 75,75 179,122 294,122 115,0 219,-47 294,-122 76,-75 122,-179 122,-294 0,-115 -46,-219 -122,-294z"/>
   <path class="fil1" d="M2752 928c56,0 107,22 144,59 36,37 59,88 59,144 0,56 -23,106 -59,143 -37,37 -88,59 -144,59 -56,0 -107,-22 -143,-59 -37,-37 -60,-87 -60,-143 0,-56 23,-107 60,-144 36,-37 87,-59 143,-59zm137 66c-35,-35 -83,-57 -137,-57 -53,0 -102,22 -137,57 -35,35 -57,83 -57,137 0,53 22,101 57,137 35,35 84,56 137,56 54,0 102,-21 137,-56 35,-36 57,-84 57,-137 0,-54 -22,-102 -57,-137z"/>
  </g>
 </g>
</svg>
