<?xml version="1.0" encoding="UTF-8"?>
<!DOCTYPE svg PUBLIC "-//W3C//DTD SVG 1.1//EN" "http://www.w3.org/Graphics/SVG/1.1/DTD/svg11.dtd">
<!-- Creator: CorelDRAW X7 -->
<svg xmlns="http://www.w3.org/2000/svg" xml:space="preserve" width="100%" height="100%" version="1.1" style="shape-rendering:geometricPrecision; text-rendering:geometricPrecision; image-rendering:optimizeQuality; fill-rule:evenodd; clip-rule:evenodd"
viewBox="0 0 3233 3230"
 xmlns:xlink="http://www.w3.org/1999/xlink">
 <defs>
  <style type="text/css">
   <![CDATA[
    .fil0 {fill:#FEFEFE}
   ]]>
  </style>
 </defs>
 <g id="Layer_x0020_1">
  <metadata id="CorelCorpID_0Corel-Layer"/>
  <path class="fil0" d="M1156 1391c157,-37 293,-137 490,-84 175,46 219,191 178,393 -99,491 -340,815 152,695 -14,99 -12,97 -47,117 -68,40 -272,97 -384,91 -476,-28 -210,-579 -147,-844 17,-75 53,-215 -9,-264 -71,-55 -183,-3 -256,7 10,-34 14,-65 23,-111zm516 -751c304,-112 476,325 174,428 -309,105 -477,-317 -174,-428zm-248 -626c-324,47 -619,166 -851,365l-200 202c-225,281 -427,737 -360,1233 52,379 208,689 461,943 618,618 1640,643 2283,0 304,-304 537,-800 461,-1340 -55,-397 -266,-803 -568,-1044 -277,-222 -735,-430 -1226,-359z"/>
 </g>
</svg>
