<?xml version="1.0" encoding="UTF-8"?>
<!DOCTYPE svg PUBLIC "-//W3C//DTD SVG 1.1//EN" "http://www.w3.org/Graphics/SVG/1.1/DTD/svg11.dtd">
<!-- Creator: CorelDRAW X7 -->
<svg xmlns="http://www.w3.org/2000/svg" xml:space="preserve" width="100%" height="100%" version="1.1" style="shape-rendering:geometricPrecision; text-rendering:geometricPrecision; image-rendering:optimizeQuality; fill-rule:evenodd; clip-rule:evenodd"
viewBox="0 0 1424 1798"
 xmlns:xlink="http://www.w3.org/1999/xlink">
 <defs>
  <style type="text/css">
   <![CDATA[
    .fil0 {fill:white}
   ]]>
  </style>
 </defs>
 <g id="Layer_x0020_1">
  <metadata id="CorelCorpID_0Corel-Layer"/>
  <path class="fil0" d="M710 1662c219,53 635,318 714,-80l-541 -271c-111,42 -113,104 -230,-32 -51,-58 -116,-139 -164,-211 -100,-152 -288,-386 -89,-448 -9,-184 -76,-454 -65,-620 -128,0 -216,-9 -264,98 -31,70 -55,184 -64,270 -43,418 112,693 338,997 132,176 295,221 365,297z"/>

  
 </g>
</svg>
