<?xml version="1.0" encoding="UTF-8"?>
<!DOCTYPE svg PUBLIC "-//W3C//DTD SVG 1.1//EN" "http://www.w3.org/Graphics/SVG/1.1/DTD/svg11.dtd">
<!-- Creator: CorelDRAW X7 -->
<svg xmlns="http://www.w3.org/2000/svg" xml:space="preserve" width="100%" height="100%" version="1.1" style="shape-rendering:geometricPrecision; text-rendering:geometricPrecision; image-rendering:optimizeQuality; fill-rule:evenodd; clip-rule:evenodd"
viewBox="0 0 1087 3543"
 xmlns:xlink="http://www.w3.org/1999/xlink">
 <defs>
  <style type="text/css">
   <![CDATA[
    .fil0 {fill:white}
   ]]>
  </style>
 </defs>
 <g id="Layer_x0020_1">
  <metadata id="CorelCorpID_0Corel-Layer"/>
  <path class="fil0" d="M590 2913l33 0 12 1 4 269 -12 2 -37 0 0 -272zm-67 0l40 0c8,13 3,212 4,240 0,5 0,13 0,17l-3 14 -41 0 -3 -241c0,-4 -1,-12 0,-17 0,-4 0,-4 1,-8 0,-1 1,-1 1,-3 0,-1 1,-1 1,-2zm-72 1l46 -1 0 272 -37 0 -13 -2 4 -269zm140 -440l38 1 4 271 -43 0 1 -272zm-67 0l40 0 0 272 -42 0 2 -272zm-66 1l39 -1 -1 272 -43 0 5 -271zm132 -422l34 0 3 220 0 52 -37 0 0 -272zm-67 0l40 0 1 271 -5 2c-6,1 -27,3 -36,-2 -7,-13 -3,-186 -3,-207 0,-15 -3,-54 3,-64zm-63 240l2 -240 35 0 0 270c-6,4 6,2 -10,4 0,0 -10,0 -10,0 -21,0 -17,-3 -17,-3 -4,-7 -6,-21 0,-31zm-360 -480c32,0 67,27 67,60 0,35 -4,72 -9,105 -5,34 -8,71 -11,103l-52 520c-18,130 -26,284 -43,418 -4,33 -6,70 -11,106l-21 208c-4,43 -20,180 -20,210l1077 0c17,0 8,-20 6,-43l-90 -883c-11,-163 -42,-363 -53,-524 -5,-65 -20,-159 -20,-220 0,-18 10,-33 21,-42l42 -21 -323 0 0 47 -233 0 0 -47 -327 3zm60 -1160c26,112 51,226 74,340 24,120 42,211 59,331 1,10 -1,16 10,16l480 0c14,0 15,-54 20,-84 5,-31 10,-57 15,-88l70 -343c13,-59 25,-115 39,-172 -11,-2 -9,-4 -19,-11 -7,-5 -11,-7 -18,-12 -145,-110 -222,-249 -272,-425 -10,-34 -18,-66 -25,-101l-13 -81c-1,-21 2,-23 -15,-23l-10 0 -2 0c0,43 -2,715 2,729 15,55 93,28 108,88 27,103 2,69 49,104 11,8 12,8 15,22l6 114c-2,-4 0,0 -3,-7 -16,-35 -21,-61 -63,-93 -71,-54 -182,-53 -248,-1 -14,11 -27,27 -38,42 -16,22 -14,28 -23,47l-5 8c0,-29 4,-48 4,-73 -1,-92 41,-42 52,-101 13,-67 9,-82 52,-101 16,-8 53,-18 62,-31l10 -21 0 -726 -26 0c0,126 -80,358 -156,468 -44,65 -123,149 -191,185zm373 784c44,0 75,7 106,37 57,56 54,150 -1,201 -37,35 -98,51 -149,26 -52,-24 -80,-62 -85,-122 -5,-68 57,-142 129,-142zm-336 10c0,18 2,21 3,36 2,43 0,70 6,124 2,13 0,27 1,40l6 123 660 0c0,-54 5,-105 7,-160 0,-17 3,-19 3,-37 1,-14 -1,-28 1,-42l6 -81c-22,-14 -101,-73 -117,-73l-460 0c-21,0 -94,64 -116,70zm346 120l-66 -40c-4,7 -5,8 -7,16 78,42 46,24 57,47 10,-2 9,-5 16,-4 9,0 3,3 17,4 6,-26 -8,-11 32,-35 16,-9 45,-21 44,-31 -2,-15 -23,2 -44,15 -17,10 -33,17 -49,28zm-20 1617l41 0 3 -14c0,-4 0,-12 0,-17 -1,-28 4,-227 -4,-240l1 271 -41 0 0 -271c0,1 -1,1 -1,2 0,2 -1,2 -1,3 -1,4 -1,4 -1,8 -1,5 0,13 0,17l3 241zm0 -860c9,5 30,3 36,2l5 -2 -1 -271 1 271 -41 0 0 -271c-6,10 -3,49 -3,64 0,21 -4,194 3,207zm-63 0c0,0 -4,3 17,3 0,0 10,0 10,0 16,-2 4,0 10,-4l-37 1 0 -31c-6,10 -4,24 0,31z"/>
 </g>
</svg>
