<?xml version="1.0" encoding="UTF-8"?>
<!DOCTYPE svg PUBLIC "-//W3C//DTD SVG 1.1//EN" "http://www.w3.org/Graphics/SVG/1.1/DTD/svg11.dtd">
<!-- Creator: CorelDRAW X7 -->
<svg xmlns="http://www.w3.org/2000/svg" xml:space="preserve" width="100%" height="100%" version="1.1" style="shape-rendering:geometricPrecision; text-rendering:geometricPrecision; image-rendering:optimizeQuality; fill-rule:evenodd; clip-rule:evenodd"
viewBox="0 0 3461 3862"
 xmlns:xlink="http://www.w3.org/1999/xlink">
 <defs>
  <style type="text/css">
   <![CDATA[
    .fil0 {fill:#FEFEFE}
    .fil1 {fill:#FEFEFE;fill-opacity:0.109804}
   ]]>
  </style>
 </defs>
 <g id="Layer_x0020_1">
  <metadata id="CorelCorpID_0Corel-Layer"/>
  <g id="_719710917504">
   <path class="fil0" d="M2121 2931c2,1 5,-7 5,-4l0 0c-1,0 -6,2 -5,4z"/>
   <path class="fil0" d="M2121 2931l5 -5c-1,1 -6,3 -5,5z"/>
   <path class="fil1" d="M2121 2931c2,1 5,-7 5,-4l0 0c-1,0 -6,2 -5,4z"/>
   <path class="fil1" d="M2121 2931l5 -5c-1,1 -6,3 -5,5z"/>
   <path class="fil0" d="M579 3693c11,19 15,32 46,30 7,-27 -1,-7 0,-32l1 -9c0,-1 0,-3 1,-5 59,22 7,104 -45,55 -11,-10 -17,-20 -27,-30 -15,-14 -20,-10 -21,-32 35,-3 8,21 40,-4 17,-13 9,-22 27,-18 11,16 0,17 -22,45l0 0zm-272 -1928l1 -354 2851 2c-15,81 -3,312 -3,409l0 1207c3,351 57,526 -288,526l-1615 0c-126,0 -721,11 -797,-11 -153,-44 -148,-157 -148,-260 0,-134 0,-268 0,-402 0,-263 -10,-543 0,-805 -80,-64 -84,-225 -17,-298 13,-15 2,-4 16,-14l0 0zm79 2095l52 -57c22,-3 37,3 51,15 29,26 26,24 31,42l1633 1c-1,-150 93,-243 236,-244 146,-2 236,105 237,244 149,0 298,0 447,0 172,0 255,-5 335,-114 71,-95 50,-261 50,-399 0,-149 0,-298 0,-447 0,-147 8,-1686 -2,-1787l-3451 3c-8,256 0,525 0,782l0 1571c0,134 -3,232 76,310 74,72 167,90 305,80l0 0zm1767 1l71 0c-19,-225 327,-261 357,0l45 0c-1,-139 -91,-246 -237,-245 -143,2 -237,95 -236,245l0 0zm71 0l50 0c-13,-184 259,-177 267,1l40 -1c-30,-261 -376,-225 -357,0zm50 0l53 0c-1,-46 27,-78 75,-77 51,2 74,32 84,77l55 1c-8,-178 -280,-185 -267,-1l0 0zm53 0l159 0c-10,-45 -33,-75 -84,-77 -48,-1 -76,31 -75,77zm-1941 -1l134 0c-5,-18 -2,-16 -31,-42 -14,-12 -29,-18 -51,-15l-52 57 0 0zm193 -167c22,-28 33,-29 22,-45 -18,-4 -10,5 -27,18 -32,25 -5,1 -40,4 1,22 6,18 21,32 10,10 16,20 27,30 52,49 104,-33 45,-55 -1,2 -1,4 -1,5l-1 9c0,25 7,5 0,32 -31,2 -35,-11 -46,-30l0 0zm-271 -1616l-1 -312c-14,10 -3,-1 -16,14 -67,73 -63,234 17,298z"/>
   <path class="fil0" d="M1856 560c16,3 25,18 37,34 81,116 0,299 -161,299 -191,0 -256,-246 -127,-335 3,59 -5,101 21,150 46,84 166,81 211,0 26,-46 19,-89 19,-148l0 0zm-873 -2c0,57 -6,107 21,152 19,31 53,61 108,60 145,-4 118,-185 124,-215 136,114 50,331 -117,338 -222,9 -247,-278 -136,-335l0 0zm2123 1c61,58 80,141 46,219 -96,224 -437,88 -360,-138 10,-30 32,-75 62,-84l0 46c-1,109 55,192 158,164 37,-11 67,-42 80,-74 16,-39 7,-86 14,-133l0 0zm-2749 1c5,34 -16,212 129,210 54,-1 89,-33 107,-68 24,-45 15,-95 17,-149 115,61 94,335 -117,340 -183,4 -261,-215 -136,-333l0 0zm2124 -2c23,11 49,54 59,92 61,233 -280,346 -367,118 -16,-40 -17,-87 -3,-129 18,-52 41,-65 58,-85 5,39 -19,211 123,216 142,5 128,-159 130,-212l0 0zm0 -379c-44,17 -64,41 -130,40 -62,-1 -79,-19 -122,-36l1 225 -374 0c2,-87 3,-185 1,-271 -6,-180 -246,-186 -250,5 -2,88 -1,178 0,266l-374 -1c1,-88 2,-183 0,-271 -2,-73 -52,-137 -127,-136 -184,5 -100,258 -125,408l-369 -1c-27,-146 62,-401 -126,-405 -75,-2 -125,65 -126,140 -1,88 -1,177 0,265 -87,1 -136,-6 -209,32 -54,27 -94,70 -120,123 -38,80 -34,342 -25,453l3449 0c10,-43 3,-187 3,-240 0,-82 7,-142 -26,-213 -53,-117 -155,-159 -324,-154 -32,-112 64,-410 -131,-408 -81,1 -123,67 -123,149 -1,60 -9,211 3,259l-377 0 1 -229 0 0zm-252 4c43,17 60,35 122,36 66,1 86,-23 130,-40 -1,-27 4,-68 -11,-85 -15,97 -212,81 -225,-13 -20,21 -14,68 -16,102l0 0zm176 -169c-18,-14 -48,-18 -73,-10 -10,29 -2,67 27,75 62,16 7,-34 46,-65l0 0zm-131 20c25,89 123,116 166,31 1,-2 4,-8 5,-9l5 -10c-12,-18 -22,-24 -45,-32 -39,31 16,81 -46,65 -29,-8 -37,-46 -27,-75 -33,7 -38,8 -58,30l0 0zm-29 47c13,94 210,110 225,13 -2,-31 -9,-24 -20,-48l-5 10c-1,1 -4,7 -5,9 -43,85 -141,58 -166,-31 -15,14 -26,23 -29,47l0 0z"/>
   <polygon class="fil0" points="2520,2669 2908,2669 2905,2278 2517,2278 "/>
   <polygon class="fil0" points="1215,2047 1607,2048 1605,1657 1216,1659 "/>
   <polygon class="fil0" points="1217,2669 1607,2667 1606,2278 1216,2279 "/>
   <polygon class="fil0" points="1217,3308 1606,3309 1607,2919 1216,2921 "/>
   <polygon class="fil0" points="565,3308 956,3309 955,2919 565,2921 "/>
   <polygon class="fil0" points="1868,3308 2257,3308 2257,2919 1867,2920 "/>
   <path class="fil0" d="M2536 1687c30,4 67,56 74,75 -26,-6 -72,-44 -74,-75zm-19 360l391 1 0 -391 -390 1 -1 389zm93 -285c-7,-19 -44,-71 -74,-75 2,31 48,69 74,75z"/>
   <path class="fil0" d="M2208 2047l3 -34 20 -16 26 -3 0 -337 -388 0 -2 389 341 1zm0 0l55 5 -6 -58 -26 3 -20 16 -3 34 0 0z"/>
   <path class="fil0" d="M2256 2659l0 -371 -153 0c-39,4 2,5 -39,16 -49,12 -39,-15 -83,-16 -34,-1 -72,0 -107,0 3,46 17,33 49,71 13,-15 26,-31 50,-33 -43,81 -103,-25 187,275 64,66 51,58 96,58zm-333 -277c15,11 25,19 38,35 6,7 8,10 15,17l54 54c16,15 22,18 36,34 1,2 4,6 6,7l132 130 -325 0c-12,-28 -5,-122 -5,-160 0,-84 2,-79 49,-117l0 0zm333 277c-45,0 -32,8 -96,-58 -290,-300 -230,-194 -187,-275 -24,2 -37,18 -50,33 -32,-38 -46,-25 -49,-71 35,0 73,-1 107,0 44,1 34,28 83,16 41,-11 0,-12 39,-16l153 0c-12,-15 0,-6 -20,-11l-370 1 3 391 297 1c57,0 79,9 90,-11l0 0zm-333 -277c-47,38 -49,33 -49,117 0,38 -7,132 5,160l325 0 -133 -130c-1,-1 -4,-5 -5,-7 -14,-16 -20,-19 -36,-34l-54 -54c-7,-7 -9,-10 -15,-17 -14,-16 -23,-24 -38,-35l0 0z"/>
   <polygon class="fil0" points="564,2672 953,2670 952,2281 562,2282 "/>
  </g>
 </g>
</svg>
