<?xml version="1.0" encoding="UTF-8"?>
<!DOCTYPE svg PUBLIC "-//W3C//DTD SVG 1.1//EN" "http://www.w3.org/Graphics/SVG/1.1/DTD/svg11.dtd">
<!-- Creator: CorelDRAW X7 -->
<svg xmlns="http://www.w3.org/2000/svg" xml:space="preserve" width="100%" height="100%" version="1.1" style="shape-rendering:geometricPrecision; text-rendering:geometricPrecision; image-rendering:optimizeQuality; fill-rule:evenodd; clip-rule:evenodd"
viewBox="0 0 2753 2729"
 xmlns:xlink="http://www.w3.org/1999/xlink">
 <defs>
  <style type="text/css">
   <![CDATA[
    .fil0 {fill:white}
   ]]>
  </style>
 </defs>
 <g id="Layer_x0020_1">
  <metadata id="CorelCorpID_0Corel-Layer"/>
  <path class="fil0" d="M2235 1921c64,-1 138,-11 194,11 -7,53 -65,124 -103,163l-91 -174zm-92 -143l348 1 1 78 -278 7c-64,-35 -31,-42 -71,-86zm-1566 534l-74 -50c-21,-525 859,-1148 1502,-500 78,79 120,133 174,255 24,51 39,99 52,156 25,106 10,106 -58,144 -33,-78 -34,-190 -83,-292 -239,-490 -864,-617 -1286,-217 -20,19 -12,7 -29,26 -123,130 -170,303 -198,478zm-153 -151c-146,-139 -269,-400 -295,-676 -22,-224 54,-659 183,-762 63,68 64,77 144,129 49,32 149,57 178,103 3,10 15,151 -15,195 -28,41 -36,4 -36,55 0,148 51,-129 51,236 0,160 23,267 -35,344 -92,123 -138,212 -175,376zm178 -1776c37,-18 68,-46 110,-71 296,-185 646,-232 986,-147 190,48 334,135 461,232l178 168c44,60 109,133 137,211l-562 2c-65,12 -50,64 -50,135 127,0 254,0 380,0 161,0 291,-28 316,40 -47,27 -178,11 -250,11 2,80 16,170 -38,221 -64,-42 -48,-129 -45,-221l-307 0 1 598c-210,-111 -358,-187 -655,-158 -157,15 -332,84 -454,171 -41,29 -65,62 -103,81l0 -384c27,-77 50,40 50,-69 0,-107 -23,8 -50,-70 0,-95 -30,-274 12,-344l4 164c154,95 701,52 538,-240 -74,-132 -354,-312 -594,-306l-83 1 18 -25zm2146 1111c63,-800 -513,-1417 -1227,-1489 -552,-56 -1093,224 -1347,686 -480,874 85,1929 1054,2029 792,81 1464,-509 1520,-1226z"/>
 </g>
</svg>
