<?xml version="1.0" encoding="utf-8"?>
<!-- Generator: Adobe Illustrator 16.0.0, SVG Export Plug-In . SVG Version: 6.00 Build 0)  -->
<!DOCTYPE svg PUBLIC "-//W3C//DTD SVG 1.1//EN" "http://www.w3.org/Graphics/SVG/1.1/DTD/svg11.dtd">
<svg version="1.1" id="Layer_1" xmlns="http://www.w3.org/2000/svg" xmlns:xlink="http://www.w3.org/1999/xlink" x="0px" y="0px"
	 width="50px" height="50px" viewBox="0 0 50 50" enable-background="new 0 0 50 50" xml:space="preserve">
<polygon fill="#FDFEFF" points="36.235,14.741 36.76,19.856 43.671,19.614 43.308,14.497 "/>
<path fill="#FDFEFF" d="M10.443,12.938l-5.36,0.368c0,0-0.738,2.784-1.084,5.883c-0.348,3.104-0.305,6.526-0.296,8.305
	c0.021,3.478,0.25,5.486,0.34,6.767c0.09,1.278,0.875,6.203,0.875,6.203l5.615-0.009l4.489,4.169l-10.556,0.06
	c0,0-0.81,0.183-1.715-0.365c-0.908-0.55-1.021-1.89-1.021-1.89s-1.39-7.331-1.118-6.074c0.273,1.254-0.467-9.631-0.467-9.631
	l0.14-4.519l0.673-7.826c0,0,0.662-3.026,0.951-3.745c0.288-0.719,1.256-1.066,1.256-1.066l6.888-0.342L11.7,9.248l0.379-2.022
	c0,0,0.403-3.67,4.183-3.88c3.779-0.209,9.089-0.149,9.089-0.149s4.817-0.051,5.747,3.223c0.931,3.274,0.422,2.43,0.422,2.43
	l11.046,0.05L45.8,8.885c0,0,2.327-0.521,2.888,2.639c0,0,0.428,0.885,0.885,3.071c0.151,0.72,0.322,3.415,0.355,4.793
	c0.078,3.414-0.002,6.946,0.028,8.298c0.057,2.439-0.769,11.632-0.769,11.632s-0.134,2.14-0.849,2.888
	c-0.715,0.749-1.129,1.307-3.018,1.413c-1.889,0.104-12.076,0.239-12.076,0.239l-2.314,0.094l2.841-3.728l10.493-0.12
	c0,0,1.574-0.523,1.73-1.687c0.154-1.164,0.666-16.064,0.45-17.463c-0.215-1.398-0.372-5.482-0.372-5.482s-0.533-2.063-0.726-2.363
	c-0.189-0.301-0.264-0.848-2.458-0.797c-2.196,0.05-8.363-0.112-8.363-0.112l-1.894-0.14l1.014,4.309c0,0-0.224,0.86-0.95,1.121
	c-0.727,0.261-1.884,0.227-2.589-1.162c-0.704-1.385-2.128-7.517-2.128-7.517s-0.399-1.455-1.021-1.929
	c-0.62-0.474-4.538-0.993-5.937-0.778C19.624,6.32,17.61,6.307,16.94,6.383c-0.669,0.077-1.611,1.563-2.07,2.793
	c-0.459,1.23-1.332,5.766-1.332,5.766s-0.376,2.145-1.038,2.588c-0.661,0.443-1.998,0.718-2.494,0.363
	C9.514,17.537,10.443,12.938,10.443,12.938z"/>
<circle fill="#FDFEFF" cx="22.249" cy="32.68" r="8.454"/>
<path fill="#FDFEFF" d="M32.984,21.429c-6.029-5.756-15.494-5.628-21.141,0.287C6.197,27.63,6.505,37.09,12.535,42.848
	c6.028,5.755,15.493,5.626,21.14-0.286C39.322,36.647,39.013,27.185,32.984,21.429z M14.436,40.488
	c-4.513-4.31-4.679-11.464-0.37-15.979c4.31-4.514,11.463-4.681,15.978-0.369c4.515,4.31,4.681,11.464,0.369,15.979
	C26.104,44.632,18.951,44.799,14.436,40.488z"/>
</svg>
