<?xml version="1.0" encoding="UTF-8"?>
<!DOCTYPE svg PUBLIC "-//W3C//DTD SVG 1.1//EN" "http://www.w3.org/Graphics/SVG/1.1/DTD/svg11.dtd">
<!-- Creator: CorelDRAW X7 -->
<svg xmlns="http://www.w3.org/2000/svg" xml:space="preserve" width="100%" height="100%" version="1.1" style="shape-rendering:geometricPrecision; text-rendering:geometricPrecision; image-rendering:optimizeQuality; fill-rule:evenodd; clip-rule:evenodd"
viewBox="0 0 2488 1849"
 xmlns:xlink="http://www.w3.org/1999/xlink">
 <defs>
  <style type="text/css">
   <![CDATA[
    .fil0 {fill:white}
   ]]>
  </style>
 </defs>
 <g id="Layer_x0020_1">
  <metadata id="CorelCorpID_0Corel-Layer"/>
  <path class="fil0" d="M1340 47l-2 81c25,70 96,184 39,395 -106,1 -82,-41 -85,-48l-28 -17 -4 52c30,58 24,51 16,155l84 13c5,16 13,60 13,60 2,5 5,11 7,16 2,5 5,10 7,15 3,5 7,10 9,14 21,41 43,-13 33,198 -6,131 -16,265 -15,391l333 62c33,-236 89,-334 175,-465l181 -276c45,-65 42,-31 48,-120 -281,-10 -183,48 -328,329 -13,26 -15,27 -26,45 35,-213 170,-581 241,-636 -73,-41 -165,-10 -232,18 -93,186 -79,544 -141,683 -33,-560 74,-723 149,-1012l-257 0 -217 47zm-112 30c-38,-2 -370,33 -389,43 -85,49 -118,300 -128,456 -12,201 1,354 50,521 55,186 145,255 290,196l28 -507c96,-92 29,27 97,-126l100 5c8,-104 14,-97 -16,-155l-82 7 17 -257 15 -37c-4,-39 -10,-31 16,-26l17 -25c0,-34 -6,-26 19,-22l18 -21 16 -27c27,-83 -40,2 15,-17 23,-8 17,-26 17,21l10 22 2 -81 -46 0c-36,38 -2,27 -66,30zm-1228 1305l0 77c492,111 775,383 812,389 36,7 115,-82 171,-114 73,-42 152,-64 228,-84 121,-31 405,-45 484,-102 -55,-75 -341,-98 -411,-108 -531,-79 -668,-248 -1284,-58zm1765 76l723 173c-44,-78 -313,-196 -374,-226 -226,-110 -308,-184 -349,53zm-501 -1000l28 17c7,-141 28,-187 34,-278l-60 4c1,102 23,124 -2,257zm30 -411c-28,3 -8,-7 -33,5 -45,24 -15,7 -33,25 64,-3 30,8 66,-30zm-14 82l-18 21c-25,-4 -19,-12 -19,22l-17 25c-26,-5 -20,-13 -16,26l-15 37c28,0 19,8 15,-37l16 -26c24,4 18,11 17,-25l19 -22 18 -21c25,0 19,9 16,-27l32 4c0,-47 6,-29 -17,-21 -55,19 12,-66 -15,17l-16 27z"/>
 </g>
</svg>
