<?xml version="1.0" encoding="UTF-8"?>
<!DOCTYPE svg PUBLIC "-//W3C//DTD SVG 1.1//EN" "http://www.w3.org/Graphics/SVG/1.1/DTD/svg11.dtd">
<!-- Creator: CorelDRAW X7 -->
<svg xmlns="http://www.w3.org/2000/svg" xml:space="preserve" width="100%" height="100%" version="1.1" style="shape-rendering:geometricPrecision; text-rendering:geometricPrecision; image-rendering:optimizeQuality; fill-rule:evenodd; clip-rule:evenodd"
viewBox="0 0 387 314"
 xmlns:xlink="http://www.w3.org/1999/xlink">
 <defs>
  <style type="text/css">
   <![CDATA[
    .fil0 {fill:#FEFEFE}
   ]]>
  </style>
 </defs>
 <g id="Layer_x0020_1">
  <metadata id="CorelCorpID_0Corel-Layer"/>
  <path class="fil0" d="M64 185c3,0 5,2 7,6 2,5 3,10 3,16l0 11c0,7 -2,12 -6,16 -4,5 -9,7 -15,7 -5,0 -11,-2 -18,-5 -7,-3 -13,-7 -18,-11l-1 -2c-11,-10 -16,-23 -16,-38l0 -162c0,-7 1,-13 3,-17 1,-4 3,-6 6,-6 3,0 5,2 7,6 1,5 2,10 2,17l0 155c0,6 1,12 3,19 2,6 5,11 9,14 2,2 5,5 9,7 4,3 7,4 9,4 2,0 4,-2 5,-5 2,-4 2,-8 2,-13 0,-5 1,-10 3,-13 2,-4 4,-6 6,-6zm102 -89l0 89c0,7 -2,13 -4,20 -3,7 -7,13 -12,18l-2 2c-4,4 -10,8 -17,11 -7,3 -13,5 -19,5 -5,0 -10,-2 -14,-7 -4,-4 -6,-10 -6,-16l0 -89c0,-6 1,-13 4,-20 3,-7 7,-13 12,-17l1 -2c5,-4 10,-8 17,-11 8,-3 14,-5 19,-5 6,0 10,2 15,7 4,4 6,9 6,15zm-19 82l0 -63c0,-6 0,-11 -2,-16 -1,-4 -3,-6 -5,-6 -2,0 -5,1 -8,3 -4,2 -7,5 -10,8 -3,3 -6,7 -8,14 -3,7 -4,13 -4,19l0 63c0,7 1,12 2,16 2,4 4,6 6,6 2,0 5,-1 8,-3 4,-2 7,-5 10,-8 3,-4 6,-9 8,-14 2,-6 3,-12 3,-19zm111 -82l0 163c0,6 -2,13 -5,20 -3,8 -6,13 -11,18l-2 2c-4,4 -9,7 -17,11 -7,3 -13,4 -19,4 -5,0 -10,-2 -14,-6 -4,-4 -6,-10 -6,-16l0 -11c0,-7 1,-12 3,-16 1,-4 3,-6 6,-6 3,0 5,1 7,5 1,3 2,8 2,13 0,6 1,10 2,14 2,3 4,5 6,5 2,0 5,-1 9,-4 3,-2 6,-4 9,-8 3,-3 6,-7 8,-12 2,-5 3,-10 3,-15 0,-5 -1,-9 -3,-12 -2,-3 -5,-4 -8,-4 -3,0 -7,-2 -12,-5 -5,-3 -10,-7 -15,-11l-1 -2c-11,-10 -16,-23 -16,-38l0 -56c0,-6 2,-13 4,-20 3,-7 7,-13 12,-17l1 -2c5,-4 10,-8 17,-11 8,-3 14,-5 19,-5 6,0 11,2 15,7 4,4 6,9 6,15zm-19 104l0 -85c0,-6 0,-11 -2,-16 -1,-4 -3,-6 -5,-6 -2,0 -5,1 -8,3 -4,2 -7,5 -10,8 -3,3 -6,7 -8,14 -2,7 -4,13 -4,19l0 41c0,6 1,12 3,19 3,6 5,11 9,14 2,2 6,5 10,7 4,3 6,4 8,4 2,0 4,-2 5,-6 2,-5 2,-10 2,-16zm37 -104c0,-6 1,-11 3,-15 2,-5 4,-7 6,-7 3,0 5,2 7,7 2,4 3,9 3,15l0 122c0,6 -1,12 -3,16 -2,5 -4,7 -7,7 -2,0 -4,-2 -6,-7 -2,-4 -3,-9 -3,-16l0 -122zm9 -59c7,0 10,3 10,10 0,6 -3,9 -10,9 -6,0 -9,-3 -9,-9 0,-7 3,-10 9,-10zm86 55c2,2 4,4 6,7 2,3 4,6 5,10 1,3 3,7 3,10 1,4 2,7 2,10l0 89c0,6 -1,12 -3,16 -2,5 -4,7 -6,7 -3,0 -5,-2 -7,-7 -2,-4 -3,-9 -3,-16l0 -81c0,-6 -1,-12 -3,-19 -2,-6 -5,-11 -8,-14 -3,-3 -6,-6 -10,-8 -3,-2 -6,-3 -8,-3 -2,0 -4,2 -5,6 -2,5 -3,10 -3,16l0 103c0,6 -1,12 -2,16 -2,5 -4,7 -7,7 -2,0 -4,-2 -6,-7 -2,-5 -3,-10 -3,-16l0 -122c0,-6 2,-11 6,-15 4,-5 9,-7 14,-7 6,0 13,2 19,4 7,3 13,7 17,12l2 2z"/>
 </g>
</svg>
