<?xml version="1.0" encoding="UTF-8"?>
<!DOCTYPE svg PUBLIC "-//W3C//DTD SVG 1.1//EN" "http://www.w3.org/Graphics/SVG/1.1/DTD/svg11.dtd">
<!-- Creator: CorelDRAW X7 -->
<svg xmlns="http://www.w3.org/2000/svg" xml:space="preserve" width="100%" height="100%" version="1.1" style="shape-rendering:geometricPrecision; text-rendering:geometricPrecision; image-rendering:optimizeQuality; fill-rule:evenodd; clip-rule:evenodd"
viewBox="0 0 605 453"
 xmlns:xlink="http://www.w3.org/1999/xlink">
 <defs>
  <style type="text/css">
   <![CDATA[
    .fil1 {fill:#FEFEFE}
    .fil0 {fill:#2B2A29;fill-opacity:0.109804}
   ]]>
  </style>
 </defs>
 <g id="Layer_x0020_1">
  <metadata id="CorelCorpID_0Corel-Layer"/>
  <g id="_719672666464">
   <polygon class="fil0" points="49,309 209,460 605,460 282,6 49,3 "/>
   <g>
    <path class="fil1" d="M72 321l185 0c2,-1 7,-2 10,-3 28,-11 24,-40 24,-63l0 -198c0,-25 3,-43 -17,-58 -8,-6 -13,-5 -17,-7l-185 0c-7,3 -13,2 -23,11 -5,5 -10,13 -11,23 0,7 -1,63 1,67l24 0c2,-6 0,-42 0,-51 0,-25 3,-24 28,-24l156 0c8,0 15,0 18,8 1,5 0,120 0,130 0,11 1,125 0,130 -1,3 -4,6 -6,7 -3,2 -6,2 -11,2l-157 0c-24,0 -28,2 -28,-23 0,-10 2,-46 0,-52l-25 0c-1,4 0,59 0,67 1,9 6,17 11,22 10,10 17,9 23,12z"/>
    <path class="fil1" d="M89 118c-5,1 -54,1 -63,1 -11,0 -20,-2 -24,7 -3,4 -2,57 -1,61 4,9 14,7 24,7 9,0 59,0 64,1 0,9 -2,34 2,40 2,3 7,5 11,3 1,-1 6,-5 7,-7 9,-8 29,-23 39,-34 12,-10 28,-22 40,-33l8 -8c-3,-3 -61,-52 -70,-61 -4,-3 -5,-3 -8,-6l-16 -14c-4,-2 -9,-1 -11,2 -4,5 -2,31 -2,41z"/>
   </g>
  </g>
 </g>
</svg>
