<?xml version="1.0" encoding="UTF-8"?>
<!DOCTYPE svg PUBLIC "-//W3C//DTD SVG 1.1//EN" "http://www.w3.org/Graphics/SVG/1.1/DTD/svg11.dtd">
<!-- Creator: CorelDRAW X7 -->
<svg xmlns="http://www.w3.org/2000/svg" xml:space="preserve" width="100%" height="100%" version="1.1" style="shape-rendering:geometricPrecision; text-rendering:geometricPrecision; image-rendering:optimizeQuality; fill-rule:evenodd; clip-rule:evenodd"
viewBox="0 0 5349 4965"
 xmlns:xlink="http://www.w3.org/1999/xlink"
 enable-background="new 0 0 50 50">
 <defs>
  <style type="text/css">
   <![CDATA[
    .fil0 {fill:#E89E47}
    .fil1 {fill:#2B2A29;fill-opacity:0.168627}
   ]]>
  </style>
 </defs>
 <g id="Layer_x0020_1">
  <metadata id="CorelCorpID_0Corel-Layer"/>
  <g id="_719677404544">
   <path class="fil0" d="M2693 2187c-11,30 -23,47 -36,64 -11,23 -19,34 -31,52 -16,23 -20,28 -38,43 -6,19 1,-1 -7,15 -1,1 -11,17 -12,18 -14,18 -5,14 -27,26 -8,13 -9,18 -19,31 -14,16 -9,11 -24,20 -33,59 -226,200 -313,247 -119,65 -263,125 -417,146 -73,21 -307,27 -383,8 -836,-88 -1465,-1069 -967,-1945 377,-661 1243,-879 1917,-392 53,38 181,151 208,200l30 38 78 112c17,10 36,45 41,68 22,25 55,103 67,132 107,266 126,558 49,836 -19,70 -77,238 -116,281zm-2693 -710l0 162c23,54 13,282 134,549 136,297 364,564 652,722 133,73 337,162 513,181 109,19 227,26 346,18 391,-17 682,-174 956,-408 35,-30 67,-71 98,-96 14,-26 19,-27 42,-44 9,-24 49,-70 67,-92l41 -57c16,-30 37,-61 56,-97 14,-26 33,-78 52,-100 102,-267 165,-466 136,-795 -17,-190 -74,-386 -156,-550 -22,-44 -77,-124 -87,-158 -20,-15 -39,-47 -45,-68l-73 -90c-8,-6 -12,-9 -20,-18 -13,-14 -5,-5 -13,-18 -30,-17 -158,-165 -317,-263 -116,-72 -245,-136 -400,-182 -328,-97 -701,-73 -1004,49 -290,116 -507,304 -659,502 -314,406 -291,788 -319,853z"/>
   <g>
    <path class="fil0" d="M1956 2034c-50,0 -94,0 -145,5 -36,3 -103,24 -120,-11 -27,-60 5,-217 27,-267 32,54 -7,10 49,74 82,94 4,67 189,199zm-830 -23c46,-50 96,-49 136,-117 15,-25 37,-62 53,-79 37,-42 19,-21 48,-71 35,42 54,222 17,280l-254 -13zm307 -692l33 16 6 86 11 57 -43 4 -136 73c-48,60 -43,8 -63,76 6,107 -134,236 -164,281 -15,21 -28,40 -42,62 -57,82 -139,40 -155,113l-2 53c4,2 9,4 15,7l22 14c-19,14 -38,26 -33,59 66,-34 82,-69 120,-103 24,42 32,69 76,92 45,23 74,45 126,46l670 0c79,-2 27,-11 136,-35 65,-15 49,-38 70,-87 1,-2 2,-5 3,-7 9,16 79,106 104,86 12,-13 -26,-53 -34,-66 33,29 70,-59 -1,-105 -60,-39 -63,7 -146,-109 -46,-67 -101,-115 -111,-135l-69 -186 -31 -58 -153 -68c-31,-20 33,18 -16,-9l-19 -11 0 -133 28 -9c13,-29 12,-26 1,-58 -23,-62 -10,-129 -88,-135 -89,-8 -101,59 -115,153 -3,18 -2,17 0,36z"/>
    <polygon class="fil0" points="1107,721 1083,1144 887,1989 1159,1294 1237,904 1373,449 "/>
    <polygon class="fil0" points="1413,441 1381,863 1272,1270 1450,853 1515,445 "/>
    <polygon class="fil0" points="1575,435 1606,839 1668,1040 1772,1289 1675,817 1727,461 "/>
    <polygon class="fil0" points="1784,490 1934,727 2027,1428 2195,2006 1897,1329 1845,817 "/>
    <polygon class="fil0" points="1515,839 1502,986 1454,1099 1567,982 "/>
    <polygon class="fil0" points="1761,716 1743,849 1784,1086 1795,866 "/>
    <polygon class="fil0" points="1298,1335 1199,1451 1031,1856 1228,1486 1355,1399 1384,1173 "/>
    <polygon class="fil0" points="1697,1297 1697,1419 1795,1500 2079,1925 1761,1361 "/>
   </g>
   <path class="fil0" d="M4113 1208c-33,100 -7,78 -113,110 1,25 8,37 5,57 -3,15 -13,28 -16,49 -9,57 21,61 32,93 -30,45 -20,15 -29,80 -2,19 -9,32 -11,48 -3,22 0,32 -4,55 -26,139 25,49 0,192 -11,61 -14,35 2,90 4,13 -3,78 -3,104 0,36 -5,56 -6,96 -2,71 -19,30 18,88 -12,67 -20,19 -4,92 8,38 -16,58 7,96 44,75 101,49 155,8 153,-117 370,-334 454,-504 56,-112 95,-238 114,-373 46,-323 -9,-545 -141,-790 -19,-35 -18,-49 -68,-46 -41,3 -66,9 -81,36l-67 140c-18,58 -38,40 -61,94 -25,56 -25,8 -59,66l-80 97c-25,22 -14,7 -44,22z"/>
   <path class="fil0" d="M3446 2878l-14 -6c-85,40 -37,80 -162,145 -56,29 -74,48 -114,93 -33,36 -28,13 -73,31 -27,11 -107,66 -119,86 -50,-25 -65,-32 -37,-71 40,-55 20,-23 5,-80 -19,-73 -62,-96 -116,-55 -27,20 -29,48 -41,91 -11,43 30,35 42,91 -83,2 -90,-38 -133,-78 -33,-31 -46,-11 -71,-33 -26,-22 7,-36 -156,-162 -47,-36 -26,-95 -95,-117 -5,6 -21,-6 7,19l-35 6c-3,65 71,80 104,127 29,41 11,38 93,142 40,51 44,23 49,108 36,17 21,-1 48,32 64,79 21,73 46,131 9,19 26,37 21,53 -85,31 -114,-70 -192,-70 -104,1 -146,132 -427,92 -52,-8 -130,-7 -183,3 -27,5 -37,5 -49,27 11,6 2,5 20,3 2,0 25,-6 29,-7 195,-51 261,73 516,-61 37,-19 49,-44 107,-31 86,18 57,95 186,60 24,188 -39,222 -60,367 -6,49 -17,66 -12,132l35 22c-2,43 3,79 4,120 1,65 1,49 31,88l65 -5c-12,41 -31,81 -14,135 13,44 74,49 86,-2 3,-10 19,-171 -16,-195 -16,-11 -9,-3 -26,-11 -22,-9 -4,-5 -28,-17 1,-15 1,-38 2,-53 4,-37 30,-58 34,-144 31,38 15,54 35,98 0,2 1,4 2,5 12,27 11,46 15,76 3,31 10,66 14,95 3,28 -10,58 -9,100 4,151 29,33 -17,199 -17,60 -28,163 43,169 95,-49 21,-195 43,-266 58,-183 9,-163 30,-296 19,-125 6,-71 29,-97 14,-16 10,1 12,-33 2,-41 -5,-122 -14,-160 -33,-140 -14,-160 11,-293 87,0 138,-31 229,-34 122,-4 270,114 576,83 21,-2 40,-6 61,-7 26,-2 49,1 64,-11l-10 -6c-2,0 -4,-2 -6,-2 -2,-1 -4,-2 -6,-2l-93 4c-45,5 -84,3 -129,2 -305,-12 -312,-75 -442,-81 -102,-5 -153,37 -236,33 43,-160 115,-182 144,-210 27,-25 6,-42 44,-73 93,-76 155,-182 266,-214 -16,-9 -26,-3 -40,-12 26,-19 24,-3 47,-15 -7,-5 -1,0 -13,-6 -2,0 -4,-1 -6,-2 -1,-1 -4,-2 -5,-2l17 -10c0,0 2,-1 3,-2 -15,-15 -2,-2 -29,-17 -2,-1 -4,-2 -6,-3 -2,-1 -5,-2 -6,-4 25,-5 12,1 25,-12z"/>
   <path class="fil0" d="M3856 1039c-33,14 -112,82 -124,113 -13,32 -15,55 -37,81 -23,28 -36,32 -60,65 -30,41 -33,30 -62,57 -17,16 -41,61 -54,71 -21,15 -67,15 -95,24 -43,12 -45,29 -94,31 -13,-42 -11,-52 -31,-95 -24,-49 7,-53 -28,-89l-18 38c-2,15 4,41 5,64 4,55 24,79 18,131 -25,16 -102,24 -108,23 -36,-3 -53,-36 -95,-28 -17,3 -8,0 -19,7 4,18 13,26 27,35 23,14 25,6 44,15 36,17 19,55 39,87 0,0 101,29 136,-4 24,-22 6,-14 15,-35 118,-30 102,18 240,-86 64,-48 129,-89 166,-167 17,-35 36,-78 50,-112l102 -149c11,-12 32,-23 46,-35 24,-19 19,-23 38,-43 18,-21 30,-22 49,-38 -16,-17 -14,-25 -24,-46 -48,-6 -45,0 -82,20 -48,25 -48,-1 -44,65z"/>
   <path class="fil0" d="M4967 2044c-10,28 -21,44 -34,60 -10,22 -18,32 -29,49 -15,22 -18,26 -36,40 -6,18 2,0 -7,14 0,2 -10,16 -11,18 -12,17 -5,12 -25,24 -7,12 -9,17 -18,29 -13,15 -8,11 -23,19 -30,55 -212,188 -294,232 -112,61 -247,118 -392,138 -68,20 -288,25 -360,7 -786,-82 -1378,-1005 -909,-1828 354,-622 1168,-828 1803,-370 50,36 170,142 195,189l28 35 74 106c15,9 33,42 37,63 21,24 53,97 64,125 101,250 119,524 47,786 -19,66 -73,223 -110,264zm-2532 -668l0 152c21,51 12,266 126,517 128,279 342,529 613,679 125,69 317,152 483,170 102,18 213,24 324,17 369,-17 642,-163 899,-383 33,-29 63,-68 93,-91 13,-24 17,-26 39,-41 9,-23 46,-66 63,-87l39 -53c14,-29 34,-58 52,-92 13,-24 32,-73 49,-94 96,-251 155,-438 128,-747 -16,-179 -70,-363 -147,-518 -21,-41 -72,-117 -82,-149 -18,-13 -36,-43 -42,-63l-69 -84c-7,-6 -11,-9 -18,-17 -13,-14 -5,-5 -13,-17 -27,-17 -147,-156 -297,-248 -110,-68 -231,-128 -376,-171 -309,-91 -660,-68 -945,46 -273,110 -476,286 -620,472 -295,382 -273,741 -299,802z"/>
   <path class="fil0" d="M3957 4095c-10,29 -21,45 -34,61 -10,22 -17,32 -29,49 -15,21 -18,26 -36,40 -6,18 2,0 -6,14 -1,1 -11,16 -12,17 -12,17 -5,13 -25,24 -7,13 -9,17 -18,29 -13,16 -8,11 -23,20 -30,55 -212,187 -294,232 -112,60 -247,118 -392,138 -68,20 -288,25 -360,7 -786,-83 -1377,-1006 -909,-1829 354,-621 1168,-827 1803,-369 50,36 170,142 195,188l28 36 74 105c15,10 33,43 38,64 20,24 52,97 63,124 101,250 119,525 47,787 -18,66 -73,223 -110,263zm-2532 -667l0 152c21,51 12,265 127,517 127,279 341,529 612,678 125,69 317,153 483,170 102,18 213,25 324,17 369,-16 642,-163 899,-383 33,-28 63,-67 93,-90 13,-25 17,-26 39,-42 9,-22 46,-66 63,-86l39 -54c14,-28 34,-58 52,-91 13,-24 32,-74 49,-94 96,-252 155,-439 128,-748 -16,-179 -69,-363 -147,-517 -21,-41 -72,-117 -81,-149 -19,-14 -37,-44 -43,-63l-69 -85c-6,-5 -10,-8 -18,-16 -13,-15 -5,-5 -12,-17 -28,-17 -148,-156 -298,-249 -110,-67 -231,-127 -376,-170 -309,-91 -659,-69 -944,46 -273,109 -477,286 -620,472 -295,382 -273,741 -300,802z"/>
  </g>
  <g id="_719677399744">
   <path class="fil1" d="M2693 2187c-11,30 -23,47 -36,64 -11,23 -19,34 -31,52 -16,23 -20,28 -38,43 -6,19 1,-1 -7,15 -1,1 -11,17 -12,18 -14,18 -5,14 -27,26 -8,13 -9,18 -19,31 -14,16 -9,11 -24,20 -33,59 -226,200 -313,247 -119,65 -263,125 -417,146 -73,21 -307,27 -383,8 -836,-88 -1465,-1069 -967,-1945 377,-661 1243,-879 1917,-392 53,38 181,151 208,200l30 38 79 112c16,10 35,45 40,68 22,25 55,103 67,132 107,266 126,558 49,836 -19,70 -77,238 -116,281zm-2693 -710l0 162c23,54 13,282 134,549 136,297 364,564 652,722 133,73 337,162 513,181 109,19 227,26 346,18 391,-17 682,-174 956,-408 35,-30 67,-71 98,-96 14,-26 19,-27 42,-44 9,-24 49,-70 67,-92l41 -57c16,-30 37,-61 56,-97 14,-26 33,-78 52,-100 102,-267 165,-466 136,-795 -17,-190 -74,-386 -156,-550 -22,-44 -77,-124 -87,-158 -20,-15 -39,-47 -45,-68l-73 -90c-8,-6 -12,-9 -20,-18 -13,-14 -5,-5 -13,-18 -30,-17 -158,-165 -317,-263 -116,-72 -245,-136 -400,-182 -328,-97 -701,-73 -1004,49 -290,116 -507,304 -659,502 -314,406 -291,788 -319,853z"/>
   <g>
    <path class="fil1" d="M1956 2034c-50,0 -94,0 -145,5 -36,3 -103,24 -120,-11 -27,-60 5,-217 27,-267 32,54 -7,10 49,74 82,94 4,67 189,199zm-830 -23c46,-50 96,-49 136,-117 15,-25 37,-62 53,-79 37,-42 19,-21 48,-71 35,42 54,222 17,280l-254 -13zm307 -692l33 16 6 86 11 57 -43 4 -136 73c-48,60 -43,8 -63,76 6,107 -134,236 -164,281 -15,21 -28,40 -42,62 -57,82 -139,40 -155,113l-2 53c4,2 9,4 15,7l22 14c-19,14 -38,26 -33,59 66,-34 82,-69 120,-103 24,42 32,69 76,92 45,23 74,45 126,46l670 0c79,-2 27,-11 136,-35 65,-15 49,-38 70,-87 1,-2 2,-5 3,-7 9,16 79,106 104,86 12,-13 -26,-53 -34,-66 33,29 70,-59 -1,-105 -60,-39 -63,7 -146,-109 -46,-67 -101,-115 -111,-135l-69 -186 -31 -58 -153 -68c-31,-20 33,18 -16,-9l-19 -11 0 -133 28 -9c13,-29 12,-26 1,-58 -23,-62 -10,-129 -88,-135 -89,-8 -101,59 -115,153 -3,18 -2,17 0,36z"/>
    <polygon class="fil1" points="1107,721 1083,1144 887,1989 1159,1294 1237,904 1373,449 "/>
    <polygon class="fil1" points="1413,441 1381,863 1272,1270 1450,853 1515,445 "/>
    <polygon class="fil1" points="1575,435 1606,839 1668,1040 1772,1289 1675,817 1727,461 "/>
    <polygon class="fil1" points="1784,490 1934,727 2027,1428 2195,2006 1897,1329 1845,817 "/>
    <polygon class="fil1" points="1515,839 1502,986 1454,1099 1567,982 "/>
    <polygon class="fil1" points="1761,716 1743,849 1784,1086 1795,866 "/>
    <polygon class="fil1" points="1298,1335 1199,1451 1031,1856 1228,1486 1355,1399 1384,1173 "/>
    <polygon class="fil1" points="1697,1297 1697,1419 1795,1500 2079,1925 1761,1361 "/>
   </g>
   <path class="fil1" d="M4113 1208c-33,100 -7,78 -113,110 1,25 8,37 5,57 -3,15 -13,28 -16,49 -9,57 21,61 32,93 -30,45 -20,15 -29,80 -2,19 -9,32 -11,48 -3,22 0,32 -4,55 -26,139 25,49 0,192 -11,61 -14,35 2,90 4,13 -3,78 -3,104 0,36 -5,56 -6,96 -2,71 -19,30 18,88 -12,67 -20,19 -4,92 8,38 -16,58 7,96 44,75 101,49 155,8 153,-117 370,-334 454,-504 56,-112 95,-238 114,-373 46,-323 -9,-545 -141,-790 -19,-35 -18,-49 -68,-46 -41,3 -66,9 -81,36l-67 140c-18,58 -38,40 -61,94 -25,56 -25,8 -59,66l-80 97c-25,22 -14,7 -44,22z"/>
   <path class="fil1" d="M3446 2878l-14 -6c-85,40 -37,80 -162,145 -56,29 -74,48 -114,93 -33,36 -28,13 -73,31 -27,11 -107,66 -119,86 -50,-25 -65,-32 -37,-71 40,-55 20,-23 5,-80 -19,-73 -62,-96 -116,-55 -27,20 -29,48 -41,91 -11,43 30,35 42,91 -83,2 -90,-38 -133,-78 -33,-31 -46,-11 -71,-33 -26,-22 7,-36 -156,-162 -47,-36 -26,-95 -95,-117 -5,6 -21,-6 7,19l-35 6c-3,65 71,80 104,127 29,41 11,38 93,142 40,51 44,23 49,108 36,17 21,-1 48,32 64,79 21,73 46,131 9,19 26,37 21,53 -85,31 -114,-70 -192,-70 -104,1 -146,132 -427,92 -52,-8 -130,-7 -183,3 -27,5 -37,5 -49,27 11,6 2,5 20,3 2,0 25,-6 29,-7 195,-51 261,73 516,-61 37,-19 49,-44 107,-31 86,18 57,95 186,60 24,188 -39,222 -60,367 -6,49 -17,66 -12,132l35 22c-2,43 3,79 4,120 1,65 1,49 31,88l65 -5c-12,41 -31,81 -14,135 13,44 74,49 86,-2 3,-10 19,-171 -16,-195 -16,-11 -9,-3 -26,-11 -22,-9 -4,-5 -28,-17 1,-15 1,-38 2,-53 4,-37 30,-58 34,-144 31,38 15,54 35,98 0,2 1,4 2,5 12,27 11,46 15,76 3,31 10,66 14,95 3,28 -10,58 -9,100 4,151 29,33 -17,199 -17,60 -28,163 43,169 95,-49 21,-195 43,-266 58,-183 9,-163 30,-296 19,-125 6,-71 29,-97 14,-16 10,1 12,-33 2,-41 -5,-122 -14,-160 -33,-140 -14,-160 11,-293 87,0 138,-31 229,-34 122,-4 270,114 576,83 21,-2 40,-6 61,-7 26,-2 49,1 64,-11l-10 -6c-2,0 -4,-2 -6,-2 -2,-1 -4,-2 -6,-2l-93 4c-45,5 -84,3 -129,2 -305,-12 -312,-75 -442,-81 -102,-5 -153,37 -236,33 43,-160 115,-182 144,-210 27,-25 6,-42 44,-73 93,-76 155,-182 266,-214 -16,-9 -26,-3 -40,-12 26,-19 24,-3 47,-15 -7,-5 -1,0 -13,-6 -2,0 -4,-1 -6,-2 -1,-1 -4,-2 -5,-2l17 -10c0,0 2,-1 3,-2 -15,-15 -2,-2 -29,-17 -2,-1 -4,-2 -6,-3 -2,-1 -5,-2 -6,-4 25,-5 12,1 25,-12z"/>
   <path class="fil1" d="M3856 1039c-33,14 -112,82 -124,113 -13,32 -15,55 -37,81 -23,28 -36,32 -60,65 -30,41 -33,30 -62,57 -17,16 -41,61 -54,71 -21,15 -67,15 -95,24 -43,12 -45,29 -94,31 -13,-42 -11,-52 -31,-95 -24,-49 7,-53 -28,-89l-18 38c-2,15 4,41 5,64 4,55 24,79 18,131 -25,16 -102,24 -108,23 -36,-3 -53,-36 -95,-28 -17,3 -8,0 -19,7 4,18 13,26 27,35 23,14 25,6 44,15 36,17 19,55 39,87 0,0 101,29 136,-4 24,-22 6,-14 15,-35 118,-30 102,18 240,-86 64,-48 129,-89 166,-167 17,-35 36,-78 50,-112l102 -149c11,-12 32,-23 46,-35 24,-19 19,-23 38,-43 18,-21 30,-22 49,-38 -16,-17 -14,-25 -24,-46 -48,-6 -45,0 -82,20 -48,25 -48,-1 -44,65z"/>
   <path class="fil1" d="M4967 2044c-10,28 -21,44 -34,60 -10,22 -18,32 -29,49 -15,22 -18,26 -36,40 -6,18 2,0 -7,14 0,2 -10,16 -11,18 -12,17 -5,12 -25,24 -7,12 -9,17 -18,29 -13,15 -8,11 -23,19 -30,55 -212,188 -294,232 -112,61 -247,118 -392,138 -68,20 -288,25 -360,7 -786,-82 -1378,-1005 -909,-1828 354,-622 1168,-828 1803,-370 50,36 170,142 195,189l28 35 74 106c15,9 33,42 38,63 20,24 52,97 63,125 101,250 119,524 47,786 -19,66 -73,223 -110,264zm-2532 -668l0 152c21,51 12,266 126,517 128,279 342,529 613,679 125,69 317,152 483,170 102,18 213,24 324,17 369,-17 642,-163 899,-383 33,-29 63,-68 93,-91 13,-24 17,-26 39,-41 9,-23 46,-66 63,-87l39 -53c14,-29 34,-58 52,-92 13,-24 32,-73 49,-94 96,-251 155,-438 128,-747 -16,-179 -70,-363 -147,-518 -21,-41 -72,-117 -82,-149 -18,-13 -36,-43 -42,-63l-69 -84c-6,-6 -11,-9 -18,-17 -13,-14 -5,-5 -13,-17 -27,-17 -147,-156 -297,-248 -110,-68 -231,-128 -376,-171 -309,-91 -660,-68 -945,46 -273,110 -476,286 -620,472 -295,382 -273,741 -299,802z"/>
   <path class="fil1" d="M3957 4095c-10,29 -21,45 -34,61 -10,22 -17,32 -29,49 -15,21 -18,26 -36,40 -6,18 2,0 -6,14 -1,1 -11,16 -12,17 -12,17 -5,13 -25,24 -7,13 -9,17 -18,29 -13,16 -8,11 -23,20 -30,55 -212,187 -294,232 -112,60 -247,118 -392,138 -68,20 -288,25 -360,7 -786,-83 -1377,-1006 -909,-1829 354,-621 1168,-827 1803,-369 50,36 170,142 195,188l28 36 74 105c15,10 33,43 38,64 20,24 52,97 63,124 101,250 119,525 47,787 -18,66 -73,223 -110,263zm-2532 -667l0 152c21,51 12,265 127,517 127,279 341,529 612,678 125,69 317,153 483,170 102,18 213,25 324,17 369,-16 642,-163 899,-383 33,-28 63,-67 93,-90 13,-25 17,-26 39,-42 9,-22 46,-66 63,-86l39 -54c14,-28 34,-58 52,-91 13,-24 32,-74 49,-94 96,-252 155,-439 128,-748 -16,-179 -69,-363 -147,-517 -21,-41 -72,-117 -81,-149 -19,-14 -37,-44 -43,-63l-69 -85c-6,-5 -10,-8 -18,-16 -13,-15 -5,-5 -12,-17 -28,-17 -148,-156 -298,-249 -110,-67 -231,-127 -376,-170 -309,-91 -659,-69 -944,46 -273,109 -477,286 -620,472 -295,382 -273,741 -300,802z"/>
  </g>
 </g>
</svg>
