<?xml version="1.0" encoding="UTF-8"?>
<!DOCTYPE svg PUBLIC "-//W3C//DTD SVG 1.1//EN" "http://www.w3.org/Graphics/SVG/1.1/DTD/svg11.dtd">
<!-- Creator: CorelDRAW X7 -->
<svg xmlns="http://www.w3.org/2000/svg" xml:space="preserve" width="100%" height="100%" version="1.1" style="shape-rendering:geometricPrecision; text-rendering:geometricPrecision; image-rendering:optimizeQuality; fill-rule:evenodd; clip-rule:evenodd"
viewBox="0 0 3461 3898"
 xmlns:xlink="http://www.w3.org/1999/xlink">
 <defs>
  <style type="text/css">
   <![CDATA[
    .fil2 {fill:#FEFEFE}
    .fil0 {fill:#814732}
    .fil1 {fill:#2B2A29;fill-opacity:0.109804}
   ]]>
  </style>
 </defs>
 <g id="Layer_x0020_1">
  <metadata id="CorelCorpID_0Corel-Layer"/>
  <path class="fil0" d="M1729 1951c1,2 4,-6 4,-4l0 0c0,0 -6,3 -4,4z"/>
  <path class="fil0" d="M1729 1951l4 -4c0,0 -6,3 -4,4z"/>
  <path class="fil1" d="M1729 1951c1,2 4,-6 4,-4l0 0c0,0 -6,3 -4,4z"/>
  <path class="fil1" d="M1729 1951l4 -4c0,0 -6,3 -4,4z"/>
  <path class="fil2" d="M902 1163c281,-293 572,138 698,190 -32,47 -22,43 -102,43 0,110 -35,93 -75,166l0 0c-37,0 -124,13 -143,9 -323,0 -283,-276 -29,-335 -53,-94 -247,44 -247,160 0,85 9,104 80,152 108,78 282,66 341,30l0 0c136,-32 81,-37 140,-143 32,-56 87,-101 168,-103 74,-2 137,36 172,93 37,67 30,97 42,114 -2,1 -1,3 4,5 11,10 34,15 91,24l-1 -2c49,9 116,21 199,34 93,0 232,-57 232,-204 0,-149 -233,-241 -247,-160 42,10 105,30 134,55 49,41 193,352 -334,247l0 0c-25,-40 -45,-65 -47,-142 -80,0 -70,4 -102,-43 136,-119 554,-494 698,-190 -49,47 -183,-92 -262,15 170,14 204,167 204,305 161,4 205,205 155,316 -41,92 -61,4 -97,135 -69,246 -292,138 -364,218 -173,60 -281,284 -286,296 -76,157 -72,184 -208,184 -90,0 -118,-86 -159,-175l-46 -70c-76,-128 -123,-163 -239,-227 -59,-87 -300,15 -367,-215 -8,-26 -1,-18 -12,-46 -28,-71 -108,-43 -108,-183 0,-121 53,-230 175,-233 0,-138 34,-291 203,-305 -78,-112 -166,115 -261,-15zm1323 262c0,49 -49,82 -73,117 317,0 240,-176 170,-228 -44,-33 -83,-34 -155,-34 16,59 58,61 58,145zm-1134 15c0,78 149,102 232,102 -41,-62 -58,-39 -58,-146 0,-69 28,-58 44,-116 -111,0 -218,32 -218,160zm465 -1236c0,-153 -29,27 -29,-146 -45,31 -142,149 -179,199 -48,65 -87,198 -141,237l0 -174c-42,31 -42,55 -64,110 -51,123 -65,146 -80,298 -7,69 -3,114 -45,145 -7,-87 -29,-162 -29,-262 -10,11 -7,6 -18,26l-148 346c-20,32 -67,86 -67,122 0,102 102,57 102,262 0,102 -240,324 -126,475 74,97 104,1 137,198 32,197 92,452 -113,578 -61,38 -219,62 -303,89 -95,30 -198,60 -288,105 -105,52 -165,73 -165,228 38,-26 53,-48 99,-76 37,-24 73,-45 119,-55 24,89 149,92 262,102 0,163 81,233 192,346 3,3 29,27 29,27 54,32 37,-21 96,36 89,86 70,127 313,240 91,42 231,98 330,121 -14,-53 -16,-30 -44,-72 36,9 83,40 117,58 -8,-33 -12,-34 -15,-73 179,42 166,149 247,204 25,-105 115,-180 218,-204 -3,39 -6,40 -14,73 34,-18 81,-49 116,-58 -28,42 -29,19 -43,72 116,-27 359,-123 463,-191 180,-118 148,-179 232,-196 49,-10 -25,58 115,-82 94,-92 149,-164 149,-301 109,-9 238,-12 262,-102 46,10 82,31 120,55 45,28 60,50 98,76 0,-217 -207,-255 -452,-333 -85,-27 -243,-51 -304,-89 -210,-129 -144,-409 -106,-615 14,-78 20,-81 74,-115 137,-88 91,-193 25,-324 -71,-140 -95,-112 -95,-255 0,-92 102,-128 102,-204 0,-35 -76,-122 -123,-241 -20,-51 -77,-215 -110,-253 0,100 -21,175 -29,262 -54,-40 -40,-168 -69,-295 -15,-66 -28,-83 -51,-138 -24,-56 -24,-88 -69,-120l0 174c-53,-39 -92,-172 -141,-237 -37,-50 -133,-168 -179,-199 0,173 -29,-7 -29,146 -107,-57 -113,-159 -174,-204 -62,45 -67,147 -175,204zm-291 1454c-56,0 -158,-45 -209,-81 -25,-18 -39,-33 -60,-44 -152,-83 -264,295 -65,299 0,397 393,78 630,548 31,61 149,372 281,145 124,-215 157,-401 529,-459 128,-20 174,-87 174,-234 197,-4 87,-368 -55,-304 -16,7 -172,130 -265,130 -52,0 -269,-64 -293,-85 -41,-33 -39,-195 -189,-202 -145,-6 -171,168 -185,187 -25,37 -256,100 -293,100z"/>
 </g>
</svg>
