<?xml version="1.0" encoding="UTF-8"?>
<!DOCTYPE svg PUBLIC "-//W3C//DTD SVG 1.1//EN" "http://www.w3.org/Graphics/SVG/1.1/DTD/svg11.dtd">
<!-- Creator: CorelDRAW X7 -->
<svg xmlns="http://www.w3.org/2000/svg" xml:space="preserve" width="100%" height="100%" version="1.1" style="shape-rendering:geometricPrecision; text-rendering:geometricPrecision; image-rendering:optimizeQuality; fill-rule:evenodd; clip-rule:evenodd"
viewBox="0 0 5167 6209"
 xmlns:xlink="http://www.w3.org/1999/xlink">
 <defs>
  <style type="text/css">
   <![CDATA[
    .fil1 {fill:none}
    .fil3 {fill:none}
    .fil0 {fill:#814732}
    .fil2 {fill:#2B2A29;fill-opacity:0.109804}
   ]]>
  </style>
 </defs>
 <g id="Layer_x0020_1">
  <metadata id="CorelCorpID_0Corel-Layer"/>
  <g id="_719677412224">
   <g>
    <path class="fil0" d="M1803 1220c282,-293 572,138 699,189 -32,48 -22,44 -102,44 0,109 -35,92 -75,166l0 0c-37,0 -124,13 -143,9 -324,0 -283,-276 -30,-335 -52,-94 -247,44 -247,160 0,85 9,104 81,152 108,78 282,66 341,30l0 0c135,-32 81,-37 140,-144 31,-55 87,-100 167,-102 75,-2 138,36 173,93 37,67 30,97 41,114 -1,1 0,3 4,5 12,10 35,15 92,24l-1 -2c49,9 116,21 198,34 94,0 233,-57 233,-204 0,-149 -233,-241 -247,-160 42,10 105,30 134,55 48,40 193,352 -334,247l0 0c-25,-40 -46,-65 -47,-142 -81,0 -70,4 -102,-44 136,-118 554,-493 698,-189 -49,47 -183,-92 -262,15 170,14 204,167 204,305 160,4 204,205 155,316 -41,92 -61,4 -98,135 -69,246 -291,138 -363,218 -173,60 -281,284 -286,295 -76,158 -72,185 -208,185 -91,0 -118,-86 -160,-175l-45 -71c-77,-127 -123,-162 -239,-226 -59,-87 -300,15 -367,-215 -8,-26 -1,-18 -12,-46 -29,-71 -108,-43 -108,-183 0,-121 53,-230 175,-233 0,-138 34,-291 203,-305 -78,-112 -167,115 -262,-15zm1324 262c0,49 -50,82 -73,117 317,0 240,-176 170,-228 -44,-33 -83,-34 -155,-34 16,59 58,61 58,145zm-1135 15c0,78 149,102 233,102 -41,-62 -58,-39 -58,-146 0,-69 28,-58 44,-116 -111,0 -219,32 -219,160zm466 -1236c0,-153 -29,26 -29,-146 -46,31 -142,149 -179,199 -48,65 -87,198 -141,237l0 -174c-42,30 -42,55 -65,110 -50,123 -64,146 -79,298 -7,68 -3,114 -45,145 -7,-87 -29,-162 -29,-262 -10,11 -8,6 -18,26l-148 346c-20,32 -67,86 -67,122 0,102 102,57 102,262 0,102 -240,324 -126,475 74,97 104,1 136,198 33,197 93,452 -112,578 -61,38 -219,62 -304,89 -94,30 -197,60 -288,104 -104,53 -164,74 -164,229 38,-26 53,-48 98,-76 38,-24 74,-45 120,-55 24,89 149,92 262,101 0,164 81,234 192,347 3,3 28,27 29,27 54,32 36,-21 96,36 89,85 69,127 313,240 90,42 231,98 330,121 -15,-53 -16,-30 -44,-72 35,9 82,40 116,58 -7,-33 -11,-34 -14,-73 179,42 166,149 247,204 24,-105 114,-180 218,-204 -3,39 -7,40 -14,73 33,-18 81,-49 116,-58 -28,42 -30,19 -44,72 116,-27 360,-123 463,-191 180,-118 149,-179 233,-196 49,-10 -26,58 115,-82 94,-92 149,-164 149,-302 108,-9 238,-11 262,-101 46,10 82,31 120,55 45,28 60,50 98,76 0,-217 -207,-255 -452,-333 -85,-27 -243,-51 -304,-89 -210,-129 -144,-409 -106,-616 14,-77 20,-80 74,-114 137,-88 90,-194 24,-324 -70,-140 -94,-112 -94,-255 0,-92 102,-128 102,-204 0,-35 -76,-122 -123,-241 -20,-51 -77,-215 -110,-253 0,100 -22,175 -29,262 -54,-40 -40,-168 -69,-295 -15,-66 -28,-83 -51,-138 -24,-56 -25,-88 -69,-120l0 174c-54,-39 -93,-172 -141,-237 -37,-50 -133,-168 -179,-199 0,172 -29,-7 -29,146 -108,-57 -113,-159 -175,-204 -61,45 -67,147 -174,204zm-291 1454c-56,0 -159,-45 -210,-81 -25,-18 -38,-33 -59,-44 -152,-83 -264,295 -66,299 0,397 394,78 631,548 31,61 149,372 280,145 125,-215 158,-401 530,-459 128,-20 174,-87 174,-234 197,-4 87,-368 -56,-304 -16,7 -172,130 -264,130 -52,0 -269,-65 -294,-85 -40,-33 -38,-195 -188,-202 -145,-6 -171,168 -185,187 -26,37 -256,100 -293,100z"/>
    <path class="fil1" d="M2647 2664l0 0 0 0 0 0c1,0 2,0 3,0l0 0 0 0 0 0 0 0 0 0 0 0 0 0m3 -1l0 0 0 0 0 0 0 0 0 0 0 0 0 0 2 0 0 0 0 0 0 0 0 0 0 0 0 0 0 0 0 0 1 0 0 0m2 -1l1 0 0 0 0 0 0 0 0 0 0 0 0 0 2 0 0 0 0 0 0 0 0 0 0 0m3 -1l0 0 0 0 0 0 0 0 0 0m3 -1l0 0 0 0 0 0 0 0 0 0 0 0 0 0 0 0m3 -1l0 0 0 0 0 0 0 0 0 0 0 0 0 0 0 0 2 -1 0 0 0 0 0 0 0 0 0 0 1 0m3 -2l0 0 0 0 2 -1 0 0 0 0m4 -2l0 0 0 0 0 0 2 -1 0 -1m4 -2l0 0 0 0 2 -1 0 0 0 0 0 -1m4 -3l1 -1 0 0 0 0m5 -4l0 0 0 0 1 -1 0 0 0 0 0 0m5 -5l0 0 0 0 1 -1m6 -6l0 0 0 0 0 0 0 -1m6 -6l0 0 0 -1 0 0 0 0m6 -7l0 0 0 -1m6 -8l0 0 0 0 0 0 0 -1 0 0m6 -9l0 0 0 0m6 -10c125,-215 158,-401 530,-459 128,-20 174,-87 174,-234 197,-4 87,-368 -56,-304 -16,7 -172,130 -264,130 -52,0 -269,-65 -294,-85 0,0 -1,-1 -1,-1l-1 0 0 0c0,-1 -1,-1 -1,-2l0 0 0 0c-1,-1 -1,-1 -2,-2l0 0 0 0c-1,-1 -1,-2 -2,-2l0 0 0 0 0 0 0 0c0,-1 -1,-2 -1,-3l0 0 -1 0 0 0 0 0 0 0 0 0 0 0c0,-1 -1,-1 -1,-2l0 0 0 0 0 0 0 0 0 0 0 0 0 0 0 0 0 0c-1,-1 -1,-2 -2,-3l0 0 0 0 0 0 0 0 0 0 0 0 0 0 0 0 0 0 0 0 0 0c0,-1 -1,-1 -1,-2l0 0 0 0 0 0 0 0 0 -1 0 0 0 0 0 0 0 0 0 0 0 0 0 0 0 0 -2 -2 0 0 0 0 0 -1 0 0 0 0 0 0 -1 -2 0 -1 0 0 0 0 0 0 0 0 0 0 0 0 0 0c-1,-1 -1,-2 -2,-3l0 0 -1 -3 0 0 0 0m-164 1064l0 0 0 0 0 0m3 -1l0 0m155 -1077l0 0 0 0 0 -1 0 0 0 0 0 0 0 0 -1 0 0 0 0 -1 0 0 0 0 0 0 0 -1 0 0 0 0 0 0 0 0 0 -1 -1 0 0 0 0 0 0 0 0 0 0 0 0 0 0 -1 0 0 0 0 0 0 0 0 0 0 0 -1 0 0 0 0 0 0 0 0 0 0 0 0 -1 0 0 -1 0 0 0 0 0 0 0 0 0 0 0 0 0 0 0 0 0 -1 0 0 0 0 -1 -3 -1 -1 -1 -3 0 -1 -1 -1 -1 -3 0 0 -1 -3 0 -1 -1 -2 -1 -2 0 -1 -1 -3 -3 -6 0 0c-18,-45 -46,-95 -106,-113l-1 0c-3,-1 -7,-2 -12,-3l0 0c-5,-1 -11,-2 -17,-3l-1 0c-3,0 -6,0 -9,-1l0 1236 0 0m176 -1046l0 0 0 0 0 0 0 0 0 0c-1,-1 -1,-2 -2,-3l0 0 0 0 0 0 0 0 0 0m-10 -22l0 0 -2 -4 -1 -3 0 0"/>
    <path class="fil0" d="M2647 2664c30,-1 63,-24 96,-82 125,-215 158,-401 530,-459 128,-20 174,-87 174,-234 197,-4 87,-368 -56,-304 -16,7 -172,130 -264,130 -52,0 -269,-65 -294,-85 -40,-33 -38,-193 -186,-202l0 1236z"/>
    <path class="fil0" d="M3970 3097l-43 0c-3,117 -92,230 -156,294l-88 89c-72,55 -41,-23 -101,41 -29,31 -14,31 -52,66 -21,19 -33,24 -57,44 -123,102 -475,251 -564,251 -29,0 3,-27 -88,-29 -5,-62 -34,-47 -98,33 -14,17 -76,124 -76,141l0 2182c209,0 258,-14 437,-28l451 -88c38,-6 25,-1 62,-11 62,-17 -11,-19 53,-19 45,0 120,117 69,-37 -124,-377 -135,-692 6,-1066 47,-126 122,-247 206,-347 91,-108 169,-161 239,-299 159,-318 123,-751 -8,-1074 -24,-60 -45,-91 -61,-158 -65,1 -57,15 -131,15z"/>
    <path class="fil0" d="M1018 3766c0,493 108,567 345,847 327,387 362,848 240,1323 -16,62 -33,99 -47,157 96,-51 80,-27 167,-7 51,11 62,12 106,25l323 55c196,16 219,43 451,43l0 -2211c0,-46 -107,-153 -131,-189 -46,17 -20,-31 -29,44 -121,3 -3,100 -421,-88 -148,-66 -236,-117 -332,-236 -71,-87 -33,28 -131,-72 -89,-90 -218,-210 -221,-360l-145 -15c-15,65 -72,173 -111,312 -29,105 -64,247 -64,372z"/>
    <path class="fil0" d="M465 3547c0,111 49,247 88,320 -200,134 -349,417 -349,669 0,78 14,128 29,189 -30,44 -59,50 -70,105 -26,130 42,66 -51,225 -13,21 -24,45 -34,69 -136,347 159,357 209,391 51,33 113,151 269,210 151,57 285,48 448,48 108,0 67,-36 165,8 77,35 79,15 121,83 48,78 140,162 237,185 12,-147 87,-169 87,-669 -250,-21 -318,-95 -535,-279 -30,-26 -49,-27 -61,-70 56,-15 157,-100 191,-143 270,-338 51,-191 -128,-575 -147,-315 -124,-579 -43,-905 28,-113 107,-304 111,-355 -43,-12 -24,-6 -58,-29 -59,13 -86,41 -128,77 -22,20 -30,35 -59,31 -75,-12 -34,-107 -31,-137 -173,14 -408,326 -408,552z"/>
    <path class="fil0" d="M4319 3795c0,595 -255,689 -436,960 31,46 72,109 112,149 33,33 120,100 164,112 -12,47 -14,31 -44,57 -104,89 -309,275 -435,278 0,176 5,485 72,625 138,-37 57,-135 277,-219 65,-25 349,43 582,-42 164,-61 201,-154 271,-209 89,-69 413,-39 155,-510 -38,-69 -10,-87 -20,-168 -9,-68 -40,-69 -72,-117 67,-289 -6,-511 -185,-732 -62,-77 -54,-72 -135,-126 228,-431 -88,-790 -233,-829 18,36 23,100 -31,108 -34,5 -70,-44 -108,-71 -196,-142 -68,121 -67,125 55,145 133,419 133,609z"/>
    <path class="fil0" d="M2618 13c15,15 52,-21 17,-8 -1,1 -42,-16 -17,8z"/>
    <path class="fil0" d="M5163 5205c1,2 4,-6 4,-4l0 0c0,0 -5,3 -4,4z"/>
    <path class="fil0" d="M1934 653l5 -4c-1,0 -6,3 -5,4z"/>
    <path class="fil0" d="M2152 391l5 -4c0,0 -6,3 -5,4z"/>
    <path class="fil0" d="M3112 421l5 -5c-1,0 -6,3 -5,5z"/>
    <path class="fil0" d="M3316 653l4 -4c0,0 -5,3 -4,4z"/>
    <path class="fil0" d="M3098 391l4 -4c0,0 -6,3 -4,4z"/>
    <path class="fil0" d="M2138 421l4 -5c0,0 -6,3 -4,5z"/>
    <path class="fil0" d="M5163 5322l4 -5c0,1 -5,3 -4,5z"/>
    <path class="fil0" d="M0 5220l6 -6c0,0 -2,1 -2,2 0,0 -3,1 -4,3l0 1z"/>
    <path class="fil0" d="M0 5336c1,2 4,-6 4,-4 0,1 2,-2 2,-2l-6 6z"/>
    <path class="fil0" d="M1832 1889c0,397 394,78 631,548 31,61 149,372 280,145 125,-215 158,-401 530,-459 128,-20 174,-87 174,-234 197,-4 87,-368 -56,-304 -16,7 -172,130 -264,130 -52,0 -269,-65 -294,-85 -40,-33 -38,-195 -188,-202 -145,-6 -171,168 -185,187 -26,37 -256,100 -293,100 -56,0 -159,-45 -210,-81 -25,-18 -38,-33 -59,-44 -152,-83 -264,295 -66,299z"/>
   </g>
   <path class="fil2" d="M2649 1389c68,3 126,40 158,93 37,67 30,97 41,114 -1,1 0,3 4,5 12,10 35,15 92,24l-1 -2c49,9 116,21 198,34 94,0 233,-57 233,-204 0,-149 -233,-241 -247,-160 42,10 105,30 134,55 48,41 193,352 -334,247l0 0c-25,-40 -46,-65 -47,-142 -81,0 -70,4 -102,-43 136,-119 554,-494 698,-190 -49,47 -183,-92 -262,15 170,14 204,167 204,305 160,4 204,205 155,316 -41,92 -61,4 -98,135 -69,246 -291,138 -363,218 -173,60 -281,284 -286,295 -70,145 -73,180 -177,185l0 1257c27,-100 115,-171 216,-195 -3,39 -7,40 -14,73 33,-18 81,-49 116,-58 -28,42 -30,19 -44,72 116,-27 360,-123 463,-191 180,-118 149,-179 233,-196 49,-10 -26,58 115,-82 94,-92 149,-164 149,-302 108,-9 238,-11 262,-101 46,10 82,31 120,55 45,28 60,50 98,76 0,-217 -207,-255 -452,-333 -85,-27 -243,-51 -304,-89 -210,-129 -144,-409 -106,-616 14,-77 20,-80 74,-114 137,-88 90,-194 24,-324 -70,-140 -94,-112 -94,-255 0,-92 102,-128 102,-204 0,-35 -76,-122 -123,-241 -20,-51 -77,-215 -110,-253 0,100 -22,175 -29,262 -54,-40 -40,-168 -69,-295 -15,-66 -28,-83 -51,-138 -24,-56 -25,-88 -69,-120l0 174c-54,-39 -93,-172 -141,-237 -37,-50 -133,-168 -179,-199 0,172 -29,-7 -29,146 -97,-52 -111,-139 -158,-189l0 1317zm0 1275l0 -1235c146,9 144,169 184,201 25,20 242,85 294,85 92,0 248,-123 264,-130 143,-64 253,300 56,304 0,147 -46,214 -174,234 -372,58 -405,244 -530,459 -32,56 -64,80 -94,82zm478 -1182c0,49 -50,82 -73,117 317,0 240,-176 170,-228 -44,-33 -83,-34 -155,-34 16,59 58,61 58,145z"/>
   <path class="fil3" d="M2649 2664l1 0 0 0 0 0 0 0 0 0 0 0 0 0 0 0m3 -1l0 0 0 0 0 0 0 0 0 0 0 0 0 0 2 0 0 0 0 0 0 0 0 0 0 0 0 0 0 0 0 0 1 0 0 0m2 -1l1 0 0 0 0 0 0 0 0 0 0 0 0 0 2 0 0 0 0 0 0 0 0 0 0 0m3 -1l0 0 0 0 0 0 0 0 0 0m3 -1l0 0 0 0 0 0 0 0 0 0 0 0 0 0 0 0m3 -1l0 0 0 0 0 0 0 0 0 0 0 0 0 0 0 0 2 -1 0 0 0 0 0 0 0 0 0 0 1 0m3 -2l0 0 0 0 2 -1 0 0 0 0m4 -2l0 0 0 0 0 0 2 -2 0 0m4 -2l0 0 0 0 2 -1 0 0 0 0 0 0m4 -4l1 -1 0 0 0 0m5 -4l0 0 0 0 1 -1 0 0 0 0 0 0m5 -5l0 0 0 0 1 -1m6 -6l0 0 0 0 0 0 0 -1m6 -6l0 0 0 -1 0 0 0 0m6 -7l0 0 0 -1m6 -8l0 0 0 0 0 0 0 -1 0 0m6 -9l0 0 0 0m6 -10c125,-215 158,-401 530,-459 128,-20 174,-87 174,-234 197,-4 87,-368 -56,-304 -16,7 -172,130 -264,130 -52,0 -269,-65 -294,-85 0,0 -1,-1 -1,-1l-1 0 0 0c0,-1 -1,-1 -1,-2l0 0 0 0c-1,-1 -1,-1 -2,-2l0 0 0 0c-1,-1 -1,-2 -2,-2l0 0 0 0 0 0 0 0c0,-1 -1,-2 -1,-3l0 0 -1 0 0 0 0 0 0 0 0 0 0 0c0,-1 -1,-1 -1,-2l0 0 0 0 0 0 0 0 0 0 0 0 0 0 0 0 0 0c-1,-1 -1,-2 -2,-3l0 0 0 0 0 0 0 0 0 0 0 0 0 0 0 0 0 0 0 0 0 0c0,-1 -1,-2 -1,-2l0 0 0 0 0 0 0 0 0 -1 0 0 0 0 0 0 0 0 0 0 0 0 0 0 0 0 -2 -2 0 0 0 0 0 -1 0 0 0 0 0 0 -1 -2 0 -1 0 0 0 0 0 0 0 0 0 0 0 0 0 0c-1,-1 -1,-2 -2,-3l0 0 -1 -3 0 0 0 0m-164 1064l0 0 0 0 0 0m3 -1l0 0m155 -1077l0 0 0 0 0 -1 0 0 0 0 0 0 0 0 -1 0 0 0 0 -1 0 0 0 0 0 0 0 -1 0 0 0 0 0 0 0 0 0 -1 -1 0 0 0 0 0 0 0 0 0 0 0 0 0 0 -1 0 0 0 0 0 0 0 0 0 0 0 -1 0 0 0 0 0 0 0 0 0 0 0 0 -1 0 0 -1 0 0 0 0 0 0 0 0 0 0 0 0 0 0 0 0 0 -1 0 0 0 0 -1 -3 -1 -1 -1 -3 0 -1 -1 -1 -1 -3 0 0 -1 -3 0 -1 -1 -2 -1 -2 0 -1 -1 -3 -3 -6 0 0c-18,-45 -46,-95 -106,-113l-1 0c-3,-1 -7,-2 -12,-3l0 0c-5,-1 -11,-2 -17,-3l-1 0c-2,0 -4,0 -7,0m174 189l0 0 0 0 0 0 0 0 0 0c-1,-1 -1,-2 -2,-3l0 0 0 0 0 0 0 0 0 0m-10 -22l0 0 -2 -3 -1 -4 0 0"/>
   <path class="fil2" d="M2649 2664c30,-2 62,-26 94,-82 125,-215 158,-401 530,-459 128,-20 174,-87 174,-234 197,-4 87,-368 -56,-304 -16,7 -172,130 -264,130 -52,0 -269,-65 -294,-85 -40,-32 -38,-192 -184,-201l0 1235z"/>
   <path class="fil2" d="M3970 3097l-43 0c-3,117 -92,230 -156,294l-88 89c-72,55 -41,-23 -101,41 -29,31 -14,31 -52,66 -21,19 -33,24 -57,44 -123,102 -475,251 -564,251 -29,0 3,-27 -88,-29 -5,-62 -34,-47 -98,33 -12,15 -63,101 -74,132l0 2191c207,0 256,-14 435,-28l451 -88c38,-6 25,-1 62,-11 62,-17 -11,-19 53,-19 45,0 120,117 69,-37 -124,-377 -135,-692 6,-1066 47,-126 122,-247 206,-347 91,-108 169,-161 239,-299 159,-318 123,-751 -8,-1074 -24,-60 -45,-91 -61,-158 -65,1 -57,15 -131,15z"/>
   <path class="fil2" d="M4319 3795c0,595 -255,689 -436,960 31,46 72,109 112,149 33,33 120,100 164,112 -12,47 -14,31 -44,57 -104,89 -309,275 -435,278 0,176 5,485 72,625 138,-37 57,-135 277,-219 65,-25 349,43 582,-42 164,-61 201,-154 271,-209 89,-69 413,-39 155,-510 -38,-69 -10,-87 -20,-168 -9,-68 -40,-69 -72,-117 67,-289 -6,-511 -185,-732 -62,-77 -54,-72 -135,-126 228,-431 -88,-790 -233,-829 18,36 23,100 -31,108 -34,5 -70,-44 -108,-71 -196,-142 -68,121 -67,125 55,145 133,419 133,609z"/>
   <path class="fil2" d="M2649 6c1,-1 1,-2 0,-3l0 3z"/>
   <path class="fil2" d="M5163 5205c1,2 4,-6 4,-4l0 0c0,0 -5,3 -4,4z"/>
   <path class="fil2" d="M3112 421l5 -5c-1,0 -6,3 -5,5z"/>
   <path class="fil2" d="M3316 653l4 -4c0,0 -5,3 -4,4z"/>
   <path class="fil2" d="M3098 391l4 -4c0,0 -6,3 -4,4z"/>
   <path class="fil2" d="M5163 5322l4 -5c0,1 -5,3 -4,5z"/>
  </g>
 </g>
</svg>
