<?xml version="1.0" encoding="UTF-8"?>
<!DOCTYPE svg PUBLIC "-//W3C//DTD SVG 1.1//EN" "http://www.w3.org/Graphics/SVG/1.1/DTD/svg11.dtd">
<!-- Creator: CorelDRAW X7 -->
<svg xmlns="http://www.w3.org/2000/svg" xml:space="preserve" width="100%" height="100%" version="1.1" style="shape-rendering:geometricPrecision; text-rendering:geometricPrecision; image-rendering:optimizeQuality; fill-rule:evenodd; clip-rule:evenodd"
viewBox="0 0 2075 448"
 xmlns:xlink="http://www.w3.org/1999/xlink">
 <defs>
  <style type="text/css">
   <![CDATA[
    .fil0 {fill:#FEFEFE}
    .fil1 {fill:#2B2A29;fill-opacity:0.109804}
   ]]>
  </style>
 </defs>
 <g id="Layer_x0020_1">
  <metadata id="CorelCorpID_0Corel-Layer"/>
  <g id="_719672661696">
   <path class="fil0" d="M127 0c11,3 20,8 26,15 7,7 11,16 14,28l0 89c-2,7 -5,13 -9,18 -4,5 -10,9 -17,11 8,2 14,6 18,11 4,6 7,11 9,18l0 89c-2,11 -7,21 -13,27 -7,7 -16,13 -27,16l-128 0 0 -60 19 0 0 -202 -19 0 0 -60 127 0zm-11 78c0,-5 -2,-9 -5,-13 -4,-3 -7,-5 -11,-5l-31 0 0 83 31 0c8,0 13,-3 16,-9l0 -56zm1 120c0,-7 -2,-12 -4,-15 -3,-3 -8,-5 -15,-5l-29 0 0 84 37 0c3,-1 5,-4 8,-6 2,-3 3,-7 3,-12l0 -46zm125 124c-12,-3 -20,-9 -27,-16 -7,-6 -11,-16 -14,-27l0 -236c3,-12 7,-21 14,-28 7,-7 15,-12 27,-15l74 0c12,3 21,8 27,15 7,7 11,16 14,28l0 236c-3,11 -7,21 -14,27 -6,7 -15,13 -27,16l-74 0zm53 -58c3,-1 5,-3 7,-4 3,-2 4,-6 4,-12l0 -174c0,-6 -1,-10 -4,-12 -2,-2 -4,-3 -7,-4l-32 0c-3,1 -5,2 -7,4 -3,2 -4,6 -4,12l0 174c0,6 1,10 4,12 2,1 4,3 7,4l32 0zm245 15c-2,11 -6,21 -13,27 -7,7 -16,13 -27,16l-72 0c-11,-3 -20,-9 -26,-16 -7,-6 -12,-16 -14,-27l0 -56 50 0 0 27c0,6 1,10 3,12 3,2 5,3 8,4l26 0c3,-1 5,-2 8,-4 2,-2 3,-6 3,-12l0 -8 0 -19c0,-6 0,-10 -1,-12 -1,-2 -4,-5 -9,-8l-69 -45c-5,-4 -9,-9 -14,-16 -4,-8 -6,-16 -6,-26l0 -71c1,-6 3,-12 6,-18 4,-6 7,-10 12,-14 4,-4 9,-7 14,-10 5,-2 10,-3 15,-3l40 0 14 15 0 -15 51 0 0 99 -51 0 0 -39 -37 0c-3,2 -5,5 -6,7 -2,3 -3,7 -3,13l0 30c0,4 1,7 2,9 1,2 4,5 9,8l69 45c5,4 10,9 13,16 4,6 5,13 5,19l0 72zm135 -36l-41 -161 0 180 18 0 0 60 -87 0 0 -60 18 0 0 -202 -18 0 0 -60 91 0 30 131 31 -131 91 0 0 60 -18 0 0 202 18 0 0 60 -87 0 0 -60 18 0 0 -180 -42 161 -22 0zm368 -142c0,7 0,14 -1,20 -1,5 -3,11 -5,16 -2,4 -5,9 -9,13 -4,5 -9,9 -16,14l-56 42c-4,2 -6,5 -7,8 -1,3 -1,5 -1,8l0 40 45 0 0 -40 48 0 0 100 -147 0 0 -98c0,-5 1,-10 1,-15 1,-4 1,-8 3,-12 1,-4 4,-7 6,-10 3,-4 7,-7 12,-11l62 -46c4,-3 6,-5 8,-7 3,-2 4,-5 5,-7 1,-2 1,-5 2,-8 0,-3 0,-7 0,-11l0 -21c0,-5 -1,-8 -3,-10 -1,-2 -3,-4 -6,-6l-37 0 0 39 -52 0 0 -99 52 0 0 15 13 -15 43 0c11,3 20,8 27,15 6,7 11,16 13,28l0 58zm71 221c-11,-3 -20,-9 -26,-16 -7,-6 -12,-16 -14,-27l0 -236c2,-12 7,-21 14,-28 6,-7 15,-12 26,-15l71 0c11,3 20,8 27,15 6,7 11,16 13,28l0 236c-2,11 -7,21 -13,27 -7,7 -16,13 -27,16l-71 0zm50 -60c3,-1 5,-3 8,-5 2,-2 3,-5 3,-11l0 -170c0,-6 -1,-10 -3,-12 -3,-2 -5,-3 -8,-4l-29 0c-3,1 -5,2 -8,4 -2,2 -3,6 -3,12l0 170c0,6 1,9 3,11 3,2 5,4 8,5l29 0zm159 0l22 0 0 60 -93 0 0 -60 21 0 0 -202 -21 0 0 -51 27 -9 44 0 0 262zm198 17c-3,11 -7,21 -14,27 -6,7 -15,13 -27,16l-69 0c-11,-3 -20,-9 -26,-16 -7,-6 -12,-16 -14,-27l0 -56 51 0 0 25c0,6 1,10 3,12 2,1 4,3 7,4l27 0c3,-1 5,-3 7,-4 3,-2 4,-6 4,-12l0 -57c0,-9 -2,-15 -7,-18 -4,-3 -10,-4 -18,-4 -5,0 -10,1 -15,4 -6,4 -9,8 -10,14l-49 0 0 -187 146 0 0 99 -46 0 0 -39 -49 0 0 76c6,-3 12,-6 20,-7 8,-2 16,-2 23,-2 15,-1 28,3 39,9 10,7 16,18 17,33l0 110z"/>
   <path class="fil1" d="M513 0c23,0 1004,0 1004,0l558 448 -1836 0 -175 -126c0,0 436,-318 449,-322z"/>
  </g>
 </g>
</svg>
