<?xml version="1.0" encoding="UTF-8"?>
<!DOCTYPE svg PUBLIC "-//W3C//DTD SVG 1.1//EN" "http://www.w3.org/Graphics/SVG/1.1/DTD/svg11.dtd">
<!-- Creator: CorelDRAW X7 -->
<svg xmlns="http://www.w3.org/2000/svg" xml:space="preserve" width="100%" height="100%" version="1.1" style="shape-rendering:geometricPrecision; text-rendering:geometricPrecision; image-rendering:optimizeQuality; fill-rule:evenodd; clip-rule:evenodd"
viewBox="0 0 514 453"
 xmlns:xlink="http://www.w3.org/1999/xlink">
 <defs>
  <style type="text/css">
   <![CDATA[
    .fil0 {fill:#FEFEFE}
    .fil1 {fill:#2B2A29;fill-opacity:0.109804}
   ]]>
  </style>
 </defs>
 <g id="Layer_x0020_1">
  <metadata id="CorelCorpID_0Corel-Layer"/>
  <g id="_719672666976">
   <path class="fil0" d="M0 278l92 0c12,37 75,37 87,0l92 0c0,-46 3,-36 -12,-47 -39,-31 -24,-58 -28,-114 -3,-45 -36,-78 -76,-86 -1,-17 -2,-31 -20,-31 -18,0 -18,14 -19,31 -40,8 -73,41 -76,86 -2,25 2,54 -4,79 -7,30 -33,36 -36,45l0 37z"/>
   <polygon class="fil1" points="218,75 514,372 514,453 174,453 0,278 "/>
  </g>
 </g>
</svg>
