<?xml version="1.0" encoding="UTF-8"?>
<!DOCTYPE svg PUBLIC "-//W3C//DTD SVG 1.1//EN" "http://www.w3.org/Graphics/SVG/1.1/DTD/svg11.dtd">
<!-- Creator: CorelDRAW X7 -->
<svg xmlns="http://www.w3.org/2000/svg" xml:space="preserve" width="100%" height="100%" version="1.1" style="shape-rendering:geometricPrecision; text-rendering:geometricPrecision; image-rendering:optimizeQuality; fill-rule:evenodd; clip-rule:evenodd"
viewBox="0 0 696 450"
 xmlns:xlink="http://www.w3.org/1999/xlink">
 <defs>
  <style type="text/css">
   <![CDATA[
    .fil0 {fill:#FEFEFE}
    .fil1 {fill:#2B2A29;fill-opacity:0.109804}
   ]]>
  </style>
 </defs>
 <g id="Layer_x0020_1">
  <metadata id="CorelCorpID_0Corel-Layer"/>
  <g id="_719708230784">
   <path class="fil0" d="M26 90c71,2 67,-2 68,-70l121 0c18,0 13,12 13,29 40,-27 18,-52 -13,-52l-134 0c-12,0 -28,22 -42,35 -11,11 -36,32 -36,42l0 211c0,25 10,38 35,38l180 0c23,0 33,-12 33,-35l-1 -104c-28,25 -23,19 -22,91 0,19 4,26 -15,26l-173 0c-18,0 -14,0 -14,-41l0 -170z"/>
   <path class="fil0" d="M222 133l-65 68c-8,-3 -1,0 -6,-3 -3,-2 -3,-2 -6,-4 4,-12 104,-108 120,-124 7,-6 13,-10 10,-22 -13,-2 -37,28 -53,44 -17,17 -33,32 -50,50l-50 50c-5,8 -34,61 -34,67 4,6 2,3 6,7 13,0 52,-22 67,-30 12,-7 105,-101 125,-121 8,-8 45,-32 3,-48 -20,22 -45,44 -67,66z"/>
   <path class="fil0" d="M300 56c7,8 12,16 23,18 10,-3 30,-24 34,-33 1,-5 -33,-39 -39,-41 -7,4 -32,29 -36,36 4,9 11,14 18,20z"/>
   <polygon class="fil1" points="0,300 160,451 696,455 357,41 318,0 275,48 233,-3 74,-5 0,62 "/>
  </g>
 </g>
</svg>
