<?xml version="1.0" encoding="UTF-8"?>
<!DOCTYPE svg PUBLIC "-//W3C//DTD SVG 1.1//EN" "http://www.w3.org/Graphics/SVG/1.1/DTD/svg11.dtd">
<!-- Creator: CorelDRAW X7 -->
<svg xmlns="http://www.w3.org/2000/svg" xml:space="preserve" width="100%" height="100%" version="1.1" style="shape-rendering:geometricPrecision; text-rendering:geometricPrecision; image-rendering:optimizeQuality; fill-rule:evenodd; clip-rule:evenodd"
viewBox="0 0 894 430"
 xmlns:xlink="http://www.w3.org/1999/xlink">
 <defs>
  <style type="text/css">
   <![CDATA[
    .fil0 {fill:#FEFEFE}
   ]]>
  </style>
 </defs>
 <g id="Layer_x0020_1">
  <metadata id="CorelCorpID_0Corel-Layer"/>
  <path class="fil0" d="M80 24c5,6 10,12 15,20 4,8 6,15 6,20 0,12 -5,23 -16,34 -5,4 -7,10 -7,16 0,4 0,6 2,9 1,2 2,5 4,8 2,2 4,5 6,8 3,4 5,7 6,12 3,9 5,18 5,26l0 122c0,8 -1,16 -4,22 -2,6 -5,9 -9,9 -3,0 -6,-3 -9,-9 -2,-6 -3,-13 -3,-22l0 -111c0,-9 -2,-17 -5,-26 -3,-9 -6,-16 -11,-20 -4,-4 -9,-8 -13,-11 -5,-2 -9,-4 -12,-4 -2,0 -5,3 -7,9 -2,6 -3,13 -3,21l0 142c0,8 -1,16 -4,22 -2,6 -5,9 -9,9 -3,0 -6,-3 -8,-10 -3,-6 -4,-13 -4,-21l0 -268c0,-9 3,-16 8,-22 5,-6 12,-9 20,-9 7,0 16,2 26,6 9,5 17,10 23,16l3 2zm-55 47c0,9 1,16 3,22 2,6 4,9 7,9 3,0 7,-2 12,-5 5,-3 9,-7 14,-11 2,-2 5,-5 8,-9 4,-6 7,-10 7,-13 0,-2 -2,-6 -5,-10 -3,-4 -6,-9 -10,-13 -4,-3 -8,-7 -14,-10 -5,-4 -9,-5 -12,-5 -2,0 -5,3 -7,9 -2,6 -3,13 -3,21l0 15zm202 61l0 21c0,9 -2,18 -6,27 -4,10 -9,18 -15,24l-3 3c-6,6 -12,11 -19,15 -7,4 -13,6 -17,6 -5,0 -8,2 -11,7 -3,4 -5,10 -5,16 0,6 2,13 4,20 3,7 7,13 12,18 3,3 8,7 13,10 6,4 10,5 12,5 3,0 5,-2 7,-7 2,-5 3,-11 3,-18 0,-7 1,-13 3,-18 3,-5 6,-7 9,-7 4,0 7,3 9,8 3,6 4,13 4,22l0 15c0,9 -3,16 -8,22 -6,6 -12,9 -20,9 -7,0 -16,-2 -26,-7 -9,-4 -17,-9 -24,-15l-2 -2c-14,-14 -21,-32 -21,-52l0 -77c0,-9 2,-18 6,-28 4,-9 9,-17 15,-23l2 -3c7,-6 14,-11 24,-15 10,-4 19,-6 26,-6 7,0 14,3 20,9 5,6 8,13 8,21zm-25 17c0,-6 -1,-11 -3,-15 -2,-5 -4,-7 -7,-7 -3,0 -7,2 -12,4 -4,3 -9,7 -13,11 -4,4 -8,10 -11,18 -3,7 -5,14 -5,20 0,7 1,12 3,17 2,4 4,6 7,6 4,0 8,-2 12,-5 5,-2 9,-6 14,-11 4,-5 8,-10 10,-17 3,-6 5,-13 5,-21zm151 -17l0 222c0,9 -2,19 -6,28 -4,10 -9,18 -15,24l-3 3c-5,6 -13,11 -23,15 -10,4 -19,6 -26,6 -8,0 -14,-3 -20,-8 -5,-6 -8,-13 -8,-22l0 -15c0,-9 1,-17 4,-22 2,-6 5,-9 8,-9 4,0 7,3 9,7 3,5 4,11 4,19 0,7 1,13 3,18 2,5 4,7 7,7 4,0 8,-2 13,-4 4,-3 9,-7 13,-12 4,-5 8,-10 10,-17 3,-6 5,-13 5,-20 0,-7 -2,-12 -5,-16 -2,-4 -6,-6 -10,-6 -4,0 -10,-2 -17,-7 -7,-4 -14,-9 -20,-15l-3 -2c-14,-14 -21,-32 -21,-52l0 -77c0,-9 2,-18 6,-28 4,-9 9,-17 15,-23l3 -3c6,-6 13,-11 23,-15 10,-4 19,-6 26,-6 7,0 14,3 20,9 5,6 8,13 8,21zm-25 142l0 -117c0,-8 -1,-15 -3,-21 -2,-6 -4,-9 -7,-9 -3,0 -7,2 -12,4 -4,3 -9,7 -13,11 -4,4 -8,10 -11,20 -3,9 -5,18 -5,26l0 55c0,9 2,18 4,26 3,9 7,15 12,20 3,3 8,7 13,10 6,4 10,5 12,5 3,0 5,-3 7,-8 2,-6 3,-14 3,-22zm50 -142c0,-8 1,-15 4,-21 2,-6 5,-9 9,-9 4,0 7,3 9,8 3,6 4,13 4,22l0 167c0,8 -1,16 -4,22 -2,6 -5,9 -9,9 -4,0 -7,-3 -9,-9 -3,-6 -4,-13 -4,-22l0 -167zm13 -81c9,0 13,4 13,13 0,8 -4,12 -13,12 -9,0 -13,-4 -13,-12 0,-9 4,-13 13,-13zm139 81l0 15c0,9 -1,16 -4,22 -2,6 -5,9 -9,9 -3,0 -6,-3 -9,-8 -2,-4 -4,-10 -4,-18 0,-7 -1,-13 -2,-18 -2,-4 -4,-7 -7,-7 -3,0 -7,2 -12,5 -5,3 -9,6 -13,10 -5,4 -8,8 -11,13 -4,4 -5,7 -5,10 0,2 3,7 9,15 2,3 6,8 13,14l33 33c5,5 10,12 14,20 5,8 7,14 7,19 0,5 -2,12 -6,19 -3,7 -9,14 -15,21l-3 2c-6,6 -14,11 -23,15 -10,5 -19,7 -27,7 -7,0 -14,-3 -19,-9 -6,-6 -8,-14 -8,-22l0 -15c0,-9 1,-16 3,-22 3,-5 5,-8 9,-8 4,0 7,2 9,7 3,4 4,10 4,18 0,7 1,13 3,18 2,5 4,7 7,7 3,0 6,-1 9,-2 3,-2 6,-4 9,-7 3,-3 6,-5 9,-8 2,-3 5,-6 6,-8 5,-5 7,-10 7,-13 0,-2 -2,-6 -6,-11 -3,-6 -9,-11 -15,-18l-33 -33c-6,-5 -11,-12 -15,-20 -4,-8 -6,-14 -6,-19 0,-6 2,-12 5,-19 4,-7 9,-14 16,-20l2 -3c6,-6 14,-11 24,-15 10,-4 18,-6 26,-6 7,0 14,3 19,9 6,6 9,13 9,21zm126 -18c0,4 -3,7 -8,9 -4,3 -11,4 -18,4 -7,0 -13,3 -17,9 -5,6 -8,13 -8,21l0 86c0,10 1,19 4,26 3,8 7,14 11,19 5,5 9,9 14,12 5,2 9,4 12,4 7,0 10,5 10,13 0,4 -2,7 -4,9 -3,3 -7,4 -12,4 -4,0 -9,-2 -17,-7 -7,-4 -13,-9 -19,-15l-2 -2c-15,-15 -22,-32 -22,-52l0 -97c0,-8 -1,-15 -4,-21 -2,-6 -5,-9 -9,-9 -8,0 -12,-4 -12,-13 0,-8 4,-12 12,-12 4,0 7,-3 9,-8 3,-5 4,-11 4,-18 0,-7 1,-13 4,-17 2,-5 5,-8 9,-8 3,0 6,2 9,7 2,5 3,11 3,18 0,8 3,14 8,18 4,5 10,8 17,8 7,0 14,1 18,3 5,3 8,6 8,9zm112 18l0 21c0,9 -2,18 -6,27 -4,10 -9,18 -16,24l-2 3c-6,6 -13,11 -20,15 -7,4 -12,6 -17,6 -4,0 -8,2 -11,7 -3,4 -4,10 -4,16 0,6 1,13 4,20 3,7 6,13 11,18 4,3 8,7 14,10 5,4 9,5 12,5 2,0 5,-2 6,-7 2,-5 3,-11 3,-18 0,-7 1,-13 4,-18 2,-5 5,-7 9,-7 3,0 6,3 9,8 2,6 4,13 4,22l0 15c0,9 -3,16 -9,22 -5,6 -12,9 -20,9 -7,0 -16,-2 -25,-7 -10,-4 -18,-9 -24,-15l-2 -2c-14,-14 -21,-32 -21,-52l0 -77c0,-9 2,-18 5,-28 4,-9 9,-17 16,-23l2 -3c6,-6 14,-11 24,-15 9,-4 18,-6 25,-6 8,0 14,3 20,9 6,6 9,13 9,21zm-26 17c0,-6 -1,-11 -3,-15 -1,-5 -4,-7 -6,-7 -4,0 -8,2 -12,4 -5,3 -9,7 -13,11 -5,4 -8,10 -12,18 -3,7 -4,14 -4,20 0,7 0,12 2,17 2,4 4,6 8,6 3,0 7,-2 12,-5 5,-2 9,-6 13,-11 4,-5 8,-10 11,-17 3,-6 4,-13 4,-21zm152 -17l0 15c0,9 -2,16 -4,22 -3,6 -6,9 -9,9 -4,0 -7,-3 -9,-8 -3,-4 -4,-10 -4,-18 0,-7 -1,-13 -2,-18 -2,-4 -5,-7 -7,-7 -4,0 -7,2 -12,4 -5,3 -9,7 -13,11 -5,4 -8,10 -12,20 -3,9 -4,18 -4,26l0 111c0,8 -2,16 -4,22 -3,6 -6,9 -9,9 -3,0 -6,-3 -9,-10 -2,-6 -3,-13 -3,-21l0 -122c0,-9 2,-18 5,-28 4,-9 10,-17 16,-23l2 -3c6,-6 14,-11 24,-15 9,-4 18,-6 26,-6 7,0 14,3 19,9 6,6 9,13 9,21z"/>
 </g>
</svg>
