<?xml version="1.0" encoding="utf-8"?>
<!-- Generator: Adobe Illustrator 16.0.0, SVG Export Plug-In . SVG Version: 6.00 Build 0)  -->
<!DOCTYPE svg PUBLIC "-//W3C//DTD SVG 1.1//EN" "http://www.w3.org/Graphics/SVG/1.1/DTD/svg11.dtd">
<svg version="1.1" id="Layer_1" xmlns="http://www.w3.org/2000/svg" xmlns:xlink="http://www.w3.org/1999/xlink" x="0px" y="0px"
	 width="50px" height="50px" viewBox="0 0 50 50" enable-background="new 0 0 50 50" xml:space="preserve">
<path fill-rule="evenodd" clip-rule="evenodd" fill="#FBFBFB" d="M24.938,0C11.096,0-0.125,11.221-0.125,25.063
	s11.221,25.063,25.063,25.063S50,38.904,50,25.063S38.779,0,24.938,0z M26.017,37.653c-1.534,1.874-2.499,4.084-2.624,6.752
	c-3.423-3.605-3.741-8.019-0.928-11.769c0.996-1.328,2.131-2.551,3.222-3.844C27.759,31.708,28.15,35.042,26.017,37.653z
	 M27.121,27.079c-0.365,0.458-0.773,0.883-1.256,1.429c-4.661-7.325-10.66-13.319-16.62-19.667c2.93,0,5.632,0.184,8.297-0.055
	c2.26-0.203,3.561,0.584,4.677,2.501c1.635,2.809,3.607,5.42,5.361,8.164C29.561,22.54,29.431,24.181,27.121,27.079z M29.078,19.025
	c-0.882-1.364-1.787-2.714-2.616-4.108c-0.156-0.262-0.145-0.786,0.018-1.048c0.944-1.545,1.941-3.06,2.967-4.553
	c0.17-0.252,0.562-0.498,0.855-0.501c3.256-0.035,6.512-0.023,9.767-0.023c0.252,0,0.507,0,0.973,0
	C36.987,12.259,33.085,15.597,29.078,19.025z"/>
</svg>
